<svg width="162" height="48" viewBox="0 0 162 48" fill="none" xmlns="http://www.w3.org/2000/svg">
<rect x="1" y="1" width="160" height="46" rx="1" stroke="#FFE7D6" stroke-width="2"/>
<path d="M32.988 29H30.867L29.222 25.101H27.171V29H25.134V18.878H29.404C30.2113 18.878 30.8717 19.0063 31.385 19.263C31.8983 19.5197 32.2763 19.8767 32.519 20.334C32.7617 20.7867 32.883 21.3093 32.883 21.902C32.883 22.434 32.799 22.8843 32.631 23.253C32.4677 23.617 32.2507 23.9203 31.98 24.163C31.714 24.4057 31.4223 24.604 31.105 24.758L32.988 29ZM29.04 23.526C29.586 23.526 30.0177 23.379 30.335 23.085C30.657 22.791 30.818 22.413 30.818 21.951C30.818 21.4843 30.664 21.1157 30.356 20.845C30.048 20.5743 29.6583 20.439 29.187 20.439H27.171V23.526H29.04ZM35.05 29V18.878H42.001L41.994 20.6H37.101V23.057H41.35V24.744H37.087V27.257L42.071 27.264V29H35.05ZM43.3968 29L47.0228 18.878H49.1788L52.7978 29H50.7608L49.9348 26.655H46.2948L45.4478 29H43.3968ZM46.7498 24.87H49.4448L48.1078 20.852L46.7498 24.87ZM54.4857 18.878C54.537 18.878 54.6793 18.878 54.9127 18.878C55.1507 18.878 55.4283 18.878 55.7457 18.878C56.0677 18.878 56.3873 18.8803 56.7047 18.885C57.0267 18.885 57.295 18.8873 57.5097 18.892C58.737 18.92 59.738 19.1393 60.5127 19.55C61.2873 19.9607 61.8543 20.5347 62.2137 21.272C62.5777 22.0093 62.7597 22.882 62.7597 23.89C62.7597 24.94 62.5683 25.8477 62.1857 26.613C61.803 27.3737 61.2173 27.9617 60.4287 28.377C59.6447 28.7923 58.6483 29 57.4397 29H54.4857V18.878ZM56.5437 20.53V27.348H57.4817C58.0603 27.348 58.5853 27.236 59.0567 27.012C59.5327 26.788 59.913 26.4217 60.1977 25.913C60.4823 25.4043 60.6247 24.7253 60.6247 23.876C60.6247 23.0873 60.4987 22.448 60.2467 21.958C59.9947 21.4633 59.6353 21.1017 59.1687 20.873C58.702 20.6443 58.149 20.53 57.5097 20.53H56.5437ZM67.8646 29V18.878H70.8326L73.1496 26.095L75.4876 18.878H78.4486V29H76.3836V21.258L73.9476 29H72.3446L69.9226 21.293V29H67.8646ZM85.0912 29.14C84.1345 29.14 83.3062 28.9323 82.6062 28.517C81.9109 28.097 81.3719 27.502 80.9892 26.732C80.6112 25.9573 80.4222 25.0333 80.4222 23.96C80.4222 22.882 80.6135 21.9533 80.9962 21.174C81.3835 20.3947 81.9272 19.795 82.6272 19.375C83.3272 18.9503 84.1485 18.738 85.0912 18.738C86.0292 18.738 86.8459 18.948 87.5412 19.368C88.2365 19.788 88.7732 20.3877 89.1512 21.167C89.5339 21.9463 89.7252 22.8773 89.7252 23.96C89.7252 25.0287 89.5362 25.9503 89.1582 26.725C88.7849 27.4997 88.2505 28.097 87.5552 28.517C86.8599 28.9323 86.0385 29.14 85.0912 29.14ZM85.0912 27.46C85.5859 27.46 86.0129 27.3433 86.3722 27.11C86.7362 26.872 87.0162 26.4987 87.2122 25.99C87.4082 25.4767 87.5062 24.8093 87.5062 23.988C87.5062 23.1433 87.4059 22.4597 87.2052 21.937C87.0092 21.4143 86.7292 21.0317 86.3652 20.789C86.0059 20.5417 85.5812 20.418 85.0912 20.418C84.6012 20.418 84.1742 20.5417 83.8102 20.789C83.4462 21.0317 83.1639 21.4167 82.9632 21.944C82.7625 22.4667 82.6622 23.148 82.6622 23.988C82.6622 24.814 82.7625 25.4813 82.9632 25.99C83.1639 26.4987 83.4462 26.872 83.8102 27.11C84.1742 27.3433 84.6012 27.46 85.0912 27.46ZM99.5566 29H97.4356L95.7906 25.101H93.7396V29H91.7026V18.878H95.9726C96.7799 18.878 97.4402 19.0063 97.9536 19.263C98.4669 19.5197 98.8449 19.8767 99.0876 20.334C99.3302 20.7867 99.4516 21.3093 99.4516 21.902C99.4516 22.434 99.3676 22.8843 99.1996 23.253C99.0362 23.617 98.8192 23.9203 98.5486 24.163C98.2826 24.4057 97.9909 24.604 97.6736 24.758L99.5566 29ZM95.6086 23.526C96.1546 23.526 96.5862 23.379 96.9036 23.085C97.2256 22.791 97.3866 22.413 97.3866 21.951C97.3866 21.4843 97.2326 21.1157 96.9246 20.845C96.6166 20.5743 96.2269 20.439 95.7556 20.439H93.7396V23.526H95.6086ZM101.619 29V18.878H108.57L108.563 20.6H103.67V23.057H107.919V24.744H103.656V27.257L108.64 27.264V29H101.619Z" fill="#FA8232"/>
<path d="M121.125 24H134.875" stroke="#FA8232" stroke-width="1.5" stroke-linecap="round" stroke-linejoin="round"/>
<path d="M129.25 18.375L134.875 24L129.25 29.625" stroke="#FA8232" stroke-width="1.5" stroke-linecap="round" stroke-linejoin="round"/>
</svg>
