<svg width="33" height="38" viewBox="0 0 33 38" fill="none" xmlns="http://www.w3.org/2000/svg">
<path d="M8.5 27.75C9.32843 27.75 10 27.0784 10 26.25C10 25.4216 9.32843 24.75 8.5 24.75C7.67157 24.75 7 25.4216 7 26.25C7 27.0784 7.67157 27.75 8.5 27.75Z" fill="white"/>
<path d="M18.25 27.75C19.0784 27.75 19.75 27.0784 19.75 26.25C19.75 25.4216 19.0784 24.75 18.25 24.75C17.4216 24.75 16.75 25.4216 16.75 26.25C16.75 27.0784 17.4216 27.75 18.25 27.75Z" fill="white"/>
<path d="M4.96562 12.75H21.7844L19.3094 21.4125C19.2211 21.7269 19.032 22.0036 18.7711 22.2C18.5103 22.3965 18.1922 22.5019 17.8656 22.5H8.88437C8.55783 22.5019 8.2397 22.3965 7.97886 22.2C7.71803 22.0036 7.52893 21.7269 7.44062 21.4125L4.04688 9.54375C4.00203 9.38696 3.9073 9.24905 3.77704 9.15093C3.64677 9.05282 3.48808 8.99983 3.325 9H1.75" stroke="white" stroke-width="2" stroke-linecap="round" stroke-linejoin="round"/>
<rect x="8.25" y="1.25" width="21.5" height="21.5" rx="10.75" fill="white"/>
<rect x="8.25" y="1.25" width="21.5" height="21.5" rx="10.75" stroke="#1B6392" stroke-width="1.5"/>
<path d="M16.0049 16V15.22V14.818C16.0049 14.374 16.0869 13.992 16.2509 13.672C16.4149 13.348 16.6329 13.066 16.9049 12.826C17.1769 12.586 17.4749 12.374 17.7989 12.19C18.1269 12.002 18.4509 11.826 18.7709 11.662C19.0949 11.494 19.3929 11.322 19.6649 11.146C19.9369 10.966 20.1549 10.766 20.3189 10.546C20.4869 10.326 20.5709 10.064 20.5709 9.76C20.5709 9.372 20.4329 9.056 20.1569 8.812C19.8849 8.564 19.5149 8.44 19.0469 8.44C18.5509 8.44 18.1409 8.582 17.8169 8.866C17.4969 9.15 17.3069 9.55 17.2469 10.066H15.8309C15.8389 9.538 15.9649 9.058 16.2089 8.626C16.4529 8.194 16.8149 7.85 17.2949 7.594C17.7749 7.334 18.3729 7.204 19.0889 7.204C19.7089 7.204 20.2429 7.312 20.6909 7.528C21.1429 7.74 21.4909 8.038 21.7349 8.422C21.9829 8.802 22.1069 9.246 22.1069 9.754C22.1069 10.198 22.0249 10.578 21.8609 10.894C21.7009 11.21 21.4869 11.484 21.2189 11.716C20.9549 11.944 20.6629 12.146 20.3429 12.322C20.0269 12.498 19.7089 12.664 19.3889 12.82C19.0729 12.972 18.7809 13.132 18.5129 13.3C18.2489 13.464 18.0349 13.652 17.8709 13.864C17.7109 14.076 17.6309 14.33 17.6309 14.626V14.752H22.1249V16H16.0049Z" fill="#1B6392"/>
</svg>
