<svg width="500" height="500" viewBox="0 0 500 500" fill="none" xmlns="http://www.w3.org/2000/svg">
<path d="M500 382.4H0V382.65H500V382.4Z" fill="#FDEEEE"/>
<path d="M449.9 398.49H428.22V398.74H449.9V398.49Z" fill="#FDEEEE"/>
<path d="M344.67 393.311H310.56V393.561H344.67V393.311Z" fill="#FDEEEE"/>
<path d="M441.12 389.211H396.59V389.461H441.12V389.211Z" fill="#FDEEEE"/>
<path d="M173.02 394.25H161.88V394.5H173.02V394.25Z" fill="#FDEEEE"/>
<path d="M152.97 394.25H114.58V394.5H152.97V394.25Z" fill="#FDEEEE"/>
<path d="M94.0096 390.029H66.3096V390.279H94.0096V390.029Z" fill="#FDEEEE"/>
<path d="M237 337.8H43.91C42.3973 337.797 40.9475 337.195 39.8788 336.124C38.8102 335.053 38.21 333.603 38.21 332.09V60.66C38.2231 59.156 38.8292 57.718 39.8964 56.6582C40.9637 55.5985 42.4059 55.0026 43.91 55H237C238.514 55 239.967 55.6016 241.038 56.6724C242.108 57.7433 242.71 59.1956 242.71 60.71V332.09C242.71 333.604 242.108 335.057 241.038 336.128C239.967 337.198 238.514 337.8 237 337.8ZM43.91 55.2C42.4636 55.2026 41.0774 55.7791 40.0556 56.8027C39.0338 57.8264 38.46 59.2136 38.46 60.66V332.09C38.46 333.536 39.0338 334.924 40.0556 335.947C41.0774 336.971 42.4636 337.547 43.91 337.55H237C238.447 337.547 239.834 336.971 240.858 335.948C241.881 334.924 242.457 333.537 242.46 332.09V60.66C242.457 59.2127 241.881 57.8255 240.858 56.8021C239.834 55.7787 238.447 55.2026 237 55.2H43.91Z" fill="#FDEEEE"/>
<path d="M453.31 337.8H260.21C258.696 337.797 257.246 337.195 256.175 336.125C255.105 335.054 254.503 333.604 254.5 332.09V60.66C254.516 59.1551 255.124 57.7171 256.193 56.6576C257.262 55.5981 258.705 55.0025 260.21 55H453.31C454.812 55.0052 456.252 55.6022 457.317 56.6617C458.382 57.7212 458.987 59.1578 459 60.66V332.09C459 333.601 458.401 335.05 457.335 336.121C456.268 337.191 454.821 337.795 453.31 337.8ZM260.21 55.2C258.763 55.2026 257.375 55.7787 256.352 56.8021C255.329 57.8255 254.753 59.2127 254.75 60.66V332.09C254.753 333.537 255.329 334.924 256.352 335.948C257.375 336.971 258.763 337.547 260.21 337.55H453.31C454.757 337.547 456.145 336.971 457.168 335.948C458.191 334.924 458.767 333.537 458.77 332.09V60.66C458.767 59.2127 458.191 57.8255 457.168 56.8021C456.145 55.7787 454.757 55.2026 453.31 55.2H260.21Z" fill="#FDEEEE"/>
<path d="M216.07 200.88L216.52 187.74L208.46 185.1C208.113 180.647 207.391 176.231 206.3 171.9L213.14 166.9L208.5 154.56L200.04 155.24C198.034 151.264 195.692 147.467 193.04 143.89L197.42 136.58L188.42 126.97L180.86 130.84C177.46 127.934 173.828 125.312 170 123L171.22 114.6L159.22 109.16L153.72 115.6C149.477 114.243 145.129 113.239 140.72 112.6L138.72 104.37L125.54 103.92L122.94 111.99C118.491 112.34 114.079 113.059 109.75 114.14L104.67 107.34L92.3298 111.95L93.0098 120.41C89.0361 122.446 85.2396 124.811 81.6598 127.48L74.2998 123L64.6498 132L68.5198 139.6C65.6132 142.982 63.0035 146.609 60.7198 150.44L52.3298 149.18L46.8498 161.18L53.3298 166.67C51.9629 170.91 50.9593 175.259 50.3298 179.67L41.9998 181.76L41.5498 194.9L49.6498 197.54C49.9849 201.99 50.7042 206.403 51.7998 210.73L44.9598 215.73L49.6098 228.08L58.0698 227.4C60.0705 231.379 62.4126 235.176 65.0698 238.75L60.6798 246.06L69.6798 255.67L77.2398 251.8C80.6304 254.705 84.2562 257.324 88.0798 259.63L86.8198 268.02L98.8198 273.47L104.35 267.03C108.593 268.399 112.941 269.42 117.35 270.08L119.35 278.31L132.53 278.76L135.13 270.69C139.581 270.336 143.996 269.617 148.33 268.54L153.33 275.34L165.67 270.73L165.03 262.27C168.996 260.221 172.792 257.856 176.38 255.2L183.65 259.58L193.3 250.58L189.43 242.98C192.337 239.598 194.947 235.971 197.23 232.14L205.62 233.4L211.1 221.4L204.62 215.9C206.01 211.663 207.03 207.313 207.67 202.9L216.07 200.88ZM127.28 243.45C116.968 243.102 106.991 239.703 98.6106 233.683C90.2305 227.664 83.824 219.294 80.2014 209.633C76.5788 199.972 75.9029 189.453 78.2592 179.408C80.6155 169.363 85.8981 160.242 93.4388 153.199C100.98 146.157 110.44 141.509 120.622 139.844C130.805 138.178 141.253 139.57 150.644 143.844C160.035 148.117 167.948 155.08 173.382 163.851C178.816 172.622 181.526 182.808 181.17 193.12C180.695 206.939 174.752 220.005 164.646 229.443C154.54 238.881 141.1 243.919 127.28 243.45Z" fill="#FDEEEE"/>
<path d="M441 157.42L444.31 154.33L443 151.72C443.999 150.551 444.899 149.3 445.69 147.98L448.59 148.41L450.46 144.27L448.24 142.38C448.718 140.916 449.069 139.414 449.29 137.89L452.14 137.18L452.28 132.64L449.5 131.74C449.378 130.203 449.13 128.678 448.76 127.18L451.11 125.43L449.51 121.18L446.6 121.41C445.898 120.04 445.085 118.728 444.17 117.49L445.68 114.99L442.57 111.67L439.97 113C438.799 112.003 437.548 111.104 436.23 110.31L436.65 107.41L432.52 105.52L430.62 107.75C429.153 107.294 427.652 106.959 426.13 106.75L425.42 103.91L420.88 103.74L419.97 106.54C418.438 106.657 416.919 106.905 415.43 107.28L413.69 104.93L409.43 106.52L409.67 109.44C408.295 110.135 406.984 110.948 405.75 111.87L403.23 110.36L399.91 113.45L401.2 116C400.193 117.166 399.29 118.418 398.5 119.74L395.61 119.31L393.73 123.45L395.96 125.35C395.498 126.812 395.163 128.311 394.96 129.83L392.1 130.54L391.96 135.08L394.75 135.98C394.864 137.518 395.108 139.044 395.48 140.54L393.12 142.28L394.72 146.53L397.64 146.31C398.342 147.681 399.154 148.992 400.07 150.23L398.56 152.73L401.67 156.05L404.27 154.72C405.439 155.72 406.69 156.62 408.01 157.41L407.58 160.3L411.72 162.19L413.62 159.97C415.088 160.422 416.589 160.757 418.11 160.97L418.82 163.81L423.36 163.98L424.27 161.18C425.802 161.064 427.321 160.816 428.81 160.44L430.55 162.79L434.81 161.2L434.58 158.28C435.951 157.584 437.259 156.771 438.49 155.85L441 157.42ZM417.38 138.29C416.507 137.355 415.931 136.181 415.725 134.918C415.518 133.654 415.692 132.358 416.222 131.194C416.753 130.029 417.617 129.048 418.705 128.374C419.794 127.701 421.057 127.365 422.337 127.41C423.616 127.455 424.853 127.878 425.891 128.626C426.93 129.374 427.723 130.413 428.171 131.612C428.619 132.811 428.701 134.116 428.407 135.362C428.113 136.607 427.457 137.738 426.52 138.61C425.898 139.196 425.167 139.653 424.367 139.955C423.568 140.256 422.717 140.396 421.863 140.366C421.009 140.336 420.17 140.138 419.394 139.781C418.617 139.425 417.919 138.918 417.34 138.29H417.38Z" fill="#FDEEEE"/>
<path d="M320 292.339L309.66 285.189C308.646 281.466 307.252 277.857 305.5 274.419L308.15 264.019L293.15 247.959L282.59 249.889C279.277 247.905 275.769 246.266 272.12 244.999L265.7 234.189L243.7 233.439L236.56 243.779C232.841 244.792 229.236 246.183 225.8 247.929L215.4 245.279L199.34 260.279L201.27 270.819C199.287 274.139 197.652 277.654 196.39 281.309L185.58 287.729L184.83 309.729L195.18 316.869C196.177 320.613 197.568 324.24 199.33 327.689L196.65 337.999L211.65 354.059L222.14 352.139C225.478 354.127 229.009 355.768 232.68 357.039L239.09 367.829L261.09 368.589L268.22 358.249C271.972 357.236 275.611 355.842 279.08 354.089L289.42 356.729L305.49 341.729L303.56 331.189C305.549 327.87 307.185 324.35 308.44 320.689L319.25 314.269L320 292.339ZM251.55 325.729C246.666 325.563 241.941 323.951 237.973 321.099C234.005 318.247 230.971 314.283 229.256 309.707C227.541 305.131 227.221 300.149 228.337 295.391C229.453 290.634 231.955 286.314 235.526 282.977C239.097 279.641 243.576 277.439 248.399 276.649C253.221 275.859 258.17 276.516 262.619 278.539C267.068 280.561 270.817 283.856 273.393 288.009C275.969 292.162 277.255 296.985 277.09 301.869C276.861 308.42 274.041 314.611 269.251 319.085C264.461 323.558 258.091 325.948 251.54 325.729H251.55Z" fill="#FDEEEE"/>
<path d="M343.55 230H343.48L326.16 229.41C325.81 229.404 325.466 229.309 325.162 229.134C324.858 228.959 324.602 228.71 324.42 228.41L319.75 220.56C317.233 219.639 314.798 218.509 312.47 217.18L305 218.47C304.652 218.534 304.294 218.508 303.958 218.397C303.623 218.285 303.321 218.09 303.08 217.83L291.25 205.17C291.002 204.908 290.826 204.586 290.738 204.236C290.65 203.885 290.655 203.518 290.75 203.17L292.64 195.76C291.469 193.359 290.512 190.859 289.78 188.29L282.25 183.09C281.958 182.889 281.722 182.618 281.563 182.302C281.404 181.985 281.327 181.634 281.34 181.28L281.93 163.96C281.942 163.61 282.039 163.269 282.214 162.965C282.388 162.662 282.634 162.406 282.93 162.22L290.8 157.55C291.708 155.039 292.836 152.613 294.17 150.3L292.79 142.77C292.726 142.42 292.751 142.06 292.863 141.723C292.974 141.385 293.17 141.082 293.43 140.84L306.09 129.02C306.352 128.771 306.674 128.593 307.024 128.504C307.374 128.414 307.741 128.417 308.09 128.51L315.53 130.41C317.925 129.238 320.418 128.278 322.98 127.54L328.18 120.01C328.374 119.711 328.643 119.469 328.962 119.309C329.28 119.149 329.635 119.077 329.99 119.1L347.3 119.7C347.652 119.707 347.997 119.803 348.302 119.977C348.608 120.152 348.865 120.401 349.05 120.7L353.72 128.56C356.219 129.477 358.635 130.608 360.94 131.94L368.5 130.55C368.848 130.485 369.207 130.51 369.543 130.622C369.879 130.734 370.181 130.929 370.42 131.19L382.25 143.85C382.497 144.113 382.672 144.435 382.76 144.785C382.847 145.135 382.844 145.502 382.75 145.85L380.85 153.28C382.022 155.676 382.985 158.169 383.73 160.73L391.25 165.93C391.542 166.13 391.779 166.402 391.938 166.718C392.097 167.034 392.174 167.386 392.16 167.74L391.57 185.05C391.559 185.401 391.461 185.744 391.287 186.049C391.113 186.354 390.867 186.612 390.57 186.8L382.7 191.47C381.787 193.975 380.659 196.398 379.33 198.71L380.71 206.25C380.775 206.598 380.75 206.957 380.638 207.293C380.526 207.628 380.331 207.93 380.07 208.17L367.33 220C367.068 220.248 366.746 220.425 366.396 220.512C366.046 220.6 365.679 220.596 365.33 220.5L357.93 218.61C355.519 219.776 353.013 220.736 350.44 221.48L345.29 229C345.105 229.297 344.849 229.543 344.546 229.718C344.242 229.892 343.9 229.989 343.55 230ZM327.46 225.23L342.46 225.74L347.46 218.55C347.737 218.13 348.162 217.83 348.65 217.71C351.464 216.94 354.195 215.892 356.8 214.58C357.255 214.361 357.771 214.308 358.26 214.43L365.26 216.22L376.26 205.97L375 198.74C374.903 198.235 374.996 197.711 375.26 197.27C376.746 194.794 377.969 192.17 378.91 189.44C379.069 188.945 379.404 188.525 379.85 188.26L387.38 183.8L387.89 168.8L380.69 163.8C380.311 163.541 380.027 163.165 379.88 162.73C379.88 162.68 379.88 162.62 379.88 162.56C379.11 159.796 378.065 157.116 376.76 154.56C376.529 154.102 376.472 153.576 376.6 153.08L378.4 146L368.15 135L360.96 136.32C360.458 136.411 359.94 136.319 359.5 136.06C357.019 134.572 354.392 133.342 351.66 132.39C351.504 132.34 351.353 132.273 351.21 132.19C350.922 132.01 350.682 131.763 350.51 131.47L346 123.92L331 123.4L326 130.61C325.702 131.033 325.262 131.334 324.76 131.46C321.975 132.221 319.275 133.263 316.7 134.57C316.246 134.802 315.723 134.858 315.23 134.73L308.15 132.93L297.15 143.18L298.47 150.35C298.549 150.802 298.482 151.268 298.28 151.68L298.18 151.85C296.693 154.336 295.47 156.97 294.53 159.71C294.365 160.18 294.039 160.576 293.61 160.83L286.08 165.3L285.57 180.3L292.78 185.3C293.191 185.581 293.489 185.999 293.62 186.48C294.37 189.288 295.412 192.01 296.73 194.6C296.802 194.747 296.859 194.902 296.9 195.06C296.976 195.389 296.976 195.731 296.9 196.06L295.1 203.06L305.35 214.06L312.49 212.75C312.989 212.659 313.504 212.751 313.94 213.01C316.44 214.495 319.084 215.725 321.83 216.68C322.326 216.827 322.745 217.16 323 217.61L327.46 225.23ZM336.73 206.26C336.36 206.26 335.99 206.26 335.62 206.26C327.307 206.114 319.389 202.69 313.588 196.734C307.787 190.778 304.573 182.771 304.647 174.457C304.72 166.143 308.074 158.195 313.979 152.342C319.883 146.489 327.861 143.205 336.175 143.205C344.49 143.205 352.467 146.489 358.372 152.342C364.277 158.195 367.631 166.143 367.704 174.457C367.777 182.771 364.564 190.778 358.763 196.734C352.962 202.69 345.043 206.114 336.73 206.26ZM336.73 147.17C329.466 147.295 322.545 150.285 317.474 155.489C312.404 160.692 309.594 167.688 309.656 174.953C309.719 182.219 312.649 189.165 317.809 194.28C322.968 199.396 329.94 202.266 337.205 202.266C344.471 202.266 351.442 199.396 356.602 194.28C361.762 189.165 364.692 182.219 364.754 174.953C364.817 167.688 362.007 160.692 356.936 155.489C351.866 150.285 344.945 147.295 337.68 147.17H336.73Z" fill="#FDEEEE"/>
<path d="M383.44 105.32L376.26 103.4L374.34 96.2199L377.15 93.4199L380.11 99.5499L386.25 102.52L383.44 105.32Z" fill="#FDEEEE"/>
<path d="M383.88 100.52C384.191 100.209 384.437 99.8404 384.605 99.4346C384.773 99.0288 384.86 98.5939 384.86 98.1547C384.86 97.7155 384.773 97.2805 384.605 96.8748C384.437 96.469 384.191 96.1003 383.88 95.7897C383.57 95.4791 383.201 95.2327 382.795 95.0647C382.39 94.8966 381.955 94.8101 381.515 94.8101C381.076 94.8101 380.641 94.8966 380.235 95.0647C379.83 95.2327 379.461 95.4791 379.15 95.7897L382.72 90.4297L387.5 92.8497L388.55 97.8497L383.88 100.52Z" fill="#FDEEEE"/>
<path d="M376.58 94.0002L381.84 88.7402L389 90.6502L390.93 97.8202L385.67 103.08L378.5 101.15L376.58 94.0002ZM386.13 98.3002C386.598 97.8316 386.917 97.2347 387.046 96.5849C387.175 95.9352 387.108 95.2618 386.855 94.6499C386.601 94.0379 386.172 93.5149 385.621 93.147C385.07 92.779 384.423 92.5826 383.76 92.5826C383.098 92.5826 382.45 92.779 381.899 93.147C381.348 93.5149 380.919 94.0379 380.665 94.6499C380.412 95.2618 380.345 95.9352 380.474 96.5849C380.603 97.2347 380.922 97.8316 381.39 98.3002C382.024 98.9217 382.877 99.2682 383.764 99.2644C384.652 99.2607 385.502 98.907 386.13 98.2802V98.3002Z" fill="#FCDEDE"/>
<path d="M90.22 296.71L94.07 295.67L95.1 291.82L93.6 290.32L92.01 293.61L88.71 295.2L90.22 296.71Z" fill="#FDEEEE"/>
<path d="M90.0004 294.131C89.6995 293.787 89.5406 293.342 89.5557 292.885C89.5708 292.429 89.7589 291.995 90.0819 291.672C90.4049 291.349 90.8386 291.161 91.2951 291.146C91.7516 291.131 92.1968 291.29 92.5404 291.591L90.6304 288.721L88.0004 290.001L87.4404 292.701L90.0004 294.131Z" fill="#FDEEEE"/>
<path d="M93.9005 290.621L91.0805 287.801L87.2305 288.801L86.2305 292.651L89.0005 295.501L92.8505 294.501L93.9005 290.621ZM88.7805 292.931C88.5951 292.768 88.445 292.57 88.3395 292.347C88.234 292.124 88.1754 291.882 88.1672 291.636C88.159 291.39 88.2015 291.145 88.292 290.915C88.3826 290.686 88.5192 290.478 88.6934 290.304C88.8677 290.129 89.0758 289.993 89.305 289.902C89.5342 289.812 89.7795 289.769 90.0258 289.778C90.2721 289.786 90.5141 289.844 90.7368 289.95C90.9595 290.055 91.1581 290.205 91.3205 290.391C91.6214 290.734 91.7803 291.18 91.7652 291.636C91.7501 292.093 91.562 292.526 91.239 292.849C90.916 293.172 90.4823 293.36 90.0258 293.376C89.5693 293.391 89.1241 293.232 88.7805 292.931Z" fill="#FCDEDE"/>
<path d="M76.3597 85.6603L79.5597 88.8603C79.9599 89.2536 80.4986 89.4739 81.0597 89.4739C81.6208 89.4739 82.1595 89.2536 82.5597 88.8603C82.9506 88.4588 83.1694 87.9206 83.1694 87.3603C83.1694 86.7999 82.9506 86.2617 82.5597 85.8603L79.3697 82.6702C78.9682 82.2793 78.43 82.0605 77.8697 82.0605C77.3093 82.0605 76.7711 82.2793 76.3697 82.6702C75.978 83.0687 75.7577 83.6045 75.7559 84.1632C75.754 84.7219 75.9707 85.2592 76.3597 85.6603Z" fill="#FCDEDE"/>
<path d="M74.1102 77.7095C74.9452 77.4774 75.8299 77.494 76.6556 77.7576C77.4812 78.0211 78.212 78.5201 78.758 79.1931C79.3041 79.8662 79.6418 80.684 79.7295 81.5463C79.8173 82.4085 79.6514 83.2776 79.2521 84.0469C78.8528 84.8161 78.2376 85.4521 77.482 85.8766C76.7263 86.3011 75.8632 86.4957 74.9985 86.4365C74.1338 86.3773 73.3052 86.0669 72.6145 85.5434C71.9238 85.0199 71.4009 84.306 71.1102 83.4895C70.9256 82.9131 70.8569 82.3059 70.908 81.7028C70.959 81.0997 71.1288 80.5126 71.4077 79.9754C71.6865 79.4382 72.0688 78.9614 72.5326 78.5725C72.9965 78.1837 73.5326 77.8904 74.1102 77.7095Z" fill="#FDEEEE"/>
<path d="M70.6296 82.9548L71.0928 84.2441L80.5981 80.8295L80.1349 79.5402L70.6296 82.9548Z" fill="#FCDEDE"/>
<path d="M250 427.56C357.083 427.56 443.89 422.492 443.89 416.24C443.89 409.988 357.083 404.92 250 404.92C142.918 404.92 56.1104 409.988 56.1104 416.24C56.1104 422.492 142.918 427.56 250 427.56Z" fill="#FCDEDE"/>
<path d="M222.45 304.841C223.84 282.441 221.29 241.711 263.4 247.111C308.53 252.881 295.62 305.661 295.62 305.661L222.45 304.841Z" fill="#8F3535"/>
<path d="M251.51 291.381C261.661 291.381 269.89 283.152 269.89 273.001C269.89 262.85 261.661 254.621 251.51 254.621C241.359 254.621 233.13 262.85 233.13 273.001C233.13 283.152 241.359 291.381 251.51 291.381Z" fill="white"/>
<path d="M253.93 254.651C245.22 253.171 235.93 259.581 235 266.081L269.51 269.261C268.29 261.851 260.83 255.831 253.93 254.651Z" fill="#8F3535"/>
<path d="M265.58 272.54C265.33 277.35 262.71 281.12 259.73 280.96C256.75 280.8 254.53 276.79 254.73 271.96C254.93 267.13 257.6 263.38 260.58 263.54C263.56 263.7 265.82 267.74 265.58 272.54Z" fill="#8F3535"/>
<path d="M251.51 292.381C247.677 292.381 243.93 291.244 240.743 289.115C237.556 286.985 235.072 283.959 233.605 280.418C232.138 276.876 231.754 272.98 232.502 269.22C233.25 265.461 235.096 262.008 237.806 259.297C240.517 256.587 243.97 254.741 247.729 253.993C251.488 253.246 255.385 253.629 258.926 255.096C262.468 256.563 265.494 259.047 267.624 262.234C269.753 265.421 270.89 269.168 270.89 273.001C270.885 278.139 268.841 283.066 265.208 286.699C261.574 290.332 256.648 292.376 251.51 292.381ZM251.51 255.631C248.072 255.631 244.711 256.651 241.853 258.561C238.995 260.471 236.767 263.186 235.452 266.362C234.137 269.539 233.793 273.034 234.465 276.405C235.136 279.777 236.792 282.874 239.224 285.304C241.656 287.734 244.753 289.389 248.125 290.058C251.497 290.728 254.992 290.382 258.168 289.065C261.343 287.748 264.057 285.519 265.966 282.66C267.874 279.8 268.892 276.439 268.89 273.001C268.885 268.394 267.051 263.978 263.793 260.721C260.534 257.464 256.117 255.634 251.51 255.631Z" fill="#EE5858"/>
<path opacity="0.3" d="M290.49 304.281H290.37C290.305 304.267 290.245 304.24 290.191 304.202C290.137 304.164 290.092 304.115 290.057 304.059C290.023 304.003 290 303.941 289.99 303.876C289.98 303.811 289.983 303.744 290 303.681C290 303.551 293.22 289.991 289.91 276.281C289.878 276.148 289.9 276.008 289.971 275.892C290.043 275.776 290.157 275.693 290.29 275.661C290.422 275.629 290.562 275.651 290.678 275.722C290.795 275.794 290.878 275.908 290.91 276.041C294.28 290.041 291.03 303.781 291 303.911C290.97 304.022 290.903 304.119 290.81 304.186C290.717 304.254 290.604 304.287 290.49 304.281Z" fill="white"/>
<path opacity="0.3" d="M287.7 268.76C287.604 268.759 287.51 268.732 287.429 268.68C287.348 268.629 287.283 268.557 287.24 268.47C285.997 265.723 284.404 263.149 282.5 260.81C282.417 260.708 282.378 260.577 282.391 260.446C282.404 260.315 282.469 260.194 282.57 260.11C282.621 260.068 282.68 260.036 282.743 260.016C282.807 259.997 282.874 259.99 282.94 259.997C283.006 260.003 283.07 260.023 283.128 260.054C283.187 260.086 283.238 260.129 283.28 260.18C285.231 262.586 286.868 265.231 288.15 268.05C288.179 268.109 288.195 268.173 288.198 268.239C288.202 268.304 288.192 268.37 288.169 268.431C288.147 268.493 288.113 268.549 288.068 268.597C288.023 268.645 287.97 268.684 287.91 268.71C287.844 268.741 287.773 268.758 287.7 268.76Z" fill="white"/>
<path d="M128.73 409.921H128.36C127.034 409.883 125.777 409.321 124.865 408.357C123.954 407.393 123.463 406.107 123.5 404.781C123.537 403.454 124.1 402.197 125.063 401.286C126.027 400.375 127.314 399.883 128.64 399.921H128.73C131.62 399.921 138.57 396.411 153.11 373.491C153.496 372.882 154.009 372.364 154.614 371.972C155.219 371.58 155.901 371.323 156.615 371.22C157.328 371.116 158.055 371.168 158.746 371.372C159.438 371.576 160.077 371.927 160.62 372.401C172.039 382.217 184.492 390.76 197.76 397.881C198.374 398.16 198.925 398.56 199.38 399.058C199.835 399.556 200.185 400.141 200.408 400.777C200.632 401.414 200.724 402.089 200.679 402.762C200.634 403.435 200.454 404.092 200.149 404.694C199.844 405.295 199.42 405.829 198.903 406.263C198.387 406.696 197.787 407.021 197.142 407.216C196.496 407.412 195.818 407.476 195.147 407.402C194.477 407.329 193.828 407.121 193.24 406.791C180.909 400.238 169.252 392.487 158.44 383.651C146.25 402.001 137.21 409.921 128.73 409.921Z" fill="#8F3535"/>
<path d="M159.671 371.5H159.241C158.455 371.386 157.746 370.966 157.27 370.33C156.794 369.695 156.589 368.896 156.701 368.11C157.411 363.11 156.531 344.48 150.221 329.98C149.941 329.339 149.893 328.621 150.087 327.949C150.28 327.277 150.703 326.694 151.281 326.3C164.981 316.97 194.161 315.85 195.401 315.81C195.794 315.797 196.187 315.862 196.556 316C196.925 316.139 197.263 316.349 197.551 316.618C197.839 316.888 198.071 317.211 198.234 317.57C198.397 317.929 198.487 318.316 198.501 318.71C198.514 319.104 198.449 319.497 198.31 319.866C198.172 320.235 197.962 320.573 197.693 320.861C197.423 321.149 197.1 321.381 196.741 321.544C196.382 321.707 195.994 321.797 195.601 321.81C195.331 321.81 169.821 322.81 156.721 330.01C162.301 344.45 163.571 362.44 162.641 368.95C162.533 369.66 162.174 370.308 161.629 370.776C161.084 371.244 160.389 371.501 159.671 371.5Z" fill="#8F3535"/>
<path d="M164.71 367.62C162.71 362.91 153.71 363.44 148.44 367.48C145.62 369.63 141.8 376.12 141.44 378.48C141.32 379.041 141.338 379.623 141.492 380.175C141.647 380.727 141.933 381.234 142.326 381.651C142.72 382.068 143.209 382.383 143.751 382.57C144.294 382.756 144.873 382.808 145.44 382.72C148.89 382.42 153.62 377.41 153.62 377.41C150.47 380.5 154.54 382.68 160.62 378.21C163.94 375.72 166.94 372.89 164.71 367.62Z" fill="#EE5858"/>
<path d="M336.711 306.161C336.664 306.171 336.617 306.171 336.571 306.161C336.507 306.143 336.447 306.114 336.395 306.073C336.343 306.032 336.3 305.981 336.268 305.923C336.237 305.865 336.217 305.801 336.21 305.736C336.204 305.67 336.211 305.604 336.231 305.541C337.561 300.901 339.011 298.071 340.921 296.541C340.621 295.465 340.677 294.322 341.081 293.281C341.547 292.065 342.369 291.02 343.441 290.281C343.149 289.966 342.942 289.583 342.839 289.166C342.736 288.75 342.74 288.315 342.851 287.901C343.213 286.648 343.962 285.542 344.991 284.741C344.62 284.326 344.416 283.787 344.421 283.231C344.421 280.231 349.931 275.711 356.181 274.851C356.313 274.832 356.448 274.867 356.555 274.948C356.661 275.028 356.732 275.148 356.751 275.281C356.769 275.413 356.734 275.548 356.654 275.655C356.573 275.762 356.453 275.832 356.321 275.851C350.381 276.661 345.401 280.961 345.421 283.231C345.418 283.569 345.547 283.895 345.781 284.141C347.126 283.228 348.639 282.593 350.232 282.272C351.826 281.951 353.467 281.951 355.061 282.271C358.131 282.861 359.381 283.511 359.241 284.441C358.961 286.191 352.431 286.561 348.051 286.041C347.266 285.969 346.502 285.749 345.801 285.391C344.858 286.062 344.156 287.019 343.801 288.121C343.715 288.412 343.715 288.722 343.802 289.013C343.889 289.304 344.059 289.564 344.291 289.761C346.151 288.761 348.761 288.401 352.211 289.161C356.741 290.161 356.911 290.711 357.021 291.041C357.056 291.157 357.059 291.281 357.029 291.399C356.999 291.517 356.937 291.625 356.851 291.711C355.901 292.711 348.951 292.241 345.461 291.381C345.039 291.284 344.632 291.133 344.251 290.931C343.218 291.558 342.422 292.512 341.991 293.641C341.702 294.371 341.622 295.167 341.761 295.941C341.939 295.834 342.122 295.737 342.311 295.651C344.381 294.651 346.881 294.831 349.971 296.151C351.971 297.021 352.971 297.801 353.071 298.591C353.075 298.793 353.024 298.993 352.924 299.169C352.823 299.346 352.677 299.491 352.501 299.591C350.971 300.591 345.631 300.451 342.851 298.971C342.211 298.623 341.679 298.108 341.311 297.481C339.681 298.981 338.361 301.651 337.161 305.841C337.124 305.931 337.062 306.01 336.983 306.067C336.903 306.123 336.808 306.156 336.711 306.161ZM342.131 296.831C342.409 297.348 342.833 297.772 343.351 298.051C345.611 299.251 350.051 299.521 351.711 298.851C352.051 298.711 352.101 298.601 352.101 298.601C352.101 298.601 352.051 298.041 349.601 296.991C346.801 295.791 344.601 295.621 342.771 296.471C342.55 296.577 342.336 296.697 342.131 296.831ZM345.471 290.261L345.721 290.331C348.977 291.081 352.328 291.334 355.661 291.081C354.479 290.642 353.261 290.308 352.021 290.081C349.867 289.497 347.589 289.56 345.471 290.261ZM346.731 284.641C347.192 284.806 347.672 284.914 348.161 284.961C353.161 285.551 357.551 284.861 358.161 284.231C357.991 284.081 357.321 283.651 354.841 283.181C352.05 282.624 349.152 283.146 346.731 284.641Z" fill="#8F3535"/>
<path d="M206.53 408.251C207.19 408.041 206.97 407.401 206.23 407.401H192.69C166.91 404.671 148.9 408.331 160.25 409.191C171.6 410.051 159.45 409.871 151.16 413.011C142.87 416.151 212.81 416.941 219.16 413.011C225 409.391 197.39 411.181 206.53 408.251Z" fill="#8F3535"/>
<path d="M303.47 412.241L185.67 408.331L180.78 294.111L319.89 297.221L303.47 412.241Z" fill="#EE5858"/>
<path d="M222.45 410.051C222.324 410.051 222.202 410.004 222.11 409.919C222.017 409.833 221.96 409.716 221.95 409.591L212.51 294.871C212.501 294.739 212.545 294.608 212.631 294.508C212.716 294.407 212.838 294.343 212.97 294.331C213.101 294.325 213.23 294.369 213.33 294.454C213.431 294.54 213.495 294.66 213.51 294.791L223 409.511C223.005 409.576 222.998 409.642 222.978 409.705C222.957 409.768 222.925 409.826 222.882 409.876C222.839 409.927 222.787 409.968 222.728 409.998C222.67 410.028 222.606 410.046 222.54 410.051H222.45Z" fill="#8F3535"/>
<path d="M303.47 412.241L335.13 407.421L345.1 301.211L319.89 297.221L303.47 412.241Z" fill="#EE5858"/>
<path opacity="0.2" d="M303.47 412.241L335.13 407.421L345.1 301.211L319.89 297.221L303.47 412.241Z" fill="#191C1F"/>
<path d="M195.73 386.321L192.83 318.451C192.759 316.775 193.032 315.101 193.633 313.534C194.234 311.967 195.15 310.54 196.325 309.342C197.499 308.143 198.907 307.198 200.461 306.565C202.015 305.932 203.683 305.624 205.36 305.661L293.421 307.661C295.154 307.7 296.86 308.107 298.426 308.853C299.991 309.6 301.381 310.67 302.502 311.993C303.624 313.316 304.452 314.862 304.933 316.528C305.414 318.195 305.535 319.944 305.29 321.661L295.53 390.001C295.108 392.994 293.596 395.726 291.284 397.673C288.971 399.62 286.022 400.645 283 400.551L207.61 398.051C204.516 397.956 201.571 396.694 199.368 394.518C197.165 392.343 195.865 389.415 195.73 386.321Z" fill="#8F3535"/>
<path d="M205.25 326.49L218.87 326.92L218.76 330.43L210.23 330.16L210.15 332.78L218.06 333.03L217.95 336.39L210.04 336.13L209.94 339.38L218.71 339.66L218.59 343.38L204.72 342.94L205.25 326.49Z" fill="white"/>
<path d="M221.4 343.471L221.92 327.021L230.4 327.292C231.616 327.285 232.826 327.461 233.99 327.811C234.816 328.088 235.521 328.638 235.99 329.371C236.338 329.905 236.572 330.505 236.677 331.134C236.783 331.762 236.758 332.405 236.604 333.023C236.45 333.642 236.171 334.222 235.783 334.727C235.395 335.233 234.908 335.653 234.35 335.961C233.782 336.254 233.171 336.457 232.54 336.561C233.005 336.711 233.447 336.927 233.85 337.202C234.142 337.472 234.404 337.774 234.63 338.102C234.888 338.413 235.116 338.748 235.31 339.102L237.62 343.952L231.88 343.762L229.32 338.651C229.117 338.164 228.818 337.721 228.44 337.352C228.081 337.092 227.653 336.946 227.21 336.931H226.76L226.55 343.602L221.4 343.471ZM226.82 333.852L228.96 333.922C229.415 333.894 229.866 333.83 230.31 333.732C230.645 333.681 230.949 333.506 231.16 333.241C231.377 332.975 231.5 332.645 231.51 332.301C231.529 332.073 231.497 331.843 231.416 331.628C231.334 331.414 231.206 331.22 231.04 331.061C230.482 330.701 229.823 330.529 229.16 330.572L226.92 330.501L226.82 333.852Z" fill="white"/>
<path d="M239.28 344.001L239.8 327.551L248.27 327.821C249.486 327.814 250.696 327.989 251.86 328.341C252.687 328.614 253.394 329.165 253.86 329.901C254.368 330.702 254.606 331.645 254.54 332.591C254.543 333.389 254.33 334.173 253.923 334.859C253.517 335.546 252.932 336.11 252.23 336.491C251.661 336.782 251.051 336.984 250.42 337.091C250.882 337.24 251.32 337.455 251.72 337.731C252.019 337.994 252.285 338.293 252.51 338.621C252.766 338.933 252.993 339.268 253.19 339.621L255.5 344.461L249.76 344.281L247.2 339.171C246.996 338.684 246.697 338.242 246.32 337.871C245.963 337.601 245.528 337.454 245.08 337.451H244.64L244.42 344.131L239.28 344.001ZM244.69 334.381L246.84 334.441C247.295 334.424 247.747 334.363 248.19 334.261C248.523 334.211 248.824 334.036 249.03 333.771C249.254 333.509 249.378 333.176 249.38 332.831C249.402 332.603 249.372 332.373 249.292 332.158C249.213 331.943 249.085 331.749 248.92 331.591C248.363 331.221 247.697 331.049 247.03 331.101L244.8 331.031L244.69 334.381Z" fill="white"/>
<path d="M256.321 336.362C256.243 335.214 256.421 334.063 256.842 332.992C257.262 331.921 257.915 330.957 258.752 330.168C259.59 329.379 260.592 328.786 261.686 328.43C262.78 328.075 263.939 327.966 265.081 328.112C266.232 328.074 267.38 328.267 268.455 328.681C269.531 329.095 270.512 329.721 271.341 330.522C272.08 331.373 272.639 332.367 272.983 333.441C273.327 334.516 273.448 335.649 273.341 336.772C273.349 338.405 272.965 340.017 272.221 341.472C271.546 342.662 270.538 343.628 269.321 344.252C267.886 344.938 266.297 345.241 264.711 345.132C263.128 345.145 261.563 344.803 260.131 344.132C258.911 343.47 257.915 342.46 257.271 341.232C256.514 339.726 256.186 338.041 256.321 336.362ZM261.401 336.542C261.251 337.802 261.536 339.076 262.211 340.152C262.526 340.504 262.909 340.789 263.337 340.989C263.764 341.19 264.228 341.303 264.7 341.32C265.172 341.338 265.643 341.261 266.085 341.092C266.527 340.924 266.93 340.669 267.271 340.342C268.012 339.219 268.363 337.884 268.271 336.542C268.405 335.336 268.111 334.122 267.441 333.112C267.137 332.762 266.763 332.482 266.342 332.291C265.92 332.099 265.463 332.001 265.001 332.002C264.534 331.968 264.066 332.041 263.631 332.214C263.196 332.387 262.806 332.656 262.491 333.002C261.733 334.022 261.349 335.272 261.401 336.542Z" fill="white"/>
<path d="M275.91 345.21L276.43 328.75L284.9 329.02C286.116 329.018 287.325 329.193 288.49 329.54C289.313 329.821 290.018 330.37 290.49 331.1C290.995 331.902 291.233 332.844 291.17 333.79C291.175 334.59 290.963 335.376 290.556 336.064C290.149 336.753 289.563 337.318 288.86 337.7C288.288 337.983 287.679 338.182 287.05 338.29C287.513 338.442 287.951 338.661 288.35 338.94C288.649 339.203 288.914 339.502 289.14 339.83C289.398 340.141 289.625 340.476 289.82 340.83L292.13 345.68L286.39 345.5L283.83 340.38C283.627 339.895 283.327 339.456 282.95 339.09C282.591 338.822 282.158 338.671 281.71 338.66H281.27L281.05 345.34L275.91 345.21ZM281.32 335.58L283.47 335.65C283.925 335.633 284.377 335.572 284.82 335.47C285.151 335.417 285.451 335.242 285.66 334.98C285.896 334.701 286.021 334.345 286.01 333.98C286.032 333.754 286.002 333.525 285.922 333.312C285.842 333.099 285.715 332.907 285.55 332.75C284.992 332.38 284.327 332.208 283.66 332.26L281.43 332.19L281.32 335.58Z" fill="white"/>
<path d="M284 373.161C283.812 373.165 283.626 373.128 283.453 373.054C283.281 372.98 283.126 372.87 283 372.731L274.44 363.361L265.2 371.801C264.944 372.036 264.605 372.159 264.258 372.144C263.911 372.129 263.585 371.977 263.35 371.721L254.79 362.351L245.55 370.791C245.294 371.026 244.955 371.149 244.608 371.134C244.261 371.119 243.935 370.967 243.7 370.711L235.13 361.341L225.9 369.781C225.765 369.903 225.607 369.996 225.435 370.055C225.263 370.113 225.081 370.136 224.9 370.121C224.552 370.101 224.226 369.946 223.99 369.691L215.43 360.331L206.2 368.761C205.942 368.996 205.602 369.12 205.253 369.105C204.905 369.09 204.576 368.938 204.34 368.681C204.223 368.554 204.133 368.406 204.074 368.244C204.015 368.082 203.989 367.91 203.998 367.737C204.006 367.565 204.049 367.396 204.123 367.241C204.197 367.085 204.301 366.946 204.43 366.831L214.63 357.501C214.888 357.266 215.228 357.142 215.576 357.157C215.925 357.172 216.253 357.325 216.49 357.581L225.05 366.951L234.28 358.511C234.542 358.281 234.881 358.16 235.23 358.171C235.578 358.19 235.905 358.344 236.14 358.601L244.7 367.971L253.94 359.531C254.066 359.414 254.214 359.323 254.376 359.263C254.538 359.204 254.709 359.177 254.882 359.184C255.054 359.192 255.223 359.233 255.379 359.306C255.535 359.38 255.674 359.483 255.79 359.611L264.35 368.981L273.59 360.541C273.846 360.307 274.185 360.183 274.531 360.198C274.878 360.213 275.205 360.365 275.44 360.621L285 371.001C285.171 371.192 285.282 371.429 285.321 371.682C285.36 371.935 285.324 372.194 285.218 372.428C285.112 372.661 284.94 372.858 284.724 372.996C284.508 373.133 284.256 373.204 284 373.201V373.161Z" fill="white"/>
<path d="M125.75 414.672L119.49 411.682L113.91 384.512L116.94 381.182L125.75 414.672Z" fill="#EE5858"/>
<path d="M125.75 414.672L134.06 409.812L126.94 387.432L116.94 381.182L125.75 414.672Z" fill="#EE5858"/>
<path opacity="0.2" d="M125.75 414.672L134.06 409.812L126.94 387.432L116.94 381.182L125.75 414.672Z" fill="#191C1F"/>
<path d="M262 419.611H261.31C259.984 419.575 258.727 419.014 257.814 418.051C256.902 417.088 256.409 415.802 256.445 414.476C256.481 413.15 257.042 411.892 258.005 410.98C258.968 410.068 260.254 409.575 261.58 409.611C269.28 409.861 285.58 405.131 294.9 396.091C295.463 395.539 296.148 395.128 296.9 394.891C312.69 390.151 318.56 399.721 318.8 400.131L310.2 405.221C310.23 405.285 310.267 405.345 310.31 405.401C310.22 405.271 307.98 402.401 300.86 404.161C289.17 414.821 271.23 419.611 262 419.611Z" fill="#8F3535"/>
<path d="M261.39 426.251L243.18 425.111L241.75 391.531L266.22 392.441L261.39 426.251Z" fill="#EE5858"/>
<path d="M261.391 426.251L265.651 422.011L268.291 401.081L266.221 392.441L261.391 426.251Z" fill="#EE5858"/>
<path opacity="0.2" d="M261.391 426.251L265.651 422.011L268.291 401.081L266.221 392.441L261.391 426.251Z" fill="#191C1F"/>
<path d="M366.91 413.541C366.257 413.54 365.621 413.326 365.1 412.931C354.7 405.031 340.65 391.001 335.26 377.471C335.18 377.275 335.122 377.07 335.09 376.861C332.46 361.221 329.95 328.311 329.84 326.921C329.811 326.527 329.859 326.131 329.983 325.756C330.106 325.38 330.302 325.033 330.56 324.734C331.08 324.129 331.82 323.756 332.615 323.696C333.411 323.636 334.198 323.895 334.803 324.416C335.407 324.936 335.781 325.675 335.84 326.471C335.84 326.801 338.41 360.031 340.97 375.541C346.35 388.701 360.97 402.211 368.75 408.151C369.251 408.531 369.62 409.059 369.805 409.66C369.99 410.261 369.981 410.905 369.78 411.501C369.578 412.096 369.195 412.614 368.684 412.98C368.173 413.346 367.559 413.542 366.93 413.541H366.91Z" fill="#8F3535"/>
<path d="M380.78 415.05C378.46 415.05 375.83 414 372.96 411.93C372.316 411.464 371.883 410.76 371.757 409.974C371.632 409.188 371.823 408.385 372.29 407.74C372.757 407.096 373.461 406.663 374.246 406.538C375.032 406.412 375.836 406.604 376.48 407.07C378.96 408.86 380.31 409.07 380.78 409.07C381.576 409.07 382.339 409.386 382.901 409.949C383.464 410.512 383.78 411.275 383.78 412.07C383.78 412.866 383.464 413.629 382.901 414.192C382.339 414.754 381.576 415.07 380.78 415.07V415.05Z" fill="#8F3535"/>
<path d="M373.801 411.841C377.011 402.311 390.171 404.191 394.711 405.611C398.589 406.736 402.308 408.349 405.781 410.411C408.231 412.011 408.271 414.701 405.001 416.231C401.001 418.111 390.841 416.441 390.841 416.441C396.081 418.731 390.841 422.441 381.631 418.801C378.641 417.621 372.671 415.341 373.801 411.841Z" fill="#EE5858"/>
<path d="M341.86 331C340.67 339.1 333.96 345.07 328.5 344.27C323.04 343.47 322.82 336.27 324.01 328.13C325.2 319.99 327.36 314.13 332.82 314.93C338.28 315.73 343.05 322.93 341.86 331Z" fill="#8F3535"/>
<path d="M209.881 298.701C210.333 298.701 210.701 298.333 210.701 297.881C210.701 297.428 210.333 297.061 209.881 297.061C209.428 297.061 209.061 297.428 209.061 297.881C209.061 298.333 209.428 298.701 209.881 298.701Z" fill="#8F3535"/>
<path d="M218.21 303.781C218.21 303.943 218.162 304.102 218.072 304.237C217.982 304.371 217.854 304.476 217.704 304.539C217.554 304.601 217.389 304.617 217.23 304.585C217.071 304.554 216.925 304.475 216.81 304.361C216.696 304.246 216.618 304.1 216.586 303.941C216.554 303.782 216.571 303.617 216.633 303.467C216.695 303.317 216.8 303.189 216.935 303.099C217.07 303.009 217.228 302.961 217.39 302.961C217.608 302.961 217.816 303.047 217.97 303.201C218.124 303.355 218.21 303.563 218.21 303.781Z" fill="#8F3535"/>
<path d="M219.13 400.681C219.13 400.844 219.082 401.002 218.992 401.137C218.902 401.272 218.774 401.377 218.624 401.439C218.474 401.501 218.309 401.517 218.15 401.486C217.991 401.454 217.845 401.376 217.73 401.261C217.616 401.146 217.538 401 217.506 400.841C217.474 400.682 217.491 400.517 217.553 400.368C217.615 400.218 217.72 400.09 217.855 400C217.99 399.909 218.148 399.861 218.31 399.861C218.528 399.861 218.736 399.948 218.89 400.102C219.044 400.255 219.13 400.464 219.13 400.681Z" fill="#8F3535"/>
<path d="M226.64 406.591C226.64 406.754 226.592 406.912 226.502 407.047C226.412 407.182 226.284 407.287 226.134 407.349C225.984 407.411 225.819 407.427 225.66 407.396C225.501 407.364 225.355 407.286 225.24 407.171C225.125 407.057 225.047 406.911 225.016 406.751C224.984 406.592 225 406.428 225.062 406.278C225.124 406.128 225.23 406 225.364 405.91C225.499 405.82 225.658 405.771 225.82 405.771C226.037 405.771 226.246 405.858 226.4 406.012C226.554 406.165 226.64 406.374 226.64 406.591Z" fill="#8F3535"/>
<path d="M82.51 416.42C81.0704 416.352 79.6643 415.963 78.3955 415.279C77.1268 414.595 76.0279 413.635 75.18 412.47C75.1385 412.416 75.1082 412.355 75.0912 412.289C75.0742 412.223 75.0707 412.155 75.081 412.088C75.0912 412.021 75.115 411.956 75.1509 411.899C75.1869 411.841 75.2341 411.792 75.2898 411.753C75.3455 411.714 75.4085 411.687 75.475 411.674C75.5415 411.66 75.61 411.66 75.6765 411.674C75.7429 411.687 75.8059 411.715 75.8615 411.753C75.9171 411.792 75.9642 411.842 76 411.9C77.87 414.6 82 416.03 83.8 415.18C83.9803 415.103 84.141 414.987 84.27 414.84C83.3605 414.439 82.5636 413.821 81.9497 413.04C81.3357 412.259 80.9237 411.338 80.75 410.36C80.52 409.09 80.34 407.36 81.38 407.14C82.82 406.82 84.7 410.29 85.38 412.92C85.5032 413.355 85.5472 413.809 85.51 414.26C86.0868 414.432 86.6935 414.479 87.29 414.4C87.5588 414.379 87.8204 414.303 88.058 414.175C88.2956 414.048 88.504 413.872 88.67 413.66C88.0119 413.163 87.466 412.533 87.0679 411.811C86.6699 411.089 86.4286 410.291 86.36 409.47C85.98 406.73 86.27 406.26 86.57 406.02C86.6672 405.945 86.7832 405.899 86.9051 405.887C87.027 405.874 87.1498 405.896 87.26 405.95C88.33 406.4 89.62 410.28 89.87 412.48C89.9 412.709 89.9 412.941 89.87 413.17C90.3011 413.335 90.7582 413.423 91.22 413.43C92.068 413.463 92.9067 413.243 93.63 412.8C93.49 412.71 93.36 412.61 93.23 412.51C92.23 411.62 91.77 410.2 91.95 408.18C92.09 406.61 92.44 405.75 93.07 405.48C93.2733 405.398 93.4958 405.377 93.7107 405.42C93.9255 405.463 94.1233 405.567 94.28 405.72C94.9551 406.465 95.4595 407.349 95.7583 408.309C96.0571 409.269 96.143 410.283 96.01 411.28C95.9232 411.695 95.7494 412.087 95.5 412.43C97.34 412.75 99.92 412.23 102.15 411.68C102.216 411.664 102.284 411.661 102.351 411.672C102.417 411.682 102.481 411.706 102.539 411.741C102.596 411.777 102.646 411.823 102.686 411.878C102.726 411.932 102.754 411.994 102.77 412.06C102.786 412.125 102.788 412.193 102.778 412.26C102.767 412.327 102.744 412.391 102.708 412.448C102.673 412.506 102.627 412.556 102.572 412.596C102.518 412.635 102.456 412.664 102.39 412.68C99.68 413.35 96.76 413.9 94.7 413.3C93.6945 414.064 92.4631 414.472 91.2 414.46C90.6395 414.452 90.0846 414.347 89.56 414.15C89.3274 414.509 89.0153 414.811 88.6477 415.031C88.2802 415.251 87.867 415.384 87.44 415.42C86.6883 415.516 85.9247 415.452 85.2 415.23C84.9667 415.623 84.6174 415.934 84.2 416.12C83.6637 416.336 83.0881 416.438 82.51 416.42ZM81.65 408.14C81.5117 408.82 81.5391 409.523 81.73 410.19C81.8711 410.989 82.2029 411.743 82.6973 412.387C83.1917 413.031 83.8341 413.547 84.57 413.89C84.556 413.653 84.5158 413.418 84.45 413.19C83.67 410.33 82.17 408.36 81.65 408.14ZM87.22 407.27C87.2265 407.96 87.2834 408.648 87.39 409.33C87.5003 410.549 88.0388 411.69 88.91 412.55C88.6639 410.703 88.0917 408.916 87.22 407.27ZM93.51 406.4C93.51 406.4 93.13 406.59 92.99 408.26C92.85 409.93 93.14 411.08 93.92 411.75C94.1046 411.899 94.306 412.027 94.52 412.13C94.783 411.848 94.969 411.504 95.06 411.13C95.2381 409.556 94.8129 407.973 93.87 406.7C93.66 406.44 93.54 406.4 93.51 406.4Z" fill="#8F3535"/>
<path d="M228.87 423.98L231.58 419.28L228.87 414.58H225.97L227.61 419.28L225.97 423.98H228.87Z" fill="#8F3535"/>
<path d="M226.16 421.73C225.826 421.751 225.491 421.704 225.176 421.591C224.86 421.478 224.572 421.301 224.327 421.072C224.083 420.843 223.888 420.566 223.755 420.259C223.622 419.951 223.554 419.62 223.554 419.285C223.554 418.95 223.622 418.619 223.755 418.311C223.888 418.004 224.083 417.727 224.327 417.498C224.572 417.269 224.86 417.092 225.176 416.979C225.491 416.866 225.826 416.819 226.16 416.84L221.56 415.92L220.33 419.64L222.39 422.78L226.16 421.73Z" fill="#8F3535"/>
<path d="M226.56 414.58H221.13L218.42 419.28L221.13 423.98H226.56L229.27 419.28L226.56 414.58ZM223.85 421.73C223.365 421.732 222.89 421.59 222.486 421.322C222.082 421.054 221.766 420.672 221.579 420.225C221.392 419.777 221.342 419.284 221.436 418.808C221.529 418.332 221.762 417.895 222.104 417.551C222.446 417.208 222.883 416.973 223.358 416.878C223.834 416.783 224.327 416.831 224.775 417.016C225.223 417.201 225.607 417.515 225.876 417.918C226.146 418.321 226.29 418.795 226.29 419.28C226.29 419.928 226.033 420.55 225.576 421.009C225.119 421.468 224.498 421.727 223.85 421.73Z" fill="#EE5858"/>
<path d="M417.89 414.259L415.88 410.769L417.89 407.279H420.04L418.83 410.769L420.04 414.259H417.89Z" fill="#EE5858"/>
<path d="M419.9 412.589C420.15 412.608 420.401 412.575 420.637 412.492C420.873 412.409 421.09 412.278 421.274 412.108C421.457 411.938 421.603 411.731 421.703 411.502C421.804 411.272 421.855 411.025 421.855 410.774C421.855 410.524 421.804 410.276 421.703 410.047C421.603 409.817 421.457 409.611 421.274 409.441C421.09 409.27 420.873 409.14 420.637 409.057C420.401 408.974 420.15 408.941 419.9 408.959L423.32 408.279L424.23 411.039L422.71 413.369L419.9 412.589Z" fill="#EE5858"/>
<path d="M419.61 407.279H423.61L425.61 410.769L423.61 414.259H419.61L417.61 410.769L419.61 407.279ZM421.61 412.589C421.971 412.591 422.324 412.486 422.624 412.287C422.925 412.089 423.16 411.805 423.299 411.473C423.438 411.14 423.476 410.774 423.407 410.42C423.338 410.067 423.165 409.741 422.911 409.486C422.657 409.23 422.332 409.056 421.979 408.985C421.626 408.914 421.259 408.949 420.926 409.087C420.593 409.224 420.308 409.458 420.108 409.757C419.907 410.057 419.8 410.409 419.8 410.769C419.799 411.009 419.845 411.246 419.936 411.467C420.027 411.689 420.161 411.89 420.33 412.059C420.5 412.228 420.701 412.362 420.922 412.453C421.144 412.544 421.381 412.591 421.62 412.589H421.61Z" fill="#8F3535"/>
<path d="M343 418.899H347.52C348.086 418.896 348.628 418.67 349.027 418.269C349.426 417.868 349.65 417.325 349.65 416.759C349.65 416.193 349.426 415.65 349.027 415.249C348.628 414.848 348.086 414.622 347.52 414.619H343C342.433 414.619 341.888 414.845 341.487 415.246C341.086 415.647 340.86 416.192 340.86 416.759C340.86 417.327 341.086 417.871 341.487 418.272C341.888 418.674 342.433 418.899 343 418.899Z" fill="#8F3535"/>
<path d="M335.73 414.86C336.149 414.097 336.783 413.474 337.552 413.067C338.322 412.659 339.194 412.486 340.06 412.569C340.927 412.651 341.751 412.986 342.43 413.531C343.109 414.076 343.613 414.807 343.881 415.636C344.149 416.464 344.169 417.353 343.938 418.192C343.707 419.031 343.236 419.785 342.582 420.359C341.928 420.934 341.12 421.305 340.257 421.426C339.395 421.547 338.517 421.412 337.73 421.04C336.648 420.482 335.831 419.52 335.456 418.362C335.082 417.204 335.18 415.946 335.73 414.86Z" fill="#EE5858"/>
<path d="M336.949 421.039L338.188 421.623L342.495 412.487L341.256 411.903L336.949 421.039Z" fill="#8F3535"/>
</svg>
