<svg width="280" height="76" viewBox="0 0 280 76" fill="none" xmlns="http://www.w3.org/2000/svg">
<rect width="280" height="76" fill="white"/>
<path d="M51 45.7031V30.2969C50.9988 30.0743 50.939 29.8561 50.8265 29.664C50.714 29.472 50.5529 29.313 50.3594 29.2031L36.6094 21.4688C36.4241 21.3618 36.2139 21.3055 36 21.3055C35.7861 21.3055 35.5759 21.3618 35.3906 21.4688L21.6406 29.2031C21.4471 29.313 21.286 29.472 21.1735 29.664C21.061 29.8561 21.0012 30.0743 21 30.2969V45.7031C21.0012 45.9257 21.061 46.144 21.1735 46.336C21.286 46.528 21.4471 46.687 21.6406 46.7969L35.3906 54.5313C35.5759 54.6382 35.7861 54.6945 36 54.6945C36.2139 54.6945 36.4241 54.6382 36.6094 54.5313L50.3594 46.7969C50.5529 46.687 50.714 46.528 50.8265 46.336C50.939 46.144 50.9988 45.9257 51 45.7031V45.7031Z" stroke="#191C1F" stroke-width="1.5" stroke-linecap="round" stroke-linejoin="round"/>
<path d="M43.6562 41.8281V33.7031L28.5 25.3438" stroke="#191C1F" stroke-width="1.5" stroke-linecap="round" stroke-linejoin="round"/>
<path d="M50.8281 29.6562L36.1406 38L21.1719 29.6562" stroke="#191C1F" stroke-width="1.5" stroke-linecap="round" stroke-linejoin="round"/>
<path d="M36.1406 38L36 54.6875" stroke="#191C1F" stroke-width="1.5" stroke-linecap="round" stroke-linejoin="round"/>
<path d="M73.281 20.878H79.749L79.742 22.166H74.807V25.295H79.196V26.569H74.807V31H73.281V20.878ZM79.9898 31L83.6438 20.878H85.2958L88.9428 31H87.4308L86.4788 28.347H82.4818L81.5088 31H79.9898ZM82.8388 26.989H86.0938L84.4768 22.348L82.8388 26.989ZM94.0836 31.14C93.6029 31.14 93.1339 31.0793 92.6766 30.958C92.2192 30.8367 91.8039 30.657 91.4306 30.419C91.0572 30.1763 90.7469 29.8753 90.4996 29.516C90.2569 29.1567 90.1052 28.7367 90.0446 28.256H91.6056C91.6849 28.62 91.8412 28.9257 92.0746 29.173C92.3126 29.4203 92.6042 29.607 92.9496 29.733C93.2949 29.859 93.6706 29.922 94.0766 29.922C94.5246 29.922 94.9259 29.8613 95.2806 29.74C95.6399 29.614 95.9246 29.4367 96.1346 29.208C96.3446 28.9747 96.4496 28.6947 96.4496 28.368C96.4496 28.074 96.3772 27.8243 96.2326 27.619C96.0926 27.4137 95.8919 27.2433 95.6306 27.108C95.3739 26.968 95.0636 26.8583 94.6996 26.779L92.7816 26.345C92.0302 26.1863 91.4376 25.8923 91.0036 25.463C90.5742 25.029 90.3572 24.455 90.3526 23.741C90.3479 23.1437 90.5042 22.621 90.8216 22.173C91.1436 21.725 91.5822 21.3773 92.1376 21.13C92.6929 20.878 93.3252 20.752 94.0346 20.752C94.8606 20.752 95.5536 20.8897 96.1136 21.165C96.6782 21.4403 97.1052 21.8043 97.3946 22.257C97.6839 22.705 97.8309 23.1927 97.8356 23.72H96.3026C96.2652 23.2907 96.1392 22.95 95.9246 22.698C95.7099 22.446 95.4392 22.2663 95.1126 22.159C94.7906 22.047 94.4359 21.991 94.0486 21.991C93.7686 21.991 93.5002 22.026 93.2436 22.096C92.9869 22.166 92.7606 22.2687 92.5646 22.404C92.3686 22.5393 92.2122 22.7073 92.0956 22.908C91.9836 23.104 91.9276 23.3303 91.9276 23.587C91.9276 23.9323 92.0442 24.2123 92.2776 24.427C92.5109 24.6417 92.9402 24.826 93.5656 24.98L95.4416 25.407C95.9782 25.519 96.4122 25.6847 96.7436 25.904C97.0749 26.1187 97.3292 26.3637 97.5066 26.639C97.6839 26.9143 97.8052 27.2013 97.8706 27.5C97.9359 27.794 97.9686 28.0763 97.9686 28.347C97.9686 28.8697 97.8122 29.3433 97.4996 29.768C97.1869 30.188 96.7412 30.5217 96.1626 30.769C95.5839 31.0163 94.8909 31.14 94.0836 31.14ZM98.8998 22.243V20.878H106.677V22.243H103.618V31H102.106V22.243H98.8998ZM108.267 31V20.878H114.805L114.798 22.18H109.772V25.253H114.259V26.534H109.765V29.677L114.924 29.684V31H108.267ZM117.154 20.878C117.191 20.878 117.301 20.8803 117.483 20.885C117.67 20.885 117.894 20.885 118.155 20.885C118.416 20.8803 118.682 20.8803 118.953 20.885C119.228 20.885 119.473 20.8873 119.688 20.892C120.925 20.9107 121.93 21.116 122.705 21.508C123.48 21.9 124.047 22.4647 124.406 23.202C124.77 23.9347 124.952 24.8283 124.952 25.883C124.952 26.9797 124.758 27.9107 124.371 28.676C123.984 29.4367 123.391 30.0153 122.593 30.412C121.8 30.804 120.794 31 119.576 31H117.154V20.878ZM118.68 22.138V29.74H119.59C120.355 29.74 121.02 29.6163 121.585 29.369C122.154 29.117 122.595 28.711 122.908 28.151C123.221 27.5863 123.377 26.8327 123.377 25.89C123.377 24.966 123.228 24.231 122.929 23.685C122.63 23.1343 122.201 22.74 121.641 22.502C121.086 22.2593 120.416 22.138 119.632 22.138H118.68ZM130.115 20.878C130.152 20.878 130.262 20.8803 130.444 20.885C130.631 20.885 130.855 20.885 131.116 20.885C131.377 20.8803 131.643 20.8803 131.914 20.885C132.189 20.885 132.434 20.8873 132.649 20.892C133.886 20.9107 134.891 21.116 135.666 21.508C136.441 21.9 137.008 22.4647 137.367 23.202C137.731 23.9347 137.913 24.8283 137.913 25.883C137.913 26.9797 137.719 27.9107 137.332 28.676C136.945 29.4367 136.352 30.0153 135.554 30.412C134.761 30.804 133.755 31 132.537 31H130.115V20.878ZM131.641 22.138V29.74H132.551C133.316 29.74 133.981 29.6163 134.546 29.369C135.115 29.117 135.556 28.711 135.869 28.151C136.182 27.5863 136.338 26.8327 136.338 25.89C136.338 24.966 136.189 24.231 135.89 23.685C135.591 23.1343 135.162 22.74 134.602 22.502C134.047 22.2593 133.377 22.138 132.593 22.138H131.641ZM139.918 31V20.878H146.456L146.449 22.18H141.423V25.253H145.91V26.534H141.416V29.677L146.575 29.684V31H139.918ZM148.811 20.878H150.33V29.684H155.006V31H148.804L148.811 20.878ZM156.885 20.878H158.383V31H156.885V20.878ZM168.813 20.878L165.25 31H163.486L159.972 20.878H161.435L164.368 29.278L167.357 20.878H168.813ZM170.406 31V20.878H176.944L176.937 22.18H171.911V25.253H176.398V26.534H171.904V29.677L177.063 29.684V31H170.406ZM186.699 31H185.124L183.332 26.765H180.791V31H179.293V20.878H183.311C184.062 20.878 184.685 20.9947 185.18 21.228C185.674 21.4567 186.043 21.7833 186.286 22.208C186.528 22.6327 186.65 23.1343 186.65 23.713C186.65 24.259 186.556 24.714 186.37 25.078C186.188 25.442 185.95 25.7383 185.656 25.967C185.366 26.1957 185.061 26.3753 184.739 26.506L186.699 31ZM182.905 25.554C183.609 25.554 184.155 25.4023 184.543 25.099C184.93 24.791 185.124 24.3523 185.124 23.783C185.124 23.223 184.946 22.7983 184.592 22.509C184.242 22.2197 183.766 22.075 183.164 22.075H180.791V25.554H182.905ZM195.897 20.878L192.446 26.709V31H190.948V26.702L187.476 20.878H189.114L191.704 25.379L194.259 20.878H195.897Z" fill="#191C1F"/>
<path d="M73.337 44.878C73.3697 44.878 73.4677 44.8803 73.631 44.885C73.799 44.885 74.002 44.885 74.24 44.885C74.478 44.8803 74.7253 44.8803 74.982 44.885C75.2387 44.885 75.4743 44.8873 75.689 44.892C76.9303 44.9107 77.936 45.1137 78.706 45.501C79.4807 45.8837 80.0477 46.4413 80.407 47.174C80.771 47.9067 80.953 48.8073 80.953 49.876C80.953 50.996 80.757 51.9363 80.365 52.697C79.9777 53.4577 79.385 54.0317 78.587 54.419C77.7937 54.8063 76.7833 55 75.556 55H73.337V44.878ZM74.667 45.991V53.887H75.556C76.3913 53.887 77.11 53.7587 77.712 53.502C78.314 53.2407 78.776 52.8183 79.098 52.235C79.4247 51.6517 79.588 50.8723 79.588 49.897C79.588 48.9217 79.4293 48.1493 79.112 47.58C78.7993 47.0107 78.3467 46.6047 77.754 46.362C77.1613 46.1147 76.4473 45.991 75.612 45.991H74.667ZM83.702 51.682C83.702 52.1393 83.7767 52.5547 83.926 52.928C84.08 53.2967 84.311 53.5907 84.619 53.81C84.9317 54.0293 85.3214 54.139 85.788 54.139C86.25 54.139 86.6467 54.0317 86.978 53.817C87.314 53.6023 87.5287 53.292 87.622 52.886H88.847C88.7584 53.376 88.5624 53.789 88.259 54.125C87.9557 54.461 87.5894 54.7153 87.16 54.888C86.7307 55.056 86.2827 55.14 85.816 55.14C85.1394 55.14 84.5444 54.993 84.031 54.699C83.5177 54.405 83.1164 53.9827 82.827 53.432C82.5377 52.8813 82.393 52.221 82.393 51.451C82.393 50.6903 82.5237 50.023 82.785 49.449C83.0464 48.875 83.4244 48.427 83.919 48.105C84.4184 47.783 85.018 47.622 85.718 47.622C86.3994 47.622 86.9757 47.769 87.447 48.063C87.9184 48.357 88.2754 48.7723 88.518 49.309C88.7654 49.841 88.889 50.4733 88.889 51.206V51.682H83.702ZM83.709 50.807H87.643C87.643 50.3917 87.573 50.0183 87.433 49.687C87.293 49.351 87.0784 49.0873 86.789 48.896C86.5044 48.7 86.145 48.602 85.711 48.602C85.2584 48.602 84.8827 48.7117 84.584 48.931C84.29 49.1457 84.0684 49.4233 83.919 49.764C83.7744 50.1 83.7044 50.4477 83.709 50.807ZM92.4937 55.091C92.1017 55.091 91.7844 55.0373 91.5417 54.93C91.3037 54.8227 91.1194 54.678 90.9887 54.496C90.8627 54.314 90.7764 54.1063 90.7297 53.873C90.6877 53.635 90.6667 53.39 90.6667 53.138V44.598H91.9407V53.012C91.9407 53.376 92.0107 53.649 92.1507 53.831C92.2954 54.013 92.496 54.1133 92.7527 54.132L93.1447 54.139V54.979C93.0374 55.0117 92.9254 55.0373 92.8087 55.056C92.692 55.0793 92.587 55.091 92.4937 55.091ZM96.2093 47.762V55H94.9563V47.762H96.2093ZM96.2373 44.885V46.229H94.9143V44.885H96.2373ZM104.143 47.762L101.532 55H100.356L97.738 47.762H98.956L100.881 53.376H101L102.932 47.762H104.143ZM106.192 51.682C106.192 52.1393 106.267 52.5547 106.416 52.928C106.57 53.2967 106.801 53.5907 107.109 53.81C107.422 54.0293 107.812 54.139 108.278 54.139C108.74 54.139 109.137 54.0317 109.468 53.817C109.804 53.6023 110.019 53.292 110.112 52.886H111.337C111.249 53.376 111.053 53.789 110.749 54.125C110.446 54.461 110.08 54.7153 109.65 54.888C109.221 55.056 108.773 55.14 108.306 55.14C107.63 55.14 107.035 54.993 106.521 54.699C106.008 54.405 105.607 53.9827 105.317 53.432C105.028 52.8813 104.883 52.221 104.883 51.451C104.883 50.6903 105.014 50.023 105.275 49.449C105.537 48.875 105.915 48.427 106.409 48.105C106.909 47.783 107.508 47.622 108.208 47.622C108.89 47.622 109.466 47.769 109.937 48.063C110.409 48.357 110.766 48.7723 111.008 49.309C111.256 49.841 111.379 50.4733 111.379 51.206V51.682H106.192ZM106.199 50.807H110.133C110.133 50.3917 110.063 50.0183 109.923 49.687C109.783 49.351 109.569 49.0873 109.279 48.896C108.995 48.7 108.635 48.602 108.201 48.602C107.749 48.602 107.373 48.7117 107.074 48.931C106.78 49.1457 106.559 49.4233 106.409 49.764C106.265 50.1 106.195 50.4477 106.199 50.807ZM113.157 55V47.762H114.389V49.155C114.51 48.8097 114.681 48.525 114.9 48.301C115.119 48.0723 115.369 47.902 115.649 47.79C115.934 47.678 116.228 47.622 116.531 47.622C116.638 47.622 116.743 47.629 116.846 47.643C116.949 47.657 117.028 47.6803 117.084 47.713V48.966C117.014 48.9333 116.923 48.9123 116.811 48.903C116.704 48.889 116.613 48.882 116.538 48.882C116.249 48.8633 115.978 48.882 115.726 48.938C115.474 48.9893 115.252 49.0803 115.061 49.211C114.87 49.3417 114.718 49.5143 114.606 49.729C114.499 49.939 114.445 50.1957 114.445 50.499V55H113.157ZM119.627 57.31C119.202 57.31 118.91 57.2797 118.752 57.219C118.593 57.1583 118.514 57.128 118.514 57.128V56.288L119.249 56.302C119.519 56.3113 119.743 56.2927 119.921 56.246C120.098 56.1993 120.24 56.1363 120.348 56.057C120.455 55.9777 120.537 55.889 120.593 55.791C120.653 55.693 120.702 55.5997 120.74 55.511L120.992 54.825L118.164 47.762H119.473L121.608 53.348L123.729 47.762H124.996L121.944 55.546C121.757 56.0033 121.547 56.3603 121.314 56.617C121.085 56.8737 120.828 57.0533 120.544 57.156C120.264 57.2587 119.958 57.31 119.627 57.31ZM130.95 47.762V55H129.697V47.762H130.95ZM130.978 44.885V46.229H129.655V44.885H130.978ZM133.309 55V47.762H134.562V48.812C134.679 48.6113 134.84 48.4223 135.045 48.245C135.255 48.0677 135.507 47.9253 135.801 47.818C136.1 47.7107 136.443 47.657 136.83 47.657C137.288 47.657 137.708 47.748 138.09 47.93C138.478 48.112 138.786 48.3967 139.014 48.784C139.248 49.1667 139.364 49.6613 139.364 50.268V55H138.069V50.394C138.069 49.8293 137.92 49.4117 137.621 49.141C137.327 48.8657 136.945 48.728 136.473 48.728C136.147 48.728 135.841 48.7817 135.556 48.889C135.272 48.9917 135.041 49.1503 134.863 49.365C134.686 49.575 134.597 49.841 134.597 50.163V55H133.309ZM144.413 55V54.209V53.796C144.413 53.278 144.509 52.83 144.7 52.452C144.896 52.074 145.153 51.745 145.47 51.465C145.792 51.1803 146.142 50.926 146.52 50.702C146.903 50.478 147.283 50.2633 147.661 50.058C148.044 49.848 148.394 49.631 148.711 49.407C149.028 49.1783 149.283 48.9217 149.474 48.637C149.67 48.3477 149.768 48.007 149.768 47.615C149.768 47.1017 149.586 46.684 149.222 46.362C148.863 46.04 148.375 45.879 147.759 45.879C147.096 45.879 146.564 46.0657 146.163 46.439C145.762 46.8123 145.535 47.3093 145.484 47.93H144.196C144.21 47.3467 144.355 46.8147 144.63 46.334C144.905 45.8487 145.309 45.4613 145.841 45.172C146.373 44.8827 147.029 44.738 147.808 44.738C148.485 44.738 149.073 44.8593 149.572 45.102C150.071 45.34 150.456 45.676 150.727 46.11C151.002 46.5393 151.14 47.041 151.14 47.615C151.14 48.1377 151.044 48.5857 150.853 48.959C150.662 49.3323 150.407 49.6567 150.09 49.932C149.777 50.2027 149.434 50.4453 149.061 50.66C148.688 50.8747 148.312 51.0823 147.934 51.283C147.556 51.479 147.211 51.6867 146.898 51.906C146.585 52.1207 146.333 52.368 146.142 52.648C145.951 52.928 145.855 53.2617 145.855 53.649V53.852H151.196V55H144.413ZM157.254 44.878H158.57V51.276H160.25V52.417H158.57V55H157.303V52.417H152.536V51.234L157.254 44.878ZM153.775 51.276H157.275V46.579L153.775 51.276ZM160.878 55.539L164.378 44.878H165.386L161.879 55.539H160.878ZM173.69 50.331H168.23V55H166.935V44.878H168.23V49.19H173.69V44.878H174.985V55H173.69V50.331Z" fill="#5F6C72"/>
</svg>
