<svg width="280" height="76" viewBox="0 0 280 76" fill="none" xmlns="http://www.w3.org/2000/svg">
<rect width="280" height="76" fill="white"/>
<path d="M24.75 26.75V35.3594C24.75 41.5625 29.7187 46.7031 35.9219 46.75C37.4058 46.7603 38.8771 46.4769 40.2511 45.9162C41.625 45.3554 42.8744 44.5284 43.9274 43.4827C44.9803 42.437 45.816 41.1933 46.3862 39.8233C46.9565 38.4533 47.25 36.984 47.25 35.5V26.75C47.25 26.4185 47.1183 26.1005 46.8839 25.8661C46.6495 25.6317 46.3315 25.5 46 25.5H26C25.6685 25.5 25.3505 25.6317 25.1161 25.8661C24.8817 26.1005 24.75 26.4185 24.75 26.75Z" stroke="#191C1F" stroke-width="1.5" stroke-linecap="round" stroke-linejoin="round"/>
<path d="M31 53H41" stroke="#191C1F" stroke-width="1.5" stroke-linecap="round" stroke-linejoin="round"/>
<path d="M36 46.75V53" stroke="#191C1F" stroke-width="1.5" stroke-linecap="round" stroke-linejoin="round"/>
<path d="M46.9688 38H48.5C49.8261 38 51.0979 37.4732 52.0355 36.5355C52.9732 35.5979 53.5 34.3261 53.5 33V30.5C53.5 30.1685 53.3683 29.8505 53.1339 29.6161C52.8995 29.3817 52.5815 29.25 52.25 29.25H47.25" stroke="#191C1F" stroke-width="1.5" stroke-linecap="round" stroke-linejoin="round"/>
<path d="M25.0625 38H23.4844C22.1583 38 20.8865 37.4732 19.9488 36.5355C19.0112 35.5979 18.4844 34.3261 18.4844 33V30.5C18.4844 30.1685 18.6161 29.8505 18.8505 29.6161C19.0849 29.3817 19.4029 29.25 19.7344 29.25H24.7344" stroke="#191C1F" stroke-width="1.5" stroke-linecap="round" stroke-linejoin="round"/>
<path d="M72.847 31V30.153V29.705C72.847 29.1917 72.9427 28.746 73.134 28.368C73.33 27.99 73.5867 27.661 73.904 27.381C74.2213 27.0963 74.569 26.8443 74.947 26.625C75.3297 26.4057 75.71 26.1957 76.088 25.995C76.466 25.7943 76.8137 25.5867 77.131 25.372C77.4483 25.1527 77.7027 24.9077 77.894 24.637C78.09 24.3617 78.188 24.0397 78.188 23.671C78.188 23.1857 78.0177 22.7913 77.677 22.488C77.3363 22.1847 76.8743 22.033 76.291 22.033C75.6703 22.033 75.1663 22.208 74.779 22.558C74.3917 22.908 74.1677 23.391 74.107 24.007H72.637C72.651 23.405 72.798 22.8567 73.078 22.362C73.358 21.8673 73.771 21.473 74.317 21.179C74.863 20.885 75.5397 20.738 76.347 20.738C77.047 20.738 77.6513 20.8617 78.16 21.109C78.6733 21.3517 79.07 21.6923 79.35 22.131C79.63 22.5697 79.77 23.0807 79.77 23.664C79.77 24.182 79.6743 24.6277 79.483 25.001C79.2917 25.3743 79.0397 25.6963 78.727 25.967C78.419 26.2377 78.0783 26.478 77.705 26.688C77.3317 26.8933 76.9583 27.0917 76.585 27.283C76.2117 27.4697 75.8687 27.668 75.556 27.878C75.2433 28.0833 74.9913 28.3167 74.8 28.578C74.6087 28.8393 74.513 29.1543 74.513 29.523V29.698H79.805V31H72.847ZM85.8172 20.878H87.3222V27.213H88.9672V28.508H87.3222V31H85.8662V28.508H81.1272V27.192L85.8172 20.878ZM82.5412 27.213H85.8452V22.782L82.5412 27.213ZM100.508 26.422H95.3278V31H93.8298V20.878H95.3278V25.12H100.508V20.878H102.006V31H100.508V26.422ZM108.489 31.14C107.57 31.14 106.774 30.937 106.102 30.531C105.435 30.1203 104.919 29.53 104.555 28.76C104.196 27.9853 104.016 27.052 104.016 25.96C104.016 24.8587 104.198 23.9207 104.562 23.146C104.931 22.3667 105.449 21.7717 106.116 21.361C106.788 20.9457 107.579 20.738 108.489 20.738C109.395 20.738 110.179 20.9457 110.841 21.361C111.509 21.7717 112.022 22.3667 112.381 23.146C112.745 23.9207 112.927 24.8587 112.927 25.96C112.927 27.052 112.748 27.983 112.388 28.753C112.029 29.523 111.516 30.1133 110.848 30.524C110.186 30.9347 109.399 31.14 108.489 31.14ZM108.489 29.859C109.077 29.859 109.579 29.7237 109.994 29.453C110.414 29.1823 110.734 28.76 110.953 28.186C111.173 27.612 111.282 26.877 111.282 25.981C111.282 25.0617 111.17 24.3103 110.946 23.727C110.727 23.1437 110.407 22.7143 109.987 22.439C109.572 22.159 109.073 22.019 108.489 22.019C107.906 22.019 107.402 22.159 106.977 22.439C106.557 22.719 106.233 23.1507 106.004 23.734C105.776 24.3173 105.661 25.0663 105.661 25.981C105.661 26.8817 105.776 27.619 106.004 28.193C106.233 28.7623 106.557 29.1823 106.977 29.453C107.402 29.7237 107.906 29.859 108.489 29.859ZM122.356 27.402C122.356 28.1907 122.226 28.865 121.964 29.425C121.703 29.9803 121.292 30.405 120.732 30.699C120.177 30.993 119.451 31.14 118.555 31.14C117.65 31.14 116.917 30.9907 116.357 30.692C115.802 30.3933 115.396 29.957 115.139 29.383C114.887 28.809 114.761 28.109 114.761 27.283V20.878H116.308V27.472C116.308 28.2747 116.504 28.872 116.896 29.264C117.293 29.6513 117.846 29.845 118.555 29.845C119.027 29.845 119.433 29.761 119.773 29.593C120.119 29.4203 120.382 29.159 120.564 28.809C120.746 28.4543 120.837 28.0087 120.837 27.472V20.878H122.356V27.402ZM132.066 31H130.491L128.699 26.765H126.158V31H124.66V20.878H128.678C129.429 20.878 130.052 20.9947 130.547 21.228C131.042 21.4567 131.41 21.7833 131.653 22.208C131.896 22.6327 132.017 23.1343 132.017 23.713C132.017 24.259 131.924 24.714 131.737 25.078C131.555 25.442 131.317 25.7383 131.023 25.967C130.734 26.1957 130.428 26.3753 130.106 26.506L132.066 31ZM128.272 25.554C128.977 25.554 129.523 25.4023 129.91 25.099C130.297 24.791 130.491 24.3523 130.491 23.783C130.491 23.223 130.314 22.7983 129.959 22.509C129.609 22.2197 129.133 22.075 128.531 22.075H126.158V25.554H128.272ZM137.478 31.14C136.997 31.14 136.528 31.0793 136.071 30.958C135.614 30.8367 135.198 30.657 134.825 30.419C134.452 30.1763 134.141 29.8753 133.894 29.516C133.651 29.1567 133.5 28.7367 133.439 28.256H135C135.079 28.62 135.236 28.9257 135.469 29.173C135.707 29.4203 135.999 29.607 136.344 29.733C136.689 29.859 137.065 29.922 137.471 29.922C137.919 29.922 138.32 29.8613 138.675 29.74C139.034 29.614 139.319 29.4367 139.529 29.208C139.739 28.9747 139.844 28.6947 139.844 28.368C139.844 28.074 139.772 27.8243 139.627 27.619C139.487 27.4137 139.286 27.2433 139.025 27.108C138.768 26.968 138.458 26.8583 138.094 26.779L136.176 26.345C135.425 26.1863 134.832 25.8923 134.398 25.463C133.969 25.029 133.752 24.455 133.747 23.741C133.742 23.1437 133.899 22.621 134.216 22.173C134.538 21.725 134.977 21.3773 135.532 21.13C136.087 20.878 136.72 20.752 137.429 20.752C138.255 20.752 138.948 20.8897 139.508 21.165C140.073 21.4403 140.5 21.8043 140.789 22.257C141.078 22.705 141.225 23.1927 141.23 23.72H139.697C139.66 23.2907 139.534 22.95 139.319 22.698C139.104 22.446 138.834 22.2663 138.507 22.159C138.185 22.047 137.83 21.991 137.443 21.991C137.163 21.991 136.895 22.026 136.638 22.096C136.381 22.166 136.155 22.2687 135.959 22.404C135.763 22.5393 135.607 22.7073 135.49 22.908C135.378 23.104 135.322 23.3303 135.322 23.587C135.322 23.9323 135.439 24.2123 135.672 24.427C135.905 24.6417 136.335 24.826 136.96 24.98L138.836 25.407C139.373 25.519 139.807 25.6847 140.138 25.904C140.469 26.1187 140.724 26.3637 140.901 26.639C141.078 26.9143 141.2 27.2013 141.265 27.5C141.33 27.794 141.363 28.0763 141.363 28.347C141.363 28.8697 141.207 29.3433 140.894 29.768C140.581 30.188 140.136 30.5217 139.557 30.769C138.978 31.0163 138.285 31.14 137.478 31.14ZM154.009 31H152.434L150.642 26.765H148.101V31H146.603V20.878H150.621C151.373 20.878 151.996 20.9947 152.49 21.228C152.985 21.4567 153.354 21.7833 153.596 22.208C153.839 22.6327 153.96 23.1343 153.96 23.713C153.96 24.259 153.867 24.714 153.68 25.078C153.498 25.442 153.26 25.7383 152.966 25.967C152.677 26.1957 152.371 26.3753 152.049 26.506L154.009 31ZM150.215 25.554C150.92 25.554 151.466 25.4023 151.853 25.099C152.241 24.791 152.434 24.3523 152.434 23.783C152.434 23.223 152.257 22.7983 151.902 22.509C151.552 22.2197 151.076 22.075 150.474 22.075H148.101V25.554H150.215ZM156.146 31V20.878H162.684L162.677 22.18H157.651V25.253H162.138V26.534H157.644V29.677L162.803 29.684V31H156.146ZM164.169 22.243V20.878H171.946V22.243H168.887V31H167.375V22.243H164.169ZM181.132 27.402C181.132 28.1907 181.001 28.865 180.74 29.425C180.479 29.9803 180.068 30.405 179.508 30.699C178.953 30.993 178.227 31.14 177.331 31.14C176.426 31.14 175.693 30.9907 175.133 30.692C174.578 30.3933 174.172 29.957 173.915 29.383C173.663 28.809 173.537 28.109 173.537 27.283V20.878H175.084V27.472C175.084 28.2747 175.28 28.872 175.672 29.264C176.069 29.6513 176.622 29.845 177.331 29.845C177.802 29.845 178.208 29.761 178.549 29.593C178.894 29.4203 179.158 29.159 179.34 28.809C179.522 28.4543 179.613 28.0087 179.613 27.472V20.878H181.132V27.402ZM190.841 31H189.266L187.474 26.765H184.933V31H183.435V20.878H187.453C188.205 20.878 188.828 20.9947 189.322 21.228C189.817 21.4567 190.186 21.7833 190.428 22.208C190.671 22.6327 190.792 23.1343 190.792 23.713C190.792 24.259 190.699 24.714 190.512 25.078C190.33 25.442 190.092 25.7383 189.798 25.967C189.509 26.1957 189.203 26.3753 188.881 26.506L190.841 31ZM187.047 25.554C187.752 25.554 188.298 25.4023 188.685 25.099C189.073 24.791 189.266 24.3523 189.266 23.783C189.266 23.223 189.089 22.7983 188.734 22.509C188.384 22.2197 187.908 22.075 187.306 22.075H184.933V25.554H187.047ZM199.579 20.878H201.084V31H199.74L194.476 23.293V31H192.978V20.878H194.427L199.579 28.424V20.878Z" fill="#191C1F"/>
<path d="M74.604 55V46.943H72.651V46.096C73.2577 46.096 73.729 46.0517 74.065 45.963C74.401 45.8743 74.639 45.739 74.779 45.557C74.9237 45.375 75.003 45.1487 75.017 44.878H75.941V55H74.604ZM81.9922 44.738C83.0888 44.738 83.9615 45.179 84.6102 46.061C85.2635 46.9383 85.5902 48.238 85.5902 49.96C85.5902 51.6727 85.2658 52.9677 84.6172 53.845C83.9685 54.7177 83.0888 55.154 81.9782 55.154C80.8722 55.154 79.9948 54.72 79.3462 53.852C78.6975 52.9793 78.3732 51.689 78.3732 49.981C78.3732 48.8283 78.5225 47.8623 78.8212 47.083C79.1198 46.3037 79.5398 45.718 80.0812 45.326C80.6225 44.934 81.2595 44.738 81.9922 44.738ZM81.9922 54.034C82.7155 54.034 83.2615 53.7167 83.6302 53.082C84.0035 52.4427 84.1902 51.4043 84.1902 49.967C84.1902 48.5017 84.0012 47.447 83.6232 46.803C83.2498 46.1543 82.7038 45.83 81.9852 45.83C81.2712 45.83 80.7205 46.1567 80.3332 46.81C79.9505 47.4587 79.7592 48.511 79.7592 49.967C79.7592 51.3997 79.9505 52.4357 80.3332 53.075C80.7158 53.7143 81.2688 54.034 81.9922 54.034ZM90.4824 44.738C91.5791 44.738 92.4517 45.179 93.1004 46.061C93.7537 46.9383 94.0804 48.238 94.0804 49.96C94.0804 51.6727 93.7561 52.9677 93.1074 53.845C92.4587 54.7177 91.5791 55.154 90.4684 55.154C89.3624 55.154 88.4851 54.72 87.8364 53.852C87.1877 52.9793 86.8634 51.689 86.8634 49.981C86.8634 48.8283 87.0127 47.8623 87.3114 47.083C87.6101 46.3037 88.0301 45.718 88.5714 45.326C89.1127 44.934 89.7497 44.738 90.4824 44.738ZM90.4824 54.034C91.2057 54.034 91.7517 53.7167 92.1204 53.082C92.4937 52.4427 92.6804 51.4043 92.6804 49.967C92.6804 48.5017 92.4914 47.447 92.1134 46.803C91.7401 46.1543 91.1941 45.83 90.4754 45.83C89.7614 45.83 89.2107 46.1567 88.8234 46.81C88.4407 47.4587 88.2494 48.511 88.2494 49.967C88.2494 51.3997 88.4407 52.4357 88.8234 53.075C89.2061 53.7143 89.7591 54.034 90.4824 54.034ZM97.9137 44.724C98.3663 44.724 98.7723 44.843 99.1317 45.081C99.491 45.319 99.7733 45.655 99.9787 46.089C100.184 46.523 100.287 47.034 100.287 47.622C100.287 48.21 100.184 48.7187 99.9787 49.148C99.778 49.5773 99.498 49.911 99.1387 50.149C98.7793 50.3823 98.371 50.499 97.9137 50.499C97.4517 50.499 97.0387 50.3823 96.6747 50.149C96.3153 49.911 96.0307 49.5773 95.8207 49.148C95.6107 48.7187 95.5057 48.21 95.5057 47.622C95.5057 47.034 95.6107 46.523 95.8207 46.089C96.0307 45.655 96.3153 45.319 96.6747 45.081C97.0387 44.843 97.4517 44.724 97.9137 44.724ZM97.8997 49.778C98.3477 49.778 98.6907 49.5797 98.9287 49.183C99.1713 48.7863 99.2927 48.266 99.2927 47.622C99.2927 46.9687 99.1713 46.4437 98.9287 46.047C98.686 45.6457 98.343 45.445 97.8997 45.445C97.601 45.445 97.3467 45.5383 97.1367 45.725C96.9313 45.907 96.7727 46.1613 96.6607 46.488C96.5533 46.8147 96.4997 47.1927 96.4997 47.622C96.4997 48.2613 96.621 48.7817 96.8637 49.183C97.1063 49.5797 97.4517 49.778 97.8997 49.778ZM104.249 49.351C104.706 49.351 105.114 49.4723 105.474 49.715C105.833 49.953 106.115 50.289 106.321 50.723C106.526 51.157 106.629 51.6657 106.629 52.249C106.629 52.837 106.526 53.348 106.321 53.782C106.12 54.216 105.84 54.552 105.481 54.79C105.121 55.0233 104.711 55.14 104.249 55.14C103.787 55.14 103.374 55.0233 103.01 54.79C102.646 54.552 102.361 54.216 102.156 53.782C101.95 53.348 101.848 52.837 101.848 52.249C101.848 51.6657 101.95 51.157 102.156 50.723C102.366 50.289 102.653 49.953 103.017 49.715C103.381 49.4723 103.791 49.351 104.249 49.351ZM104.235 54.405C104.524 54.405 104.774 54.314 104.984 54.132C105.194 53.9453 105.355 53.691 105.467 53.369C105.579 53.047 105.635 52.6783 105.635 52.263C105.635 51.8383 105.576 51.4627 105.46 51.136C105.348 50.8047 105.187 50.5457 104.977 50.359C104.767 50.1723 104.519 50.079 104.235 50.079C103.95 50.079 103.703 50.1747 103.493 50.366C103.283 50.5527 103.122 50.8117 103.01 51.143C102.898 51.4697 102.842 51.843 102.842 52.263C102.842 52.6783 102.898 53.047 103.01 53.369C103.122 53.691 103.28 53.9453 103.486 54.132C103.696 54.314 103.945 54.405 104.235 54.405ZM104.83 44.766L98.0257 55.056L97.1507 55.049L103.983 44.766H104.83ZM111.721 55V47.762H112.967V48.812C113.168 48.4947 113.443 48.217 113.793 47.979C114.143 47.741 114.598 47.622 115.158 47.622C115.42 47.622 115.686 47.6663 115.956 47.755C116.232 47.8437 116.484 47.9767 116.712 48.154C116.941 48.3313 117.118 48.5483 117.244 48.805C117.468 48.4503 117.772 48.1657 118.154 47.951C118.537 47.7317 118.969 47.622 119.449 47.622C119.701 47.622 119.965 47.6617 120.24 47.741C120.516 47.8157 120.77 47.951 121.003 48.147C121.241 48.3383 121.435 48.6067 121.584 48.952C121.734 49.2927 121.808 49.7313 121.808 50.268V55H120.506V50.394C120.506 49.9553 120.436 49.617 120.296 49.379C120.156 49.1363 119.972 48.966 119.743 48.868C119.519 48.77 119.279 48.721 119.022 48.721C118.798 48.721 118.56 48.7653 118.308 48.854C118.056 48.9427 117.842 49.092 117.664 49.302C117.487 49.512 117.398 49.799 117.398 50.163V55H116.11V50.016C116.11 49.7313 116.033 49.4933 115.879 49.302C115.73 49.1107 115.541 48.966 115.312 48.868C115.088 48.77 114.864 48.721 114.64 48.721C114.393 48.721 114.143 48.77 113.891 48.868C113.644 48.966 113.434 49.1223 113.261 49.337C113.093 49.547 113.009 49.8223 113.009 50.163V55H111.721ZM126.712 55.14C126.044 55.14 125.461 54.9977 124.962 54.713C124.462 54.4237 124.075 54.0013 123.8 53.446C123.524 52.8907 123.387 52.2117 123.387 51.409C123.387 50.653 123.515 49.9903 123.772 49.421C124.028 48.8517 124.404 48.4107 124.899 48.098C125.398 47.7807 126.002 47.622 126.712 47.622C127.379 47.622 127.958 47.769 128.448 48.063C128.942 48.3523 129.325 48.7793 129.596 49.344C129.866 49.9087 130.002 50.597 130.002 51.409C130.002 52.1463 129.876 52.795 129.624 53.355C129.376 53.915 129.008 54.3537 128.518 54.671C128.032 54.9837 127.43 55.14 126.712 55.14ZM126.712 54.118C127.146 54.118 127.512 54.0083 127.811 53.789C128.109 53.5697 128.336 53.2547 128.49 52.844C128.644 52.4333 128.721 51.9457 128.721 51.381C128.721 50.863 128.653 50.3987 128.518 49.988C128.382 49.5727 128.165 49.2437 127.867 49.001C127.573 48.7583 127.188 48.637 126.712 48.637C126.273 48.637 125.902 48.7467 125.599 48.966C125.295 49.1807 125.064 49.4933 124.906 49.904C124.752 50.3147 124.675 50.807 124.675 51.381C124.675 51.8897 124.745 52.3517 124.885 52.767C125.025 53.1823 125.244 53.5113 125.543 53.754C125.841 53.9967 126.231 54.118 126.712 54.118ZM131.696 55V47.762H132.949V48.812C133.066 48.6113 133.227 48.4223 133.432 48.245C133.642 48.0677 133.894 47.9253 134.188 47.818C134.487 47.7107 134.83 47.657 135.217 47.657C135.674 47.657 136.094 47.748 136.477 47.93C136.864 48.112 137.172 48.3967 137.401 48.784C137.634 49.1667 137.751 49.6613 137.751 50.268V55H136.456V50.394C136.456 49.8293 136.307 49.4117 136.008 49.141C135.714 48.8657 135.331 48.728 134.86 48.728C134.533 48.728 134.228 48.7817 133.943 48.889C133.658 48.9917 133.427 49.1503 133.25 49.365C133.073 49.575 132.984 49.841 132.984 50.163V55H131.696ZM140.7 51.682C140.7 52.1393 140.775 52.5547 140.924 52.928C141.078 53.2967 141.309 53.5907 141.617 53.81C141.93 54.0293 142.319 54.139 142.786 54.139C143.248 54.139 143.645 54.0317 143.976 53.817C144.312 53.6023 144.527 53.292 144.62 52.886H145.845C145.756 53.376 145.56 53.789 145.257 54.125C144.954 54.461 144.587 54.7153 144.158 54.888C143.729 55.056 143.281 55.14 142.814 55.14C142.137 55.14 141.542 54.993 141.029 54.699C140.516 54.405 140.114 53.9827 139.825 53.432C139.536 52.8813 139.391 52.221 139.391 51.451C139.391 50.6903 139.522 50.023 139.783 49.449C140.044 48.875 140.422 48.427 140.917 48.105C141.416 47.783 142.016 47.622 142.716 47.622C143.397 47.622 143.974 47.769 144.445 48.063C144.916 48.357 145.273 48.7723 145.516 49.309C145.763 49.841 145.887 50.4733 145.887 51.206V51.682H140.7ZM140.707 50.807H144.641C144.641 50.3917 144.571 50.0183 144.431 49.687C144.291 49.351 144.076 49.0873 143.787 48.896C143.502 48.7 143.143 48.602 142.709 48.602C142.256 48.602 141.881 48.7117 141.582 48.931C141.288 49.1457 141.066 49.4233 140.917 49.764C140.772 50.1 140.702 50.4477 140.707 50.807ZM148.119 57.31C147.694 57.31 147.403 57.2797 147.244 57.219C147.085 57.1583 147.006 57.128 147.006 57.128V56.288L147.741 56.302C148.012 56.3113 148.236 56.2927 148.413 56.246C148.59 56.1993 148.733 56.1363 148.84 56.057C148.947 55.9777 149.029 55.889 149.085 55.791C149.146 55.693 149.195 55.5997 149.232 55.511L149.484 54.825L146.656 47.762H147.965L150.1 53.348L152.221 47.762H153.488L150.436 55.546C150.249 56.0033 150.039 56.3603 149.806 56.617C149.577 56.8737 149.321 57.0533 149.036 57.156C148.756 57.2587 148.45 57.31 148.119 57.31ZM158.147 50.87V51.892L154.598 51.899V50.884L158.147 50.87ZM163.669 55.14C163.245 55.14 162.885 55.084 162.591 54.972C162.302 54.86 162.064 54.7177 161.877 54.545C161.691 54.3677 161.546 54.188 161.443 54.006C161.341 53.8193 161.266 53.656 161.219 53.516L161.079 55H160.092V44.598H161.394V48.91C161.455 48.7887 161.546 48.6557 161.667 48.511C161.793 48.3663 161.954 48.2263 162.15 48.091C162.346 47.9557 162.577 47.8437 162.843 47.755C163.114 47.6663 163.422 47.622 163.767 47.622C164.673 47.622 165.391 47.937 165.923 48.567C166.46 49.197 166.728 50.1257 166.728 51.353C166.728 52.1137 166.614 52.7787 166.385 53.348C166.157 53.9127 165.816 54.3537 165.363 54.671C164.911 54.9837 164.346 55.14 163.669 55.14ZM163.438 54.146C164.026 54.146 164.505 53.9197 164.873 53.467C165.242 53.0097 165.426 52.284 165.426 51.29C165.426 50.4453 165.254 49.792 164.908 49.33C164.568 48.8633 164.068 48.63 163.41 48.63C162.93 48.63 162.542 48.735 162.248 48.945C161.959 49.1503 161.744 49.4513 161.604 49.848C161.469 50.2447 161.399 50.7253 161.394 51.29C161.394 52.3027 161.551 53.033 161.863 53.481C162.181 53.9243 162.706 54.146 163.438 54.146ZM170.339 55.14C169.872 55.14 169.459 55.0583 169.1 54.895C168.74 54.727 168.458 54.4867 168.253 54.174C168.052 53.8613 167.952 53.4833 167.952 53.04C167.952 52.2373 168.232 51.64 168.792 51.248C169.352 50.856 170.25 50.646 171.487 50.618L172.782 50.583V50.016C172.782 49.5727 172.649 49.2227 172.383 48.966C172.117 48.7047 171.704 48.574 171.144 48.574C170.728 48.5787 170.362 48.6767 170.045 48.868C169.732 49.0593 169.529 49.372 169.436 49.806H168.295C168.323 49.3347 168.456 48.938 168.694 48.616C168.932 48.2893 169.263 48.042 169.688 47.874C170.117 47.706 170.623 47.622 171.207 47.622C171.837 47.622 172.359 47.7107 172.775 47.888C173.195 48.0653 173.507 48.3267 173.713 48.672C173.923 49.0173 174.028 49.442 174.028 49.946V55H172.922L172.831 53.642C172.551 54.2067 172.194 54.5987 171.76 54.818C171.33 55.0327 170.857 55.14 170.339 55.14ZM170.731 54.209C170.973 54.209 171.214 54.1647 171.452 54.076C171.694 53.9873 171.916 53.8683 172.117 53.719C172.317 53.565 172.476 53.3947 172.593 53.208C172.714 53.0167 172.777 52.8207 172.782 52.62V51.381L171.704 51.402C171.153 51.4113 170.691 51.4673 170.318 51.57C169.949 51.6727 169.671 51.8337 169.485 52.053C169.303 52.2723 169.212 52.5593 169.212 52.914C169.212 53.32 169.352 53.6373 169.632 53.866C169.916 54.0947 170.283 54.209 170.731 54.209ZM179.123 47.622C179.641 47.622 180.108 47.7223 180.523 47.923C180.938 48.119 181.277 48.399 181.538 48.763C181.804 49.127 181.97 49.5563 182.035 50.051H180.887C180.845 49.799 180.747 49.568 180.593 49.358C180.444 49.148 180.245 48.98 179.998 48.854C179.751 48.728 179.461 48.665 179.13 48.665C178.509 48.665 178.005 48.889 177.618 49.337C177.231 49.785 177.037 50.471 177.037 51.395C177.037 52.2303 177.214 52.9 177.569 53.404C177.928 53.9033 178.456 54.153 179.151 54.153C179.482 54.153 179.769 54.09 180.012 53.964C180.259 53.8333 180.458 53.663 180.607 53.453C180.756 53.2383 180.852 53.0097 180.894 52.767H182.021C181.96 53.2523 181.797 53.6723 181.531 54.027C181.265 54.3817 180.924 54.657 180.509 54.853C180.098 55.0443 179.636 55.14 179.123 55.14C178.474 55.14 177.898 54.9977 177.394 54.713C176.895 54.4283 176.503 54.0083 176.218 53.453C175.933 52.8977 175.791 52.2163 175.791 51.409C175.791 50.653 175.919 49.9927 176.176 49.428C176.437 48.8587 176.815 48.4153 177.31 48.098C177.809 47.7807 178.414 47.622 179.123 47.622ZM190.142 55H188.77L186.502 51.367L185.074 52.844V55H183.786V44.598H185.074V51.381L188.476 47.762H189.96L187.349 50.52L190.142 55ZM197.967 57.394C196.828 57.394 195.941 57.2283 195.307 56.897C194.677 56.5703 194.362 56.1013 194.362 55.49C194.362 55.2287 194.422 55.007 194.544 54.825C194.665 54.6383 194.81 54.4843 194.978 54.363C195.146 54.2417 195.302 54.146 195.447 54.076C195.591 54.0013 195.685 53.9477 195.727 53.915C195.647 53.8683 195.547 53.81 195.426 53.74C195.309 53.67 195.206 53.5767 195.118 53.46C195.029 53.3433 194.985 53.1917 194.985 53.005C194.985 52.7763 195.092 52.5663 195.307 52.375C195.521 52.1837 195.839 52.0413 196.259 51.948C195.834 51.7333 195.503 51.4487 195.265 51.094C195.027 50.7393 194.908 50.3543 194.908 49.939C194.908 49.4723 195.034 49.0663 195.286 48.721C195.542 48.3757 195.906 48.112 196.378 47.93C196.849 47.7433 197.409 47.65 198.058 47.65C198.529 47.65 198.926 47.706 199.248 47.818C199.57 47.9253 199.868 48.0793 200.144 48.28C200.218 48.2473 200.335 48.1983 200.494 48.133C200.657 48.063 200.837 47.9883 201.033 47.909C201.229 47.8297 201.411 47.755 201.579 47.685C201.751 47.6103 201.889 47.5543 201.992 47.517L201.985 48.714L200.718 48.952C200.788 49.1013 200.844 49.2647 200.886 49.442C200.932 49.6193 200.956 49.785 200.956 49.939C200.956 50.3637 200.844 50.7487 200.62 51.094C200.4 51.4393 200.067 51.7147 199.619 51.92C199.171 52.1253 198.611 52.228 197.939 52.228C197.883 52.228 197.81 52.228 197.722 52.228C197.638 52.2233 197.565 52.2187 197.505 52.214C197.01 52.228 196.669 52.284 196.483 52.382C196.296 52.4753 196.203 52.5803 196.203 52.697C196.203 52.8323 196.308 52.9257 196.518 52.977C196.728 53.0283 197.085 53.0727 197.589 53.11C197.771 53.1193 197.995 53.131 198.261 53.145C198.531 53.159 198.83 53.1777 199.157 53.201C199.917 53.2477 200.503 53.4413 200.914 53.782C201.324 54.1227 201.53 54.5823 201.53 55.161C201.53 55.819 201.236 56.3557 200.648 56.771C200.06 57.1863 199.166 57.394 197.967 57.394ZM198.198 56.561C198.865 56.561 199.376 56.4607 199.731 56.26C200.085 56.0593 200.263 55.756 200.263 55.35C200.263 55.0607 200.153 54.825 199.934 54.643C199.719 54.4563 199.39 54.349 198.947 54.321L196.917 54.188C196.735 54.1787 196.546 54.2253 196.35 54.328C196.154 54.426 195.986 54.5637 195.846 54.741C195.71 54.9183 195.643 55.119 195.643 55.343C195.643 55.7257 195.85 56.0243 196.266 56.239C196.686 56.4537 197.33 56.561 198.198 56.561ZM197.974 51.395C198.496 51.395 198.916 51.2737 199.234 51.031C199.556 50.7883 199.717 50.429 199.717 49.953C199.717 49.463 199.556 49.0897 199.234 48.833C198.916 48.5763 198.496 48.448 197.974 48.448C197.446 48.448 197.019 48.5787 196.693 48.84C196.371 49.0967 196.21 49.4677 196.21 49.953C196.21 50.4103 196.364 50.765 196.672 51.017C196.98 51.269 197.414 51.395 197.974 51.395ZM206.065 55.14C205.687 55.1353 205.33 55.0817 204.994 54.979C204.663 54.8717 204.369 54.7153 204.112 54.51C203.855 54.3047 203.652 54.0503 203.503 53.747C203.358 53.439 203.286 53.082 203.286 52.676V47.762H204.581V52.543C204.581 53.0143 204.726 53.397 205.015 53.691C205.309 53.985 205.75 54.132 206.338 54.132C206.87 54.132 207.297 53.9943 207.619 53.719C207.946 53.439 208.109 53.0237 208.109 52.473V47.762H209.397V55H208.368L208.235 53.614C208.146 53.978 207.995 54.272 207.78 54.496C207.57 54.72 207.316 54.8857 207.017 54.993C206.723 55.0957 206.406 55.1447 206.065 55.14ZM213.419 55.14C212.952 55.14 212.539 55.0583 212.18 54.895C211.82 54.727 211.538 54.4867 211.333 54.174C211.132 53.8613 211.032 53.4833 211.032 53.04C211.032 52.2373 211.312 51.64 211.872 51.248C212.432 50.856 213.33 50.646 214.567 50.618L215.862 50.583V50.016C215.862 49.5727 215.729 49.2227 215.463 48.966C215.197 48.7047 214.784 48.574 214.224 48.574C213.808 48.5787 213.442 48.6767 213.125 48.868C212.812 49.0593 212.609 49.372 212.516 49.806H211.375C211.403 49.3347 211.536 48.938 211.774 48.616C212.012 48.2893 212.343 48.042 212.768 47.874C213.197 47.706 213.703 47.622 214.287 47.622C214.917 47.622 215.439 47.7107 215.855 47.888C216.275 48.0653 216.587 48.3267 216.793 48.672C217.003 49.0173 217.108 49.442 217.108 49.946V55H216.002L215.911 53.642C215.631 54.2067 215.274 54.5987 214.84 54.818C214.41 55.0327 213.937 55.14 213.419 55.14ZM213.811 54.209C214.053 54.209 214.294 54.1647 214.532 54.076C214.774 53.9873 214.996 53.8683 215.197 53.719C215.397 53.565 215.556 53.3947 215.673 53.208C215.794 53.0167 215.857 52.8207 215.862 52.62V51.381L214.784 51.402C214.233 51.4113 213.771 51.4673 213.398 51.57C213.029 51.6727 212.751 51.8337 212.565 52.053C212.383 52.2723 212.292 52.5593 212.292 52.914C212.292 53.32 212.432 53.6373 212.712 53.866C212.996 54.0947 213.363 54.209 213.811 54.209ZM219.319 55V47.762H220.551V49.155C220.672 48.8097 220.843 48.525 221.062 48.301C221.281 48.0723 221.531 47.902 221.811 47.79C222.096 47.678 222.39 47.622 222.693 47.622C222.8 47.622 222.905 47.629 223.008 47.643C223.111 47.657 223.19 47.6803 223.246 47.713V48.966C223.176 48.9333 223.085 48.9123 222.973 48.903C222.866 48.889 222.775 48.882 222.7 48.882C222.411 48.8633 222.14 48.882 221.888 48.938C221.636 48.9893 221.414 49.0803 221.223 49.211C221.032 49.3417 220.88 49.5143 220.768 49.729C220.661 49.939 220.607 50.1957 220.607 50.499V55H219.319ZM226.571 55.14C226.104 55.14 225.691 55.0583 225.332 54.895C224.973 54.727 224.69 54.4867 224.485 54.174C224.284 53.8613 224.184 53.4833 224.184 53.04C224.184 52.2373 224.464 51.64 225.024 51.248C225.584 50.856 226.482 50.646 227.719 50.618L229.014 50.583V50.016C229.014 49.5727 228.881 49.2227 228.615 48.966C228.349 48.7047 227.936 48.574 227.376 48.574C226.961 48.5787 226.594 48.6767 226.277 48.868C225.964 49.0593 225.761 49.372 225.668 49.806H224.527C224.555 49.3347 224.688 48.938 224.926 48.616C225.164 48.2893 225.495 48.042 225.92 47.874C226.349 47.706 226.856 47.622 227.439 47.622C228.069 47.622 228.592 47.7107 229.007 47.888C229.427 48.0653 229.74 48.3267 229.945 48.672C230.155 49.0173 230.26 49.442 230.26 49.946V55H229.154L229.063 53.642C228.783 54.2067 228.426 54.5987 227.992 54.818C227.563 55.0327 227.089 55.14 226.571 55.14ZM226.963 54.209C227.206 54.209 227.446 54.1647 227.684 54.076C227.927 53.9873 228.148 53.8683 228.349 53.719C228.55 53.565 228.708 53.3947 228.825 53.208C228.946 53.0167 229.009 52.8207 229.014 52.62V51.381L227.936 51.402C227.385 51.4113 226.923 51.4673 226.55 51.57C226.181 51.6727 225.904 51.8337 225.717 52.053C225.535 52.2723 225.444 52.5593 225.444 52.914C225.444 53.32 225.584 53.6373 225.864 53.866C226.149 54.0947 226.515 54.209 226.963 54.209ZM232.471 55V47.762H233.724V48.812C233.841 48.6113 234.002 48.4223 234.207 48.245C234.417 48.0677 234.669 47.9253 234.963 47.818C235.262 47.7107 235.605 47.657 235.992 47.657C236.45 47.657 236.87 47.748 237.252 47.93C237.64 48.112 237.948 48.3967 238.176 48.784C238.41 49.1667 238.526 49.6613 238.526 50.268V55H237.231V50.394C237.231 49.8293 237.082 49.4117 236.783 49.141C236.489 48.8657 236.107 48.728 235.635 48.728C235.309 48.728 235.003 48.7817 234.718 48.889C234.434 48.9917 234.203 49.1503 234.025 49.365C233.848 49.575 233.759 49.841 233.759 50.163V55H232.471ZM243.887 48.707H242.256V53.208C242.256 53.4647 242.282 53.6537 242.333 53.775C242.389 53.8917 242.48 53.9663 242.606 53.999C242.737 54.0317 242.914 54.048 243.138 54.048H243.929V54.916C243.84 54.9487 243.705 54.9767 243.523 55C243.346 55.0233 243.124 55.035 242.858 55.035C242.359 55.035 241.971 54.9673 241.696 54.832C241.421 54.6967 241.227 54.496 241.115 54.23C241.008 53.964 240.954 53.6373 240.954 53.25V48.707H239.778V47.762H240.989L241.304 45.655H242.256V47.755H243.887V48.707ZM246.479 51.682C246.479 52.1393 246.554 52.5547 246.703 52.928C246.857 53.2967 247.088 53.5907 247.396 53.81C247.709 54.0293 248.099 54.139 248.565 54.139C249.027 54.139 249.424 54.0317 249.755 53.817C250.091 53.6023 250.306 53.292 250.399 52.886H251.624C251.536 53.376 251.34 53.789 251.036 54.125C250.733 54.461 250.367 54.7153 249.937 54.888C249.508 55.056 249.06 55.14 248.593 55.14C247.917 55.14 247.322 54.993 246.808 54.699C246.295 54.405 245.894 53.9827 245.604 53.432C245.315 52.8813 245.17 52.221 245.17 51.451C245.17 50.6903 245.301 50.023 245.562 49.449C245.824 48.875 246.202 48.427 246.696 48.105C247.196 47.783 247.795 47.622 248.495 47.622C249.177 47.622 249.753 47.769 250.224 48.063C250.696 48.357 251.053 48.7723 251.295 49.309C251.543 49.841 251.666 50.4733 251.666 51.206V51.682H246.479ZM246.486 50.807H250.42C250.42 50.3917 250.35 50.0183 250.21 49.687C250.07 49.351 249.856 49.0873 249.566 48.896C249.282 48.7 248.922 48.602 248.488 48.602C248.036 48.602 247.66 48.7117 247.361 48.931C247.067 49.1457 246.846 49.4233 246.696 49.764C246.552 50.1 246.482 50.4477 246.486 50.807ZM254.368 51.682C254.368 52.1393 254.443 52.5547 254.592 52.928C254.746 53.2967 254.977 53.5907 255.285 53.81C255.598 54.0293 255.987 54.139 256.454 54.139C256.916 54.139 257.313 54.0317 257.644 53.817C257.98 53.6023 258.195 53.292 258.288 52.886H259.513C259.424 53.376 259.228 53.789 258.925 54.125C258.622 54.461 258.255 54.7153 257.826 54.888C257.397 55.056 256.949 55.14 256.482 55.14C255.805 55.14 255.21 54.993 254.697 54.699C254.184 54.405 253.782 53.9827 253.493 53.432C253.204 52.8813 253.059 52.221 253.059 51.451C253.059 50.6903 253.19 50.023 253.451 49.449C253.712 48.875 254.09 48.427 254.585 48.105C255.084 47.783 255.684 47.622 256.384 47.622C257.065 47.622 257.642 47.769 258.113 48.063C258.584 48.357 258.941 48.7723 259.184 49.309C259.431 49.841 259.555 50.4733 259.555 51.206V51.682H254.368ZM254.375 50.807H258.309C258.309 50.3917 258.239 50.0183 258.099 49.687C257.959 49.351 257.744 49.0873 257.455 48.896C257.17 48.7 256.811 48.602 256.377 48.602C255.924 48.602 255.549 48.7117 255.25 48.931C254.956 49.1457 254.734 49.4233 254.585 49.764C254.44 50.1 254.37 50.4477 254.375 50.807Z" fill="#5F6C72"/>
</svg>
