<svg width="280" height="76" viewBox="0 0 280 76" fill="none" xmlns="http://www.w3.org/2000/svg">
<rect width="280" height="76" fill="white"/>
<path d="M51.2344 39.25H46.2344C45.5713 39.25 44.9354 39.5134 44.4666 39.9822C43.9978 40.451 43.7344 41.0869 43.7344 41.75V48C43.7344 48.663 43.9978 49.2989 44.4666 49.7677C44.9354 50.2366 45.5713 50.5 46.2344 50.5H48.7344C49.3974 50.5 50.0333 50.2366 50.5021 49.7677C50.971 49.2989 51.2344 48.663 51.2344 48V39.25ZM51.2344 39.25C51.2344 37.2696 50.8424 35.3088 50.0807 33.4807C49.3191 31.6526 48.203 29.9935 46.7969 28.5989C45.3907 27.2044 43.7224 26.1021 41.888 25.3557C40.0537 24.6093 38.0897 24.2335 36.1094 24.25C34.1304 24.2355 32.1681 24.6129 30.3355 25.3602C28.503 26.1076 26.8365 27.2102 25.432 28.6045C24.0275 29.9988 22.9128 31.6573 22.1522 33.4843C21.3915 35.3114 20.9999 37.2709 21 39.25V48C21 48.663 21.2634 49.2989 21.7322 49.7677C22.2011 50.2366 22.837 50.5 23.5 50.5H26C26.663 50.5 27.2989 50.2366 27.7678 49.7677C28.2366 49.2989 28.5 48.663 28.5 48V41.75C28.5 41.0869 28.2366 40.451 27.7678 39.9822C27.2989 39.5134 26.663 39.25 26 39.25H21" stroke="#191C1F" stroke-width="1.5" stroke-linecap="round" stroke-linejoin="round"/>
<path d="M76.816 31.14C76.3353 31.14 75.8663 31.0793 75.409 30.958C74.9517 30.8367 74.5363 30.657 74.163 30.419C73.7897 30.1763 73.4793 29.8753 73.232 29.516C72.9893 29.1567 72.8377 28.7367 72.777 28.256H74.338C74.4173 28.62 74.5737 28.9257 74.807 29.173C75.045 29.4203 75.3367 29.607 75.682 29.733C76.0273 29.859 76.403 29.922 76.809 29.922C77.257 29.922 77.6583 29.8613 78.013 29.74C78.3723 29.614 78.657 29.4367 78.867 29.208C79.077 28.9747 79.182 28.6947 79.182 28.368C79.182 28.074 79.1097 27.8243 78.965 27.619C78.825 27.4137 78.6243 27.2433 78.363 27.108C78.1063 26.968 77.796 26.8583 77.432 26.779L75.514 26.345C74.7627 26.1863 74.17 25.8923 73.736 25.463C73.3067 25.029 73.0897 24.455 73.085 23.741C73.0803 23.1437 73.2367 22.621 73.554 22.173C73.876 21.725 74.3147 21.3773 74.87 21.13C75.4253 20.878 76.0577 20.752 76.767 20.752C77.593 20.752 78.286 20.8897 78.846 21.165C79.4107 21.4403 79.8377 21.8043 80.127 22.257C80.4163 22.705 80.5633 23.1927 80.568 23.72H79.035C78.9977 23.2907 78.8717 22.95 78.657 22.698C78.4423 22.446 78.1717 22.2663 77.845 22.159C77.523 22.047 77.1683 21.991 76.781 21.991C76.501 21.991 76.2327 22.026 75.976 22.096C75.7193 22.166 75.493 22.2687 75.297 22.404C75.101 22.5393 74.9447 22.7073 74.828 22.908C74.716 23.104 74.66 23.3303 74.66 23.587C74.66 23.9323 74.7767 24.2123 75.01 24.427C75.2433 24.6417 75.6727 24.826 76.298 24.98L78.174 25.407C78.7107 25.519 79.1447 25.6847 79.476 25.904C79.8073 26.1187 80.0617 26.3637 80.239 26.639C80.4163 26.9143 80.5377 27.2013 80.603 27.5C80.6683 27.794 80.701 28.0763 80.701 28.347C80.701 28.8697 80.5447 29.3433 80.232 29.768C79.9193 30.188 79.4737 30.5217 78.895 30.769C78.3163 31.0163 77.6233 31.14 76.816 31.14ZM90.378 27.402C90.378 28.1907 90.2473 28.865 89.986 29.425C89.7246 29.9803 89.314 30.405 88.754 30.699C88.1986 30.993 87.473 31.14 86.577 31.14C85.6716 31.14 84.939 30.9907 84.379 30.692C83.8236 30.3933 83.4176 29.957 83.161 29.383C82.909 28.809 82.783 28.109 82.783 27.283V20.878H84.33V27.472C84.33 28.2747 84.526 28.872 84.918 29.264C85.3146 29.6513 85.8676 29.845 86.577 29.845C87.0483 29.845 87.4543 29.761 87.795 29.593C88.1403 29.4203 88.404 29.159 88.586 28.809C88.768 28.4543 88.859 28.0087 88.859 27.472V20.878H90.378V27.402ZM92.6814 31V20.878H96.1884C96.9117 20.878 97.5581 21.0017 98.1274 21.249C98.7014 21.4963 99.1517 21.8603 99.4784 22.341C99.8097 22.8217 99.9754 23.412 99.9754 24.112C99.9754 24.784 99.8237 25.358 99.5204 25.834C99.2217 26.3053 98.8017 26.667 98.2604 26.919C97.7237 27.1663 97.1007 27.29 96.3914 27.29H94.2074V31H92.6814ZM94.2004 26.065H96.3494C96.9934 26.065 97.5184 25.8807 97.9244 25.512C98.3304 25.1387 98.5334 24.644 98.5334 24.028C98.5334 23.4027 98.3234 22.9243 97.9034 22.593C97.4834 22.257 96.9467 22.089 96.2934 22.089H94.2004V26.065ZM101.65 31V20.878H105.157C105.88 20.878 106.527 21.0017 107.096 21.249C107.67 21.4963 108.12 21.8603 108.447 22.341C108.778 22.8217 108.944 23.412 108.944 24.112C108.944 24.784 108.792 25.358 108.489 25.834C108.19 26.3053 107.77 26.667 107.229 26.919C106.692 27.1663 106.069 27.29 105.36 27.29H103.176V31H101.65ZM103.169 26.065H105.318C105.962 26.065 106.487 25.8807 106.893 25.512C107.299 25.1387 107.502 24.644 107.502 24.028C107.502 23.4027 107.292 22.9243 106.872 22.593C106.452 22.257 105.915 22.089 105.262 22.089H103.169V26.065ZM114.587 31.14C113.668 31.14 112.872 30.937 112.2 30.531C111.533 30.1203 111.017 29.53 110.653 28.76C110.294 27.9853 110.114 27.052 110.114 25.96C110.114 24.8587 110.296 23.9207 110.66 23.146C111.029 22.3667 111.547 21.7717 112.214 21.361C112.886 20.9457 113.677 20.738 114.587 20.738C115.492 20.738 116.276 20.9457 116.939 21.361C117.606 21.7717 118.12 22.3667 118.479 23.146C118.843 23.9207 119.025 24.8587 119.025 25.96C119.025 27.052 118.845 27.983 118.486 28.753C118.127 29.523 117.613 30.1133 116.946 30.524C116.283 30.9347 115.497 31.14 114.587 31.14ZM114.587 29.859C115.175 29.859 115.677 29.7237 116.092 29.453C116.512 29.1823 116.832 28.76 117.051 28.186C117.27 27.612 117.38 26.877 117.38 25.981C117.38 25.0617 117.268 24.3103 117.044 23.727C116.825 23.1437 116.505 22.7143 116.085 22.439C115.67 22.159 115.17 22.019 114.587 22.019C114.004 22.019 113.5 22.159 113.075 22.439C112.655 22.719 112.331 23.1507 112.102 23.734C111.873 24.3173 111.759 25.0663 111.759 25.981C111.759 26.8817 111.873 27.619 112.102 28.193C112.331 28.7623 112.655 29.1823 113.075 29.453C113.5 29.7237 114.004 29.859 114.587 29.859ZM128.443 31H126.868L125.076 26.765H122.535V31H121.037V20.878H125.055C125.806 20.878 126.429 20.9947 126.924 21.228C127.419 21.4567 127.787 21.7833 128.03 22.208C128.273 22.6327 128.394 23.1343 128.394 23.713C128.394 24.259 128.301 24.714 128.114 25.078C127.932 25.442 127.694 25.7383 127.4 25.967C127.111 26.1957 126.805 26.3753 126.483 26.506L128.443 31ZM124.649 25.554C125.354 25.554 125.9 25.4023 126.287 25.099C126.674 24.791 126.868 24.3523 126.868 23.783C126.868 23.223 126.691 22.7983 126.336 22.509C125.986 22.2197 125.51 22.075 124.908 22.075H122.535V25.554H124.649ZM129.47 22.243V20.878H137.247V22.243H134.188V31H132.676V22.243H129.47ZM141.562 31V30.153V29.705C141.562 29.1917 141.658 28.746 141.849 28.368C142.045 27.99 142.302 27.661 142.619 27.381C142.936 27.0963 143.284 26.8443 143.662 26.625C144.045 26.4057 144.425 26.1957 144.803 25.995C145.181 25.7943 145.529 25.5867 145.846 25.372C146.163 25.1527 146.418 24.9077 146.609 24.637C146.805 24.3617 146.903 24.0397 146.903 23.671C146.903 23.1857 146.733 22.7913 146.392 22.488C146.051 22.1847 145.589 22.033 145.006 22.033C144.385 22.033 143.881 22.208 143.494 22.558C143.107 22.908 142.883 23.391 142.822 24.007H141.352C141.366 23.405 141.513 22.8567 141.793 22.362C142.073 21.8673 142.486 21.473 143.032 21.179C143.578 20.885 144.255 20.738 145.062 20.738C145.762 20.738 146.366 20.8617 146.875 21.109C147.388 21.3517 147.785 21.6923 148.065 22.131C148.345 22.5697 148.485 23.0807 148.485 23.664C148.485 24.182 148.389 24.6277 148.198 25.001C148.007 25.3743 147.755 25.6963 147.442 25.967C147.134 26.2377 146.793 26.478 146.42 26.688C146.047 26.8933 145.673 27.0917 145.3 27.283C144.927 27.4697 144.584 27.668 144.271 27.878C143.958 28.0833 143.706 28.3167 143.515 28.578C143.324 28.8393 143.228 29.1543 143.228 29.523V29.698H148.52V31H141.562ZM154.532 20.878H156.037V27.213H157.682V28.508H156.037V31H154.581V28.508H149.842V27.192L154.532 20.878ZM151.256 27.213H154.56V22.782L151.256 27.213ZM158.287 31.462L161.801 20.878H162.921L159.407 31.462H158.287ZM163.774 20.878H171.005V22.145C170.655 22.6163 170.307 23.153 169.962 23.755C169.616 24.357 169.287 24.9893 168.975 25.652C168.667 26.31 168.387 26.968 168.135 27.626C167.887 28.2793 167.684 28.8977 167.526 29.481C167.367 30.0597 167.269 30.566 167.232 31H165.601C165.666 30.552 165.79 29.9943 165.972 29.327C166.154 28.6597 166.399 27.9293 166.707 27.136C167.019 26.338 167.397 25.512 167.841 24.658C168.284 23.804 168.8 22.9663 169.388 22.145H163.774V20.878Z" fill="#191C1F"/>
<path d="M73.344 44.878H74.667V53.838H79.448V55H73.337L73.344 44.878ZM82.5511 47.762V55H81.2981V47.762H82.5511ZM82.5791 44.885V46.229H81.2561V44.885H82.5791ZM90.4848 47.762L87.8738 55H86.6978L84.0798 47.762H85.2978L87.2228 53.376H87.3418L89.2738 47.762H90.4848ZM92.5341 51.682C92.5341 52.1393 92.6087 52.5547 92.7581 52.928C92.9121 53.2967 93.1431 53.5907 93.4511 53.81C93.7637 54.0293 94.1534 54.139 94.6201 54.139C95.0821 54.139 95.4787 54.0317 95.8101 53.817C96.1461 53.6023 96.3607 53.292 96.4541 52.886H97.6791C97.5904 53.376 97.3944 53.789 97.0911 54.125C96.7877 54.461 96.4214 54.7153 95.9921 54.888C95.5627 55.056 95.1147 55.14 94.6481 55.14C93.9714 55.14 93.3764 54.993 92.8631 54.699C92.3497 54.405 91.9484 53.9827 91.6591 53.432C91.3697 52.8813 91.2251 52.221 91.2251 51.451C91.2251 50.6903 91.3557 50.023 91.6171 49.449C91.8784 48.875 92.2564 48.427 92.7511 48.105C93.2504 47.783 93.8501 47.622 94.5501 47.622C95.2314 47.622 95.8077 47.769 96.2791 48.063C96.7504 48.357 97.1074 48.7723 97.3501 49.309C97.5974 49.841 97.7211 50.4733 97.7211 51.206V51.682H92.5341ZM92.5411 50.807H96.4751C96.4751 50.3917 96.4051 50.0183 96.2651 49.687C96.1251 49.351 95.9104 49.0873 95.6211 48.896C95.3364 48.7 94.9771 48.602 94.5431 48.602C94.0904 48.602 93.7147 48.7117 93.4161 48.931C93.1221 49.1457 92.9004 49.4233 92.7511 49.764C92.6064 50.1 92.5364 50.4477 92.5411 50.807ZM105.35 47.622C105.868 47.622 106.334 47.7223 106.75 47.923C107.165 48.119 107.503 48.399 107.765 48.763C108.031 49.127 108.196 49.5563 108.262 50.051H107.114C107.072 49.799 106.974 49.568 106.82 49.358C106.67 49.148 106.472 48.98 106.225 48.854C105.977 48.728 105.688 48.665 105.357 48.665C104.736 48.665 104.232 48.889 103.845 49.337C103.457 49.785 103.264 50.471 103.264 51.395C103.264 52.2303 103.441 52.9 103.796 53.404C104.155 53.9033 104.682 54.153 105.378 54.153C105.709 54.153 105.996 54.09 106.239 53.964C106.486 53.8333 106.684 53.663 106.834 53.453C106.983 53.2383 107.079 53.0097 107.121 52.767H108.248C108.187 53.2523 108.024 53.6723 107.758 54.027C107.492 54.3817 107.151 54.657 106.736 54.853C106.325 55.0443 105.863 55.14 105.35 55.14C104.701 55.14 104.125 54.9977 103.621 54.713C103.121 54.4283 102.729 54.0083 102.445 53.453C102.16 52.8977 102.018 52.2163 102.018 51.409C102.018 50.653 102.146 49.9927 102.403 49.428C102.664 48.8587 103.042 48.4153 103.537 48.098C104.036 47.7807 104.64 47.622 105.35 47.622ZM112.889 55.14C112.222 55.14 111.639 54.9977 111.139 54.713C110.64 54.4237 110.253 54.0013 109.977 53.446C109.702 52.8907 109.564 52.2117 109.564 51.409C109.564 50.653 109.693 49.9903 109.949 49.421C110.206 48.8517 110.582 48.4107 111.076 48.098C111.576 47.7807 112.18 47.622 112.889 47.622C113.557 47.622 114.135 47.769 114.625 48.063C115.12 48.3523 115.503 48.7793 115.773 49.344C116.044 49.9087 116.179 50.597 116.179 51.409C116.179 52.1463 116.053 52.795 115.801 53.355C115.554 53.915 115.185 54.3537 114.695 54.671C114.21 54.9837 113.608 55.14 112.889 55.14ZM112.889 54.118C113.323 54.118 113.69 54.0083 113.988 53.789C114.287 53.5697 114.513 53.2547 114.667 52.844C114.821 52.4333 114.898 51.9457 114.898 51.381C114.898 50.863 114.831 50.3987 114.695 49.988C114.56 49.5727 114.343 49.2437 114.044 49.001C113.75 48.7583 113.365 48.637 112.889 48.637C112.451 48.637 112.08 48.7467 111.776 48.966C111.473 49.1807 111.242 49.4933 111.083 49.904C110.929 50.3147 110.852 50.807 110.852 51.381C110.852 51.8897 110.922 52.3517 111.062 52.767C111.202 53.1823 111.422 53.5113 111.72 53.754C112.019 53.9967 112.409 54.118 112.889 54.118ZM117.874 55V47.762H119.127V48.812C119.243 48.6113 119.404 48.4223 119.61 48.245C119.82 48.0677 120.072 47.9253 120.366 47.818C120.664 47.7107 121.007 47.657 121.395 47.657C121.852 47.657 122.272 47.748 122.655 47.93C123.042 48.112 123.35 48.3967 123.579 48.784C123.812 49.1667 123.929 49.6613 123.929 50.268V55H122.634V50.394C122.634 49.8293 122.484 49.4117 122.186 49.141C121.892 48.8657 121.509 48.728 121.038 48.728C120.711 48.728 120.405 48.7817 120.121 48.889C119.836 48.9917 119.605 49.1503 119.428 49.365C119.25 49.575 119.162 49.841 119.162 50.163V55H117.874ZM129.289 48.707H127.658V53.208C127.658 53.4647 127.684 53.6537 127.735 53.775C127.791 53.8917 127.882 53.9663 128.008 53.999C128.139 54.0317 128.316 54.048 128.54 54.048H129.331V54.916C129.243 54.9487 129.107 54.9767 128.925 55C128.748 55.0233 128.526 55.035 128.26 55.035C127.761 55.035 127.374 54.9673 127.098 54.832C126.823 54.6967 126.629 54.496 126.517 54.23C126.41 53.964 126.356 53.6373 126.356 53.25V48.707H125.18V47.762H126.391L126.706 45.655H127.658V47.755H129.289V48.707ZM133.11 55.14C132.643 55.14 132.23 55.0583 131.871 54.895C131.512 54.727 131.229 54.4867 131.024 54.174C130.823 53.8613 130.723 53.4833 130.723 53.04C130.723 52.2373 131.003 51.64 131.563 51.248C132.123 50.856 133.021 50.646 134.258 50.618L135.553 50.583V50.016C135.553 49.5727 135.42 49.2227 135.154 48.966C134.888 48.7047 134.475 48.574 133.915 48.574C133.5 48.5787 133.133 48.6767 132.816 48.868C132.503 49.0593 132.3 49.372 132.207 49.806H131.066C131.094 49.3347 131.227 48.938 131.465 48.616C131.703 48.2893 132.034 48.042 132.459 47.874C132.888 47.706 133.395 47.622 133.978 47.622C134.608 47.622 135.131 47.7107 135.546 47.888C135.966 48.0653 136.279 48.3267 136.484 48.672C136.694 49.0173 136.799 49.442 136.799 49.946V55H135.693L135.602 53.642C135.322 54.2067 134.965 54.5987 134.531 54.818C134.102 55.0327 133.628 55.14 133.11 55.14ZM133.502 54.209C133.745 54.209 133.985 54.1647 134.223 54.076C134.466 53.9873 134.687 53.8683 134.888 53.719C135.089 53.565 135.247 53.3947 135.364 53.208C135.485 53.0167 135.548 52.8207 135.553 52.62V51.381L134.475 51.402C133.924 51.4113 133.462 51.4673 133.089 51.57C132.72 51.6727 132.443 51.8337 132.256 52.053C132.074 52.2723 131.983 52.5593 131.983 52.914C131.983 53.32 132.123 53.6373 132.403 53.866C132.688 54.0947 133.054 54.209 133.502 54.209ZM141.894 47.622C142.412 47.622 142.879 47.7223 143.294 47.923C143.71 48.119 144.048 48.399 144.309 48.763C144.575 49.127 144.741 49.5563 144.806 50.051H143.658C143.616 49.799 143.518 49.568 143.364 49.358C143.215 49.148 143.017 48.98 142.769 48.854C142.522 48.728 142.233 48.665 141.901 48.665C141.281 48.665 140.777 48.889 140.389 49.337C140.002 49.785 139.808 50.471 139.808 51.395C139.808 52.2303 139.986 52.9 140.34 53.404C140.7 53.9033 141.227 54.153 141.922 54.153C142.254 54.153 142.541 54.09 142.783 53.964C143.031 53.8333 143.229 53.663 143.378 53.453C143.528 53.2383 143.623 53.0097 143.665 52.767H144.792C144.732 53.2523 144.568 53.6723 144.302 54.027C144.036 54.3817 143.696 54.657 143.28 54.853C142.87 55.0443 142.408 55.14 141.894 55.14C141.246 55.14 140.669 54.9977 140.165 54.713C139.666 54.4283 139.274 54.0083 138.989 53.453C138.705 52.8977 138.562 52.2163 138.562 51.409C138.562 50.653 138.691 49.9927 138.947 49.428C139.209 48.8587 139.587 48.4153 140.081 48.098C140.581 47.7807 141.185 47.622 141.894 47.622ZM150.002 48.707H148.371V53.208C148.371 53.4647 148.397 53.6537 148.448 53.775C148.504 53.8917 148.595 53.9663 148.721 53.999C148.852 54.0317 149.029 54.048 149.253 54.048H150.044V54.916C149.956 54.9487 149.82 54.9767 149.638 55C149.461 55.0233 149.239 55.035 148.973 55.035C148.474 55.035 148.087 54.9673 147.811 54.832C147.536 54.6967 147.342 54.496 147.23 54.23C147.123 53.964 147.069 53.6373 147.069 53.25V48.707H145.893V47.762H147.104L147.419 45.655H148.371V47.755H150.002V48.707ZM150.98 55.539L154.48 44.878H155.488L151.981 55.539H150.98ZM156.77 55V47.762H158.016V48.812C158.217 48.4947 158.492 48.217 158.842 47.979C159.192 47.741 159.647 47.622 160.207 47.622C160.469 47.622 160.735 47.6663 161.005 47.755C161.281 47.8437 161.533 47.9767 161.761 48.154C161.99 48.3313 162.167 48.5483 162.293 48.805C162.517 48.4503 162.821 48.1657 163.203 47.951C163.586 47.7317 164.018 47.622 164.498 47.622C164.75 47.622 165.014 47.6617 165.289 47.741C165.565 47.8157 165.819 47.951 166.052 48.147C166.29 48.3383 166.484 48.6067 166.633 48.952C166.783 49.2927 166.857 49.7313 166.857 50.268V55H165.555V50.394C165.555 49.9553 165.485 49.617 165.345 49.379C165.205 49.1363 165.021 48.966 164.792 48.868C164.568 48.77 164.328 48.721 164.071 48.721C163.847 48.721 163.609 48.7653 163.357 48.854C163.105 48.9427 162.891 49.092 162.713 49.302C162.536 49.512 162.447 49.799 162.447 50.163V55H161.159V50.016C161.159 49.7313 161.082 49.4933 160.928 49.302C160.779 49.1107 160.59 48.966 160.361 48.868C160.137 48.77 159.913 48.721 159.689 48.721C159.442 48.721 159.192 48.77 158.94 48.868C158.693 48.966 158.483 49.1223 158.31 49.337C158.142 49.547 158.058 49.8223 158.058 50.163V55H156.77ZM169.808 51.682C169.808 52.1393 169.882 52.5547 170.032 52.928C170.186 53.2967 170.417 53.5907 170.725 53.81C171.037 54.0293 171.427 54.139 171.894 54.139C172.356 54.139 172.752 54.0317 173.084 53.817C173.42 53.6023 173.634 53.292 173.728 52.886H174.953C174.864 53.376 174.668 53.789 174.365 54.125C174.061 54.461 173.695 54.7153 173.266 54.888C172.836 55.056 172.388 55.14 171.922 55.14C171.245 55.14 170.65 54.993 170.137 54.699C169.623 54.405 169.222 53.9827 168.933 53.432C168.643 52.8813 168.499 52.221 168.499 51.451C168.499 50.6903 168.629 50.023 168.891 49.449C169.152 48.875 169.53 48.427 170.025 48.105C170.524 47.783 171.124 47.622 171.824 47.622C172.505 47.622 173.081 47.769 173.553 48.063C174.024 48.357 174.381 48.7723 174.624 49.309C174.871 49.841 174.995 50.4733 174.995 51.206V51.682H169.808ZM169.815 50.807H173.749C173.749 50.3917 173.679 50.0183 173.539 49.687C173.399 49.351 173.184 49.0873 172.895 48.896C172.61 48.7 172.251 48.602 171.817 48.602C171.364 48.602 170.988 48.7117 170.69 48.931C170.396 49.1457 170.174 49.4233 170.025 49.764C169.88 50.1 169.81 50.4477 169.815 50.807ZM179.3 55.14C178.796 55.14 178.327 55.063 177.893 54.909C177.464 54.7503 177.107 54.5053 176.822 54.174C176.537 53.838 176.358 53.411 176.283 52.893H177.459C177.524 53.1777 177.641 53.4157 177.809 53.607C177.982 53.7937 178.196 53.936 178.453 54.034C178.71 54.1273 178.99 54.174 179.293 54.174C179.778 54.174 180.17 54.083 180.469 53.901C180.768 53.719 180.917 53.439 180.917 53.061C180.917 52.795 180.838 52.5827 180.679 52.424C180.525 52.2607 180.285 52.1417 179.958 52.067L178.46 51.696C177.877 51.556 177.41 51.3367 177.06 51.038C176.71 50.7393 176.535 50.3217 176.535 49.785C176.53 49.3603 176.631 48.987 176.836 48.665C177.041 48.343 177.349 48.0887 177.76 47.902C178.171 47.7153 178.682 47.622 179.293 47.622C180.077 47.622 180.709 47.7993 181.19 48.154C181.675 48.504 181.927 49.0197 181.946 49.701H180.805C180.758 49.3557 180.602 49.0827 180.336 48.882C180.075 48.6767 179.722 48.574 179.279 48.574C178.817 48.574 178.441 48.6673 178.152 48.854C177.863 49.036 177.718 49.3207 177.718 49.708C177.718 49.9647 177.821 50.1677 178.026 50.317C178.231 50.4617 178.535 50.583 178.936 50.681L180.385 51.045C180.721 51.1337 180.996 51.2503 181.211 51.395C181.43 51.5397 181.603 51.7007 181.729 51.878C181.86 52.0553 181.951 52.242 182.002 52.438C182.058 52.6293 182.086 52.8137 182.086 52.991C182.086 53.4343 181.974 53.817 181.75 54.139C181.531 54.4563 181.213 54.7037 180.798 54.881C180.387 55.0537 179.888 55.14 179.3 55.14ZM186.355 55.14C185.851 55.14 185.382 55.063 184.948 54.909C184.519 54.7503 184.162 54.5053 183.877 54.174C183.592 53.838 183.413 53.411 183.338 52.893H184.514C184.579 53.1777 184.696 53.4157 184.864 53.607C185.037 53.7937 185.251 53.936 185.508 54.034C185.765 54.1273 186.045 54.174 186.348 54.174C186.833 54.174 187.225 54.083 187.524 53.901C187.823 53.719 187.972 53.439 187.972 53.061C187.972 52.795 187.893 52.5827 187.734 52.424C187.58 52.2607 187.34 52.1417 187.013 52.067L185.515 51.696C184.932 51.556 184.465 51.3367 184.115 51.038C183.765 50.7393 183.59 50.3217 183.59 49.785C183.585 49.3603 183.686 48.987 183.891 48.665C184.096 48.343 184.404 48.0887 184.815 47.902C185.226 47.7153 185.737 47.622 186.348 47.622C187.132 47.622 187.764 47.7993 188.245 48.154C188.73 48.504 188.982 49.0197 189.001 49.701H187.86C187.813 49.3557 187.657 49.0827 187.391 48.882C187.13 48.6767 186.777 48.574 186.334 48.574C185.872 48.574 185.496 48.6673 185.207 48.854C184.918 49.036 184.773 49.3207 184.773 49.708C184.773 49.9647 184.876 50.1677 185.081 50.317C185.286 50.4617 185.59 50.583 185.991 50.681L187.44 51.045C187.776 51.1337 188.051 51.2503 188.266 51.395C188.485 51.5397 188.658 51.7007 188.784 51.878C188.915 52.0553 189.006 52.242 189.057 52.438C189.113 52.6293 189.141 52.8137 189.141 52.991C189.141 53.4343 189.029 53.817 188.805 54.139C188.586 54.4563 188.268 54.7037 187.853 54.881C187.442 55.0537 186.943 55.14 186.355 55.14ZM192.979 55.14C192.513 55.14 192.1 55.0583 191.74 54.895C191.381 54.727 191.099 54.4867 190.893 54.174C190.693 53.8613 190.592 53.4833 190.592 53.04C190.592 52.2373 190.872 51.64 191.432 51.248C191.992 50.856 192.891 50.646 194.127 50.618L195.422 50.583V50.016C195.422 49.5727 195.289 49.2227 195.023 48.966C194.757 48.7047 194.344 48.574 193.784 48.574C193.369 48.5787 193.003 48.6767 192.685 48.868C192.373 49.0593 192.17 49.372 192.076 49.806H190.935C190.963 49.3347 191.096 48.938 191.334 48.616C191.572 48.2893 191.904 48.042 192.328 47.874C192.758 47.706 193.264 47.622 193.847 47.622C194.477 47.622 195 47.7107 195.415 47.888C195.835 48.0653 196.148 48.3267 196.353 48.672C196.563 49.0173 196.668 49.442 196.668 49.946V55H195.562L195.471 53.642C195.191 54.2067 194.834 54.5987 194.4 54.818C193.971 55.0327 193.497 55.14 192.979 55.14ZM193.371 54.209C193.614 54.209 193.854 54.1647 194.092 54.076C194.335 53.9873 194.557 53.8683 194.757 53.719C194.958 53.565 195.117 53.3947 195.233 53.208C195.355 53.0167 195.418 52.8207 195.422 52.62V51.381L194.344 51.402C193.794 51.4113 193.332 51.4673 192.958 51.57C192.59 51.6727 192.312 51.8337 192.125 52.053C191.943 52.2723 191.852 52.5593 191.852 52.914C191.852 53.32 191.992 53.6373 192.272 53.866C192.557 54.0947 192.923 54.209 193.371 54.209ZM201.932 57.394C200.793 57.394 199.906 57.2283 199.272 56.897C198.642 56.5703 198.327 56.1013 198.327 55.49C198.327 55.2287 198.387 55.007 198.509 54.825C198.63 54.6383 198.775 54.4843 198.943 54.363C199.111 54.2417 199.267 54.146 199.412 54.076C199.556 54.0013 199.65 53.9477 199.692 53.915C199.612 53.8683 199.512 53.81 199.391 53.74C199.274 53.67 199.171 53.5767 199.083 53.46C198.994 53.3433 198.95 53.1917 198.95 53.005C198.95 52.7763 199.057 52.5663 199.272 52.375C199.486 52.1837 199.804 52.0413 200.224 51.948C199.799 51.7333 199.468 51.4487 199.23 51.094C198.992 50.7393 198.873 50.3543 198.873 49.939C198.873 49.4723 198.999 49.0663 199.251 48.721C199.507 48.3757 199.871 48.112 200.343 47.93C200.814 47.7433 201.374 47.65 202.023 47.65C202.494 47.65 202.891 47.706 203.213 47.818C203.535 47.9253 203.833 48.0793 204.109 48.28C204.183 48.2473 204.3 48.1983 204.459 48.133C204.622 48.063 204.802 47.9883 204.998 47.909C205.194 47.8297 205.376 47.755 205.544 47.685C205.716 47.6103 205.854 47.5543 205.957 47.517L205.95 48.714L204.683 48.952C204.753 49.1013 204.809 49.2647 204.851 49.442C204.897 49.6193 204.921 49.785 204.921 49.939C204.921 50.3637 204.809 50.7487 204.585 51.094C204.365 51.4393 204.032 51.7147 203.584 51.92C203.136 52.1253 202.576 52.228 201.904 52.228C201.848 52.228 201.775 52.228 201.687 52.228C201.603 52.2233 201.53 52.2187 201.47 52.214C200.975 52.228 200.634 52.284 200.448 52.382C200.261 52.4753 200.168 52.5803 200.168 52.697C200.168 52.8323 200.273 52.9257 200.483 52.977C200.693 53.0283 201.05 53.0727 201.554 53.11C201.736 53.1193 201.96 53.131 202.226 53.145C202.496 53.159 202.795 53.1777 203.122 53.201C203.882 53.2477 204.468 53.4413 204.879 53.782C205.289 54.1227 205.495 54.5823 205.495 55.161C205.495 55.819 205.201 56.3557 204.613 56.771C204.025 57.1863 203.131 57.394 201.932 57.394ZM202.163 56.561C202.83 56.561 203.341 56.4607 203.696 56.26C204.05 56.0593 204.228 55.756 204.228 55.35C204.228 55.0607 204.118 54.825 203.899 54.643C203.684 54.4563 203.355 54.349 202.912 54.321L200.882 54.188C200.7 54.1787 200.511 54.2253 200.315 54.328C200.119 54.426 199.951 54.5637 199.811 54.741C199.675 54.9183 199.608 55.119 199.608 55.343C199.608 55.7257 199.815 56.0243 200.231 56.239C200.651 56.4537 201.295 56.561 202.163 56.561ZM201.939 51.395C202.461 51.395 202.881 51.2737 203.199 51.031C203.521 50.7883 203.682 50.429 203.682 49.953C203.682 49.463 203.521 49.0897 203.199 48.833C202.881 48.5763 202.461 48.448 201.939 48.448C201.411 48.448 200.984 48.5787 200.658 48.84C200.336 49.0967 200.175 49.4677 200.175 49.953C200.175 50.4103 200.329 50.765 200.637 51.017C200.945 51.269 201.379 51.395 201.939 51.395ZM208.28 51.682C208.28 52.1393 208.355 52.5547 208.504 52.928C208.658 53.2967 208.889 53.5907 209.197 53.81C209.51 54.0293 209.899 54.139 210.366 54.139C210.828 54.139 211.225 54.0317 211.556 53.817C211.892 53.6023 212.107 53.292 212.2 52.886H213.425C213.336 53.376 213.14 53.789 212.837 54.125C212.534 54.461 212.167 54.7153 211.738 54.888C211.309 55.056 210.861 55.14 210.394 55.14C209.717 55.14 209.122 54.993 208.609 54.699C208.096 54.405 207.694 53.9827 207.405 53.432C207.116 52.8813 206.971 52.221 206.971 51.451C206.971 50.6903 207.102 50.023 207.363 49.449C207.624 48.875 208.002 48.427 208.497 48.105C208.996 47.783 209.596 47.622 210.296 47.622C210.977 47.622 211.554 47.769 212.025 48.063C212.496 48.357 212.853 48.7723 213.096 49.309C213.343 49.841 213.467 50.4733 213.467 51.206V51.682H208.28ZM208.287 50.807H212.221C212.221 50.3917 212.151 50.0183 212.011 49.687C211.871 49.351 211.656 49.0873 211.367 48.896C211.082 48.7 210.723 48.602 210.289 48.602C209.836 48.602 209.461 48.7117 209.162 48.931C208.868 49.1457 208.646 49.4233 208.497 49.764C208.352 50.1 208.282 50.4477 208.287 50.807Z" fill="#5F6C72"/>
</svg>
