<svg width="280" height="76" viewBox="0 0 280 76" fill="none" xmlns="http://www.w3.org/2000/svg">
<rect width="280" height="76" fill="white"/>
<path d="M51 26.75H21C20.3096 26.75 19.75 27.3096 19.75 28V48C19.75 48.6904 20.3096 49.25 21 49.25H51C51.6904 49.25 52.25 48.6904 52.25 48V28C52.25 27.3096 51.6904 26.75 51 26.75Z" stroke="#191C1F" stroke-width="1.5" stroke-linecap="round" stroke-linejoin="round"/>
<path d="M42.25 44.25H47.25" stroke="#191C1F" stroke-width="1.5" stroke-linecap="round" stroke-linejoin="round"/>
<path d="M34.75 44.25H37.25" stroke="#191C1F" stroke-width="1.5" stroke-linecap="round" stroke-linejoin="round"/>
<path d="M19.75 33.1406H52.25" stroke="#191C1F" stroke-width="1.5" stroke-linecap="round" stroke-linejoin="round"/>
<path d="M76.816 31.14C76.3353 31.14 75.8663 31.0793 75.409 30.958C74.9517 30.8367 74.5363 30.657 74.163 30.419C73.7897 30.1763 73.4793 29.8753 73.232 29.516C72.9893 29.1567 72.8377 28.7367 72.777 28.256H74.338C74.4173 28.62 74.5737 28.9257 74.807 29.173C75.045 29.4203 75.3367 29.607 75.682 29.733C76.0273 29.859 76.403 29.922 76.809 29.922C77.257 29.922 77.6583 29.8613 78.013 29.74C78.3723 29.614 78.657 29.4367 78.867 29.208C79.077 28.9747 79.182 28.6947 79.182 28.368C79.182 28.074 79.1097 27.8243 78.965 27.619C78.825 27.4137 78.6243 27.2433 78.363 27.108C78.1063 26.968 77.796 26.8583 77.432 26.779L75.514 26.345C74.7627 26.1863 74.17 25.8923 73.736 25.463C73.3067 25.029 73.0897 24.455 73.085 23.741C73.0803 23.1437 73.2367 22.621 73.554 22.173C73.876 21.725 74.3147 21.3773 74.87 21.13C75.4253 20.878 76.0577 20.752 76.767 20.752C77.593 20.752 78.286 20.8897 78.846 21.165C79.4107 21.4403 79.8377 21.8043 80.127 22.257C80.4163 22.705 80.5633 23.1927 80.568 23.72H79.035C78.9977 23.2907 78.8717 22.95 78.657 22.698C78.4423 22.446 78.1717 22.2663 77.845 22.159C77.523 22.047 77.1683 21.991 76.781 21.991C76.501 21.991 76.2327 22.026 75.976 22.096C75.7193 22.166 75.493 22.2687 75.297 22.404C75.101 22.5393 74.9447 22.7073 74.828 22.908C74.716 23.104 74.66 23.3303 74.66 23.587C74.66 23.9323 74.7767 24.2123 75.01 24.427C75.2433 24.6417 75.6727 24.826 76.298 24.98L78.174 25.407C78.7107 25.519 79.1447 25.6847 79.476 25.904C79.8073 26.1187 80.0617 26.3637 80.239 26.639C80.4163 26.9143 80.5377 27.2013 80.603 27.5C80.6683 27.794 80.701 28.0763 80.701 28.347C80.701 28.8697 80.5447 29.3433 80.232 29.768C79.9193 30.188 79.4737 30.5217 78.895 30.769C78.3163 31.0163 77.6233 31.14 76.816 31.14ZM82.7419 31V20.878H89.2799L89.2729 22.18H84.2469V25.253H88.7339V26.534H84.2399V29.677L89.3989 29.684V31H82.7419ZM95.2799 20.738C96.0079 20.738 96.6543 20.8873 97.2189 21.186C97.7836 21.4847 98.2363 21.886 98.5769 22.39C98.9223 22.894 99.1276 23.4517 99.1929 24.063H97.5969C97.5269 23.6803 97.3916 23.335 97.1909 23.027C96.9949 22.7143 96.7336 22.4693 96.4069 22.292C96.0803 22.11 95.6929 22.019 95.2449 22.019C94.6709 22.019 94.1833 22.1543 93.7819 22.425C93.3806 22.6957 93.0749 23.118 92.8649 23.692C92.6596 24.266 92.5569 25.0057 92.5569 25.911C92.5569 27.2783 92.7879 28.2793 93.2499 28.914C93.7119 29.544 94.3769 29.859 95.2449 29.859C95.6929 29.859 96.0803 29.7633 96.4069 29.572C96.7336 29.376 96.9949 29.117 97.1909 28.795C97.3916 28.4683 97.5269 28.1137 97.5969 27.731H99.1929C99.1369 28.1743 99.0203 28.6013 98.8429 29.012C98.6656 29.418 98.4183 29.782 98.1009 30.104C97.7883 30.426 97.3986 30.6803 96.9319 30.867C96.4653 31.049 95.9146 31.14 95.2799 31.14C94.3653 31.14 93.5813 30.93 92.9279 30.51C92.2746 30.0853 91.7729 29.4833 91.4229 28.704C91.0776 27.92 90.9049 26.982 90.9049 25.89C90.9049 24.8027 91.0776 23.8763 91.4229 23.111C91.7683 22.341 92.2676 21.753 92.9209 21.347C93.5743 20.941 94.3606 20.738 95.2799 20.738ZM108.794 27.402C108.794 28.1907 108.663 28.865 108.402 29.425C108.141 29.9803 107.73 30.405 107.17 30.699C106.615 30.993 105.889 31.14 104.993 31.14C104.088 31.14 103.355 30.9907 102.795 30.692C102.24 30.3933 101.834 29.957 101.577 29.383C101.325 28.809 101.199 28.109 101.199 27.283V20.878H102.746V27.472C102.746 28.2747 102.942 28.872 103.334 29.264C103.731 29.6513 104.284 29.845 104.993 29.845C105.464 29.845 105.87 29.761 106.211 29.593C106.556 29.4203 106.82 29.159 107.002 28.809C107.184 28.4543 107.275 28.0087 107.275 27.472V20.878H108.794V27.402ZM118.503 31H116.928L115.136 26.765H112.595V31H111.097V20.878H115.115C115.867 20.878 116.49 20.9947 116.984 21.228C117.479 21.4567 117.848 21.7833 118.09 22.208C118.333 22.6327 118.454 23.1343 118.454 23.713C118.454 24.259 118.361 24.714 118.174 25.078C117.992 25.442 117.754 25.7383 117.46 25.967C117.171 26.1957 116.865 26.3753 116.543 26.506L118.503 31ZM114.709 25.554C115.414 25.554 115.96 25.4023 116.347 25.099C116.735 24.791 116.928 24.3523 116.928 23.783C116.928 23.223 116.751 22.7983 116.396 22.509C116.046 22.2197 115.57 22.075 114.968 22.075H112.595V25.554H114.709ZM120.64 31V20.878H127.178L127.171 22.18H122.145V25.253H126.632V26.534H122.138V29.677L127.297 29.684V31H120.64ZM132.535 31V20.878H136.042C136.765 20.878 137.412 21.0017 137.981 21.249C138.555 21.4963 139.005 21.8603 139.332 22.341C139.663 22.8217 139.829 23.412 139.829 24.112C139.829 24.784 139.677 25.358 139.374 25.834C139.075 26.3053 138.655 26.667 138.114 26.919C137.577 27.1663 136.954 27.29 136.245 27.29H134.061V31H132.535ZM134.054 26.065H136.203C136.847 26.065 137.372 25.8807 137.778 25.512C138.184 25.1387 138.387 24.644 138.387 24.028C138.387 23.4027 138.177 22.9243 137.757 22.593C137.337 22.257 136.8 22.089 136.147 22.089H134.054V26.065ZM139.886 31L143.54 20.878H145.192L148.839 31H147.327L146.375 28.347H142.378L141.405 31H139.886ZM142.735 26.989H145.99L144.373 22.348L142.735 26.989ZM156.85 20.878L153.399 26.709V31H151.901V26.702L148.429 20.878H150.067L152.657 25.379L155.212 20.878H156.85ZM158.279 31V20.878H160.393L163.242 28.928L166.133 20.878H168.233V31H166.7V22.936L163.9 31H162.591L159.805 22.999V31H158.279ZM170.789 31V20.878H177.327L177.32 22.18H172.294V25.253H176.781V26.534H172.287V29.677L177.446 29.684V31H170.789ZM186.277 20.878H187.782V31H186.438L181.174 23.293V31H179.676V20.878H181.125L186.277 28.424V20.878ZM189.367 22.243V20.878H197.144V22.243H194.085V31H192.573V22.243H189.367Z" fill="#191C1F"/>
<path d="M80.337 44.878L76.907 50.695V55H75.619V50.688L72.168 44.878H73.582L76.27 49.533L78.916 44.878H80.337ZM83.5769 55.14C82.9096 55.14 82.3262 54.9977 81.8269 54.713C81.3276 54.4237 80.9402 54.0013 80.6649 53.446C80.3896 52.8907 80.2519 52.2117 80.2519 51.409C80.2519 50.653 80.3802 49.9903 80.6369 49.421C80.8936 48.8517 81.2692 48.4107 81.7639 48.098C82.2632 47.7807 82.8676 47.622 83.5769 47.622C84.2442 47.622 84.8229 47.769 85.3129 48.063C85.8076 48.3523 86.1902 48.7793 86.4609 49.344C86.7316 49.9087 86.8669 50.597 86.8669 51.409C86.8669 52.1463 86.7409 52.795 86.4889 53.355C86.2416 53.915 85.8729 54.3537 85.3829 54.671C84.8976 54.9837 84.2956 55.14 83.5769 55.14ZM83.5769 54.118C84.0109 54.118 84.3772 54.0083 84.6759 53.789C84.9746 53.5697 85.2009 53.2547 85.3549 52.844C85.5089 52.4333 85.5859 51.9457 85.5859 51.381C85.5859 50.863 85.5182 50.3987 85.3829 49.988C85.2476 49.5727 85.0306 49.2437 84.7319 49.001C84.4379 48.7583 84.0529 48.637 83.5769 48.637C83.1382 48.637 82.7672 48.7467 82.4639 48.966C82.1606 49.1807 81.9296 49.4933 81.7709 49.904C81.6169 50.3147 81.5399 50.807 81.5399 51.381C81.5399 51.8897 81.6099 52.3517 81.7499 52.767C81.8899 53.1823 82.1092 53.5113 82.4079 53.754C82.7066 53.9967 83.0962 54.118 83.5769 54.118ZM91.1119 55.14C90.7339 55.1353 90.3769 55.0817 90.0409 54.979C89.7095 54.8717 89.4155 54.7153 89.1589 54.51C88.9022 54.3047 88.6992 54.0503 88.5499 53.747C88.4052 53.439 88.3329 53.082 88.3329 52.676V47.762H89.6279V52.543C89.6279 53.0143 89.7725 53.397 90.0619 53.691C90.3559 53.985 90.7969 54.132 91.3849 54.132C91.9169 54.132 92.3439 53.9943 92.6659 53.719C92.9925 53.439 93.1559 53.0237 93.1559 52.473V47.762H94.4439V55H93.4149L93.2819 53.614C93.1932 53.978 93.0415 54.272 92.8269 54.496C92.6169 54.72 92.3625 54.8857 92.0639 54.993C91.7699 55.0957 91.4525 55.1447 91.1119 55.14ZM96.5456 55V47.762H97.7776V49.155C97.8989 48.8097 98.0693 48.525 98.2886 48.301C98.5079 48.0723 98.7576 47.902 99.0376 47.79C99.3223 47.678 99.6163 47.622 99.9196 47.622C100.027 47.622 100.132 47.629 100.235 47.643C100.337 47.657 100.417 47.6803 100.473 47.713V48.966C100.403 48.9333 100.312 48.9123 100.2 48.903C100.092 48.889 100.001 48.882 99.9266 48.882C99.6373 48.8633 99.3666 48.882 99.1146 48.938C98.8626 48.9893 98.6409 49.0803 98.4496 49.211C98.2583 49.3417 98.1066 49.5143 97.9946 49.729C97.8873 49.939 97.8336 50.1957 97.8336 50.499V55H96.5456ZM105.2 55V47.762H106.446V48.812C106.647 48.4947 106.922 48.217 107.272 47.979C107.622 47.741 108.077 47.622 108.637 47.622C108.898 47.622 109.164 47.6663 109.435 47.755C109.71 47.8437 109.962 47.9767 110.191 48.154C110.42 48.3313 110.597 48.5483 110.723 48.805C110.947 48.4503 111.25 48.1657 111.633 47.951C112.016 47.7317 112.447 47.622 112.928 47.622C113.18 47.622 113.444 47.6617 113.719 47.741C113.994 47.8157 114.249 47.951 114.482 48.147C114.72 48.3383 114.914 48.6067 115.063 48.952C115.212 49.2927 115.287 49.7313 115.287 50.268V55H113.985V50.394C113.985 49.9553 113.915 49.617 113.775 49.379C113.635 49.1363 113.451 48.966 113.222 48.868C112.998 48.77 112.758 48.721 112.501 48.721C112.277 48.721 112.039 48.7653 111.787 48.854C111.535 48.9427 111.32 49.092 111.143 49.302C110.966 49.512 110.877 49.799 110.877 50.163V55H109.589V50.016C109.589 49.7313 109.512 49.4933 109.358 49.302C109.209 49.1107 109.02 48.966 108.791 48.868C108.567 48.77 108.343 48.721 108.119 48.721C107.872 48.721 107.622 48.77 107.37 48.868C107.123 48.966 106.913 49.1223 106.74 49.337C106.572 49.547 106.488 49.8223 106.488 50.163V55H105.2ZM120.19 55.14C119.523 55.14 118.94 54.9977 118.44 54.713C117.941 54.4237 117.554 54.0013 117.278 53.446C117.003 52.8907 116.865 52.2117 116.865 51.409C116.865 50.653 116.994 49.9903 117.25 49.421C117.507 48.8517 117.883 48.4107 118.377 48.098C118.877 47.7807 119.481 47.622 120.19 47.622C120.858 47.622 121.436 47.769 121.926 48.063C122.421 48.3523 122.804 48.7793 123.074 49.344C123.345 49.9087 123.48 50.597 123.48 51.409C123.48 52.1463 123.354 52.795 123.102 53.355C122.855 53.915 122.486 54.3537 121.996 54.671C121.511 54.9837 120.909 55.14 120.19 55.14ZM120.19 54.118C120.624 54.118 120.991 54.0083 121.289 53.789C121.588 53.5697 121.814 53.2547 121.968 52.844C122.122 52.4333 122.199 51.9457 122.199 51.381C122.199 50.863 122.132 50.3987 121.996 49.988C121.861 49.5727 121.644 49.2437 121.345 49.001C121.051 48.7583 120.666 48.637 120.19 48.637C119.752 48.637 119.381 48.7467 119.077 48.966C118.774 49.1807 118.543 49.4933 118.384 49.904C118.23 50.3147 118.153 50.807 118.153 51.381C118.153 51.8897 118.223 52.3517 118.363 52.767C118.503 53.1823 118.723 53.5113 119.021 53.754C119.32 53.9967 119.71 54.118 120.19 54.118ZM125.175 55V47.762H126.428V48.812C126.544 48.6113 126.705 48.4223 126.911 48.245C127.121 48.0677 127.373 47.9253 127.667 47.818C127.965 47.7107 128.308 47.657 128.696 47.657C129.153 47.657 129.573 47.748 129.956 47.93C130.343 48.112 130.651 48.3967 130.88 48.784C131.113 49.1667 131.23 49.6613 131.23 50.268V55H129.935V50.394C129.935 49.8293 129.785 49.4117 129.487 49.141C129.193 48.8657 128.81 48.728 128.339 48.728C128.012 48.728 127.706 48.7817 127.422 48.889C127.137 48.9917 126.906 49.1503 126.729 49.365C126.551 49.575 126.463 49.841 126.463 50.163V55H125.175ZM134.179 51.682C134.179 52.1393 134.253 52.5547 134.403 52.928C134.557 53.2967 134.788 53.5907 135.096 53.81C135.408 54.0293 135.798 54.139 136.265 54.139C136.727 54.139 137.123 54.0317 137.455 53.817C137.791 53.6023 138.005 53.292 138.099 52.886H139.324C139.235 53.376 139.039 53.789 138.736 54.125C138.432 54.461 138.066 54.7153 137.637 54.888C137.207 55.056 136.759 55.14 136.293 55.14C135.616 55.14 135.021 54.993 134.508 54.699C133.994 54.405 133.593 53.9827 133.304 53.432C133.014 52.8813 132.87 52.221 132.87 51.451C132.87 50.6903 133 50.023 133.262 49.449C133.523 48.875 133.901 48.427 134.396 48.105C134.895 47.783 135.495 47.622 136.195 47.622C136.876 47.622 137.452 47.769 137.924 48.063C138.395 48.357 138.752 48.7723 138.995 49.309C139.242 49.841 139.366 50.4733 139.366 51.206V51.682H134.179ZM134.186 50.807H138.12C138.12 50.3917 138.05 50.0183 137.91 49.687C137.77 49.351 137.555 49.0873 137.266 48.896C136.981 48.7 136.622 48.602 136.188 48.602C135.735 48.602 135.359 48.7117 135.061 48.931C134.767 49.1457 134.545 49.4233 134.396 49.764C134.251 50.1 134.181 50.4477 134.186 50.807ZM141.598 57.31C141.173 57.31 140.881 57.2797 140.723 57.219C140.564 57.1583 140.485 57.128 140.485 57.128V56.288L141.22 56.302C141.49 56.3113 141.714 56.2927 141.892 56.246C142.069 56.1993 142.211 56.1363 142.319 56.057C142.426 55.9777 142.508 55.889 142.564 55.791C142.624 55.693 142.673 55.5997 142.711 55.511L142.963 54.825L140.135 47.762H141.444L143.579 53.348L145.7 47.762H146.967L143.915 55.546C143.728 56.0033 143.518 56.3603 143.285 56.617C143.056 56.8737 142.799 57.0533 142.515 57.156C142.235 57.2587 141.929 57.31 141.598 57.31ZM152.92 47.762V55H151.667V47.762H152.92ZM152.948 44.885V46.229H151.625V44.885H152.948ZM157.767 55.14C157.263 55.14 156.794 55.063 156.36 54.909C155.931 54.7503 155.574 54.5053 155.289 54.174C155.004 53.838 154.825 53.411 154.75 52.893H155.926C155.991 53.1777 156.108 53.4157 156.276 53.607C156.449 53.7937 156.663 53.936 156.92 54.034C157.177 54.1273 157.457 54.174 157.76 54.174C158.245 54.174 158.637 54.083 158.936 53.901C159.235 53.719 159.384 53.439 159.384 53.061C159.384 52.795 159.305 52.5827 159.146 52.424C158.992 52.2607 158.752 52.1417 158.425 52.067L156.927 51.696C156.344 51.556 155.877 51.3367 155.527 51.038C155.177 50.7393 155.002 50.3217 155.002 49.785C154.997 49.3603 155.098 48.987 155.303 48.665C155.508 48.343 155.816 48.0887 156.227 47.902C156.638 47.7153 157.149 47.622 157.76 47.622C158.544 47.622 159.176 47.7993 159.657 48.154C160.142 48.504 160.394 49.0197 160.413 49.701H159.272C159.225 49.3557 159.069 49.0827 158.803 48.882C158.542 48.6767 158.189 48.574 157.746 48.574C157.284 48.574 156.908 48.6673 156.619 48.854C156.33 49.036 156.185 49.3207 156.185 49.708C156.185 49.9647 156.288 50.1677 156.493 50.317C156.698 50.4617 157.002 50.583 157.403 50.681L158.852 51.045C159.188 51.1337 159.463 51.2503 159.678 51.395C159.897 51.5397 160.07 51.7007 160.196 51.878C160.327 52.0553 160.418 52.242 160.469 52.438C160.525 52.6293 160.553 52.8137 160.553 52.991C160.553 53.4343 160.441 53.817 160.217 54.139C159.998 54.4563 159.68 54.7037 159.265 54.881C158.854 55.0537 158.355 55.14 157.767 55.14ZM168.103 55.14C167.599 55.14 167.13 55.063 166.696 54.909C166.267 54.7503 165.91 54.5053 165.625 54.174C165.34 53.838 165.161 53.411 165.086 52.893H166.262C166.327 53.1777 166.444 53.4157 166.612 53.607C166.785 53.7937 166.999 53.936 167.256 54.034C167.513 54.1273 167.793 54.174 168.096 54.174C168.581 54.174 168.973 54.083 169.272 53.901C169.571 53.719 169.72 53.439 169.72 53.061C169.72 52.795 169.641 52.5827 169.482 52.424C169.328 52.2607 169.088 52.1417 168.761 52.067L167.263 51.696C166.68 51.556 166.213 51.3367 165.863 51.038C165.513 50.7393 165.338 50.3217 165.338 49.785C165.333 49.3603 165.434 48.987 165.639 48.665C165.844 48.343 166.152 48.0887 166.563 47.902C166.974 47.7153 167.485 47.622 168.096 47.622C168.88 47.622 169.512 47.7993 169.993 48.154C170.478 48.504 170.73 49.0197 170.749 49.701H169.608C169.561 49.3557 169.405 49.0827 169.139 48.882C168.878 48.6767 168.525 48.574 168.082 48.574C167.62 48.574 167.244 48.6673 166.955 48.854C166.666 49.036 166.521 49.3207 166.521 49.708C166.521 49.9647 166.624 50.1677 166.829 50.317C167.034 50.4617 167.338 50.583 167.739 50.681L169.188 51.045C169.524 51.1337 169.799 51.2503 170.014 51.395C170.233 51.5397 170.406 51.7007 170.532 51.878C170.663 52.0553 170.754 52.242 170.805 52.438C170.861 52.6293 170.889 52.8137 170.889 52.991C170.889 53.4343 170.777 53.817 170.553 54.139C170.334 54.4563 170.016 54.7037 169.601 54.881C169.19 55.0537 168.691 55.14 168.103 55.14ZM174.727 55.14C174.261 55.14 173.848 55.0583 173.488 54.895C173.129 54.727 172.847 54.4867 172.641 54.174C172.441 53.8613 172.34 53.4833 172.34 53.04C172.34 52.2373 172.62 51.64 173.18 51.248C173.74 50.856 174.639 50.646 175.875 50.618L177.17 50.583V50.016C177.17 49.5727 177.037 49.2227 176.771 48.966C176.505 48.7047 176.092 48.574 175.532 48.574C175.117 48.5787 174.751 48.6767 174.433 48.868C174.121 49.0593 173.918 49.372 173.824 49.806H172.683C172.711 49.3347 172.844 48.938 173.082 48.616C173.32 48.2893 173.652 48.042 174.076 47.874C174.506 47.706 175.012 47.622 175.595 47.622C176.225 47.622 176.748 47.7107 177.163 47.888C177.583 48.0653 177.896 48.3267 178.101 48.672C178.311 49.0173 178.416 49.442 178.416 49.946V55H177.31L177.219 53.642C176.939 54.2067 176.582 54.5987 176.148 54.818C175.719 55.0327 175.245 55.14 174.727 55.14ZM175.119 54.209C175.362 54.209 175.602 54.1647 175.84 54.076C176.083 53.9873 176.305 53.8683 176.505 53.719C176.706 53.565 176.865 53.3947 176.981 53.208C177.103 53.0167 177.166 52.8207 177.17 52.62V51.381L176.092 51.402C175.542 51.4113 175.08 51.4673 174.706 51.57C174.338 51.6727 174.06 51.8337 173.873 52.053C173.691 52.2723 173.6 52.5593 173.6 52.914C173.6 53.32 173.74 53.6373 174.02 53.866C174.305 54.0947 174.671 54.209 175.119 54.209ZM184.579 47.762V48.707H182.822V55H181.52V48.707H179.994V47.762H181.52V46.642C181.52 46.068 181.667 45.6317 181.961 45.333C182.255 45.0297 182.694 44.878 183.277 44.878H184.642L184.649 45.795H183.564C183.27 45.795 183.069 45.8743 182.962 46.033C182.855 46.1917 182.801 46.432 182.801 46.754V47.762H184.579ZM187.02 51.682C187.02 52.1393 187.095 52.5547 187.244 52.928C187.398 53.2967 187.629 53.5907 187.937 53.81C188.25 54.0293 188.64 54.139 189.106 54.139C189.568 54.139 189.965 54.0317 190.296 53.817C190.632 53.6023 190.847 53.292 190.94 52.886H192.165C192.077 53.376 191.881 53.789 191.577 54.125C191.274 54.461 190.908 54.7153 190.478 54.888C190.049 55.056 189.601 55.14 189.134 55.14C188.458 55.14 187.863 54.993 187.349 54.699C186.836 54.405 186.435 53.9827 186.145 53.432C185.856 52.8813 185.711 52.221 185.711 51.451C185.711 50.6903 185.842 50.023 186.103 49.449C186.365 48.875 186.743 48.427 187.237 48.105C187.737 47.783 188.336 47.622 189.036 47.622C189.718 47.622 190.294 47.769 190.765 48.063C191.237 48.357 191.594 48.7723 191.836 49.309C192.084 49.841 192.207 50.4733 192.207 51.206V51.682H187.02ZM187.027 50.807H190.961C190.961 50.3917 190.891 50.0183 190.751 49.687C190.611 49.351 190.397 49.0873 190.107 48.896C189.823 48.7 189.463 48.602 189.029 48.602C188.577 48.602 188.201 48.7117 187.902 48.931C187.608 49.1457 187.387 49.4233 187.237 49.764C187.093 50.1 187.023 50.4477 187.027 50.807Z" fill="#5F6C72"/>
</svg>
