<svg width="312" height="264" viewBox="0 0 312 264" fill="none" xmlns="http://www.w3.org/2000/svg">
<rect width="312" height="264" rx="4" fill="#124261"/>
<rect x="87.5" y="40" width="137" height="32" rx="2" fill="white" fill-opacity="0.12"/>
<path d="M104.365 61.14C103.875 61.14 103.397 61.0793 102.93 60.958C102.463 60.832 102.039 60.6477 101.656 60.405C101.278 60.1577 100.963 59.852 100.711 59.488C100.459 59.1193 100.305 58.69 100.249 58.2H102.013C102.088 58.5407 102.235 58.8277 102.454 59.061C102.673 59.2943 102.946 59.4717 103.273 59.593C103.604 59.7143 103.966 59.775 104.358 59.775C104.778 59.775 105.156 59.719 105.492 59.607C105.833 59.495 106.101 59.3317 106.297 59.117C106.498 58.9023 106.598 58.6387 106.598 58.326C106.598 58.0507 106.526 57.8173 106.381 57.626C106.236 57.4347 106.033 57.2783 105.772 57.157C105.515 57.031 105.214 56.9307 104.869 56.856L103.007 56.45C102.256 56.296 101.661 55.9973 101.222 55.554C100.783 55.1107 100.559 54.5203 100.55 53.783C100.545 53.1717 100.706 52.6397 101.033 52.187C101.364 51.7297 101.815 51.3773 102.384 51.13C102.953 50.878 103.597 50.752 104.316 50.752C105.156 50.752 105.863 50.8897 106.437 51.165C107.016 51.4357 107.452 51.7997 107.746 52.257C108.045 52.7143 108.196 53.216 108.201 53.762H106.479C106.437 53.3607 106.316 53.041 106.115 52.803C105.919 52.565 105.667 52.3947 105.359 52.292C105.051 52.1893 104.71 52.138 104.337 52.138C104.057 52.138 103.796 52.1707 103.553 52.236C103.31 52.3013 103.098 52.397 102.916 52.523C102.734 52.649 102.592 52.803 102.489 52.985C102.391 53.1623 102.342 53.3653 102.342 53.594C102.342 53.9207 102.449 54.1867 102.664 54.392C102.883 54.5927 103.292 54.763 103.889 54.903L105.709 55.309C106.274 55.421 106.729 55.589 107.074 55.813C107.419 56.037 107.683 56.2937 107.865 56.583C108.047 56.8677 108.168 57.1593 108.229 57.458C108.29 57.7567 108.32 58.0413 108.32 58.312C108.32 58.8393 108.157 59.3177 107.83 59.747C107.508 60.1763 107.051 60.517 106.458 60.769C105.87 61.0163 105.172 61.14 104.365 61.14ZM118.093 57.304C118.093 58.1067 117.962 58.795 117.701 59.369C117.44 59.9383 117.022 60.377 116.448 60.685C115.879 60.9883 115.127 61.14 114.194 61.14C113.261 61.14 112.507 60.986 111.933 60.678C111.364 60.3653 110.951 59.9173 110.694 59.334C110.437 58.746 110.309 58.0367 110.309 57.206V50.878H112.052V57.381C112.052 58.165 112.243 58.7437 112.626 59.117C113.013 59.4903 113.536 59.677 114.194 59.677C114.637 59.677 115.022 59.5953 115.349 59.432C115.676 59.2687 115.928 59.019 116.105 58.683C116.282 58.3423 116.371 57.9083 116.371 57.381V50.878H118.093V57.304ZM120.303 61V50.878H122.739L125.392 58.613L128.073 50.878H130.495V61H128.766V53.062L126.099 61H124.678L122.032 53.111V61H120.303ZM132.95 61V50.878H135.386L138.039 58.613L140.72 50.878H143.142V61H141.413V53.062L138.746 61H137.325L134.679 53.111V61H132.95ZM145.596 61V50.878H152.288L152.281 52.341H147.311V55.176H151.7V56.618H147.297V59.516L152.386 59.523V61H145.596ZM162.098 61H160.32L158.577 56.891H156.225V61H154.524V50.878H158.633C159.407 50.878 160.044 50.9993 160.544 51.242C161.048 51.48 161.421 51.8183 161.664 52.257C161.906 52.691 162.028 53.1997 162.028 53.783C162.028 54.3243 161.939 54.7793 161.762 55.148C161.584 55.512 161.353 55.8107 161.069 56.044C160.789 56.2727 160.488 56.4593 160.166 56.604L162.098 61ZM158.248 55.54C158.892 55.54 159.393 55.3907 159.753 55.092C160.117 54.7933 160.299 54.378 160.299 53.846C160.299 53.3233 160.131 52.9197 159.795 52.635C159.459 52.3503 159.015 52.208 158.465 52.208H156.225V55.54H158.248ZM170.865 61.14C170.375 61.14 169.897 61.0793 169.43 60.958C168.963 60.832 168.539 60.6477 168.156 60.405C167.778 60.1577 167.463 59.852 167.211 59.488C166.959 59.1193 166.805 58.69 166.749 58.2H168.513C168.588 58.5407 168.735 58.8277 168.954 59.061C169.173 59.2943 169.446 59.4717 169.773 59.593C170.104 59.7143 170.466 59.775 170.858 59.775C171.278 59.775 171.656 59.719 171.992 59.607C172.333 59.495 172.601 59.3317 172.797 59.117C172.998 58.9023 173.098 58.6387 173.098 58.326C173.098 58.0507 173.026 57.8173 172.881 57.626C172.736 57.4347 172.533 57.2783 172.272 57.157C172.015 57.031 171.714 56.9307 171.369 56.856L169.507 56.45C168.756 56.296 168.161 55.9973 167.722 55.554C167.283 55.1107 167.059 54.5203 167.05 53.783C167.045 53.1717 167.206 52.6397 167.533 52.187C167.864 51.7297 168.315 51.3773 168.884 51.13C169.453 50.878 170.097 50.752 170.816 50.752C171.656 50.752 172.363 50.8897 172.937 51.165C173.516 51.4357 173.952 51.7997 174.246 52.257C174.545 52.7143 174.696 53.216 174.701 53.762H172.979C172.937 53.3607 172.816 53.041 172.615 52.803C172.419 52.565 172.167 52.3947 171.859 52.292C171.551 52.1893 171.21 52.138 170.837 52.138C170.557 52.138 170.296 52.1707 170.053 52.236C169.81 52.3013 169.598 52.397 169.416 52.523C169.234 52.649 169.092 52.803 168.989 52.985C168.891 53.1623 168.842 53.3653 168.842 53.594C168.842 53.9207 168.949 54.1867 169.164 54.392C169.383 54.5927 169.792 54.763 170.389 54.903L172.209 55.309C172.774 55.421 173.229 55.589 173.574 55.813C173.919 56.037 174.183 56.2937 174.365 56.583C174.547 56.8677 174.668 57.1593 174.729 57.458C174.79 57.7567 174.82 58.0413 174.82 58.312C174.82 58.8393 174.657 59.3177 174.33 59.747C174.008 60.1763 173.551 60.517 172.958 60.769C172.37 61.0163 171.672 61.14 170.865 61.14ZM175.855 61L179.495 50.878H181.336L184.969 61H183.261L182.358 58.459H178.494L177.57 61H175.855ZM178.886 56.947H181.938L180.419 52.537L178.886 56.947ZM186.673 50.878H188.395V59.53H192.966V61H186.666L186.673 50.878ZM194.746 61V50.878H201.438L201.431 52.341H196.461V55.176H200.85V56.618H196.447V59.516L201.536 59.523V61H194.746ZM207.26 61.14C206.77 61.14 206.291 61.0793 205.825 60.958C205.358 60.832 204.933 60.6477 204.551 60.405C204.173 60.1577 203.858 59.852 203.606 59.488C203.354 59.1193 203.2 58.69 203.144 58.2H204.908C204.982 58.5407 205.129 58.8277 205.349 59.061C205.568 59.2943 205.841 59.4717 206.168 59.593C206.499 59.7143 206.861 59.775 207.253 59.775C207.673 59.775 208.051 59.719 208.387 59.607C208.727 59.495 208.996 59.3317 209.192 59.117C209.392 58.9023 209.493 58.6387 209.493 58.326C209.493 58.0507 209.42 57.8173 209.276 57.626C209.131 57.4347 208.928 57.2783 208.667 57.157C208.41 57.031 208.109 56.9307 207.764 56.856L205.902 56.45C205.15 56.296 204.555 55.9973 204.117 55.554C203.678 55.1107 203.454 54.5203 203.445 53.783C203.44 53.1717 203.601 52.6397 203.928 52.187C204.259 51.7297 204.709 51.3773 205.279 51.13C205.848 50.878 206.492 50.752 207.211 50.752C208.051 50.752 208.758 50.8897 209.332 51.165C209.91 51.4357 210.347 51.7997 210.641 52.257C210.939 52.7143 211.091 53.216 211.096 53.762H209.374C209.332 53.3607 209.21 53.041 209.01 52.803C208.814 52.565 208.562 52.3947 208.254 52.292C207.946 52.1893 207.605 52.138 207.232 52.138C206.952 52.138 206.69 52.1707 206.448 52.236C206.205 52.3013 205.993 52.397 205.811 52.523C205.629 52.649 205.486 52.803 205.384 52.985C205.286 53.1623 205.237 53.3653 205.237 53.594C205.237 53.9207 205.344 54.1867 205.559 54.392C205.778 54.5927 206.186 54.763 206.784 54.903L208.604 55.309C209.168 55.421 209.623 55.589 209.969 55.813C210.314 56.037 210.578 56.2937 210.76 56.583C210.942 56.8677 211.063 57.1593 211.124 57.458C211.184 57.7567 211.215 58.0413 211.215 58.312C211.215 58.8393 211.051 59.3177 210.725 59.747C210.403 60.1763 209.945 60.517 209.353 60.769C208.765 61.0163 208.067 61.14 207.26 61.14Z" fill="white"/>
<path d="M51.0481 95.832C51.0481 94.4507 51.3795 93.2887 52.0421 92.346C52.7048 91.394 53.5915 90.68 54.7021 90.204C55.8221 89.7187 57.0635 89.476 58.4261 89.476C59.8915 89.476 61.1888 89.6767 62.3181 90.078C63.4568 90.47 64.3481 91.0627 64.9921 91.856C65.6455 92.6493 65.9721 93.634 65.9721 94.81C65.9721 95.8087 65.6688 96.7 65.0621 97.484C64.4555 98.268 63.4988 98.884 62.1921 99.332C63.0041 99.556 63.7321 99.892 64.3761 100.34C65.0201 100.779 65.5288 101.329 65.9021 101.992C66.2848 102.655 66.4761 103.434 66.4761 104.33C66.4761 105.291 66.2661 106.145 65.8461 106.892C65.4355 107.639 64.8568 108.269 64.1101 108.782C63.3728 109.286 62.5095 109.669 61.5201 109.93C60.5308 110.182 59.4668 110.308 58.3281 110.308C56.8068 110.299 55.4955 110.037 54.3941 109.524C53.2928 109.011 52.4341 108.278 51.8181 107.326C51.2115 106.374 50.8941 105.245 50.8661 103.938H54.1841C54.3801 105.142 54.8561 106.038 55.6121 106.626C56.3775 107.205 57.3061 107.494 58.3981 107.494C59.3035 107.494 60.0875 107.359 60.7501 107.088C61.4128 106.808 61.9215 106.425 62.2761 105.94C62.6401 105.455 62.8221 104.89 62.8221 104.246C62.8221 103.565 62.6261 102.981 62.2341 102.496C61.8515 102.011 61.3241 101.637 60.6521 101.376C59.9801 101.115 59.2241 100.975 58.3841 100.956L56.5081 100.9V98.128L58.2441 98.058C59.0468 98.03 59.7515 97.876 60.3581 97.596C60.9741 97.316 61.4548 96.9473 61.8001 96.49C62.1455 96.0327 62.3181 95.5193 62.3181 94.95C62.3181 94.4273 62.1548 93.956 61.8281 93.536C61.5108 93.116 61.0581 92.7893 60.4701 92.556C59.8821 92.3133 59.1868 92.192 58.3841 92.192C57.7028 92.192 57.0635 92.3133 56.4661 92.556C55.8688 92.7987 55.3741 93.1907 54.9821 93.732C54.5995 94.264 54.3895 94.964 54.3521 95.832H51.0481ZM68.5429 89.756H83.2569V92.598C82.5755 93.4847 81.8989 94.5113 81.2269 95.678C80.5549 96.8353 79.9109 98.0627 79.2949 99.36C78.6789 100.648 78.1282 101.941 77.6429 103.238C77.1575 104.526 76.7609 105.753 76.4529 106.92C76.1449 108.087 75.9582 109.113 75.8929 110H72.2109C72.3229 109.132 72.5469 108.049 72.8829 106.752C73.2282 105.445 73.6995 104.008 74.2969 102.44C74.8942 100.863 75.6362 99.234 76.5229 97.554C77.4095 95.874 78.4455 94.222 79.6309 92.598H68.5429V89.756ZM90.8661 89.448C91.7994 89.448 92.6394 89.7 93.3861 90.204C94.1328 90.6987 94.7208 91.38 95.1501 92.248C95.5794 93.116 95.7941 94.1147 95.7941 95.244C95.7941 96.364 95.5794 97.3533 95.1501 98.212C94.7301 99.0707 94.1468 99.7473 93.4001 100.242C92.6534 100.727 91.8088 100.97 90.8661 100.97C89.9141 100.97 89.0601 100.727 88.3041 100.242C87.5574 99.7473 86.9648 99.0707 86.5261 98.212C86.0968 97.3533 85.8821 96.364 85.8821 95.244C85.8821 94.1147 86.1014 93.116 86.5401 92.248C86.9788 91.38 87.5714 90.6987 88.3181 90.204C89.0741 89.7 89.9234 89.448 90.8661 89.448ZM90.8381 99.164C91.6408 99.164 92.2428 98.814 92.6441 98.114C93.0454 97.4047 93.2461 96.448 93.2461 95.244C93.2461 94.012 93.0408 93.0367 92.6301 92.318C92.2288 91.59 91.6314 91.226 90.8381 91.226C90.3154 91.226 89.8721 91.394 89.5081 91.73C89.1534 92.0567 88.8828 92.5233 88.6961 93.13C88.5094 93.7273 88.4161 94.432 88.4161 95.244C88.4161 96.4387 88.6214 97.3907 89.0321 98.1C89.4428 98.8093 90.0448 99.164 90.8381 99.164ZM103.872 98.73C104.815 98.73 105.659 98.982 106.406 99.486C107.153 99.99 107.741 100.681 108.17 101.558C108.599 102.426 108.814 103.415 108.814 104.526C108.814 105.655 108.599 106.654 108.17 107.522C107.75 108.381 107.167 109.057 106.42 109.552C105.673 110.037 104.824 110.28 103.872 110.28C102.92 110.28 102.066 110.037 101.31 109.552C100.554 109.057 99.9614 108.381 99.5321 107.522C99.1028 106.654 98.8881 105.655 98.8881 104.526C98.8881 103.415 99.1028 102.426 99.5321 101.558C99.9708 100.681 100.568 99.99 101.324 99.486C102.08 98.982 102.929 98.73 103.872 98.73ZM103.844 108.46C104.367 108.46 104.805 108.297 105.16 107.97C105.524 107.643 105.795 107.191 105.972 106.612C106.159 106.024 106.252 105.338 106.252 104.554C106.252 103.751 106.159 103.051 105.972 102.454C105.785 101.847 105.51 101.376 105.146 101.04C104.791 100.704 104.357 100.536 103.844 100.536C103.331 100.536 102.897 100.709 102.542 101.054C102.187 101.39 101.912 101.861 101.716 102.468C101.529 103.065 101.436 103.761 101.436 104.554C101.436 105.338 101.529 106.024 101.716 106.612C101.903 107.191 102.173 107.643 102.528 107.97C102.883 108.297 103.321 108.46 103.844 108.46ZM105.034 89.532L91.4261 110.112L89.3121 110.084L102.976 89.532H105.034ZM118.966 89.756C119.05 89.756 119.297 89.756 119.708 89.756C120.118 89.756 120.604 89.756 121.164 89.756C121.733 89.756 122.307 89.7607 122.886 89.77C123.474 89.77 123.982 89.7747 124.412 89.784C126.876 89.8307 128.878 90.2553 130.418 91.058C131.967 91.8513 133.101 92.9853 133.82 94.46C134.548 95.9253 134.912 97.694 134.912 99.766C134.912 101.931 134.524 103.775 133.75 105.296C132.984 106.817 131.808 107.984 130.222 108.796C128.644 109.599 126.638 110 124.202 110H118.966V89.756ZM122.424 92.57V107.186H124.258C125.648 107.186 126.876 106.948 127.94 106.472C129.004 105.987 129.834 105.203 130.432 104.12C131.038 103.037 131.342 101.591 131.342 99.78C131.342 98.0253 131.062 96.6207 130.502 95.566C129.942 94.5113 129.139 93.7507 128.094 93.284C127.048 92.808 125.798 92.57 124.342 92.57H122.424ZM138.79 89.756H142.192V110H138.79V89.756ZM154.382 110.28C153.402 110.28 152.446 110.159 151.512 109.916C150.579 109.664 149.73 109.295 148.964 108.81C148.208 108.315 147.578 107.704 147.074 106.976C146.57 106.239 146.262 105.38 146.15 104.4H149.678C149.828 105.081 150.122 105.655 150.56 106.122C150.999 106.589 151.545 106.943 152.198 107.186C152.861 107.429 153.584 107.55 154.368 107.55C155.208 107.55 155.964 107.438 156.636 107.214C157.318 106.99 157.854 106.663 158.246 106.234C158.648 105.805 158.848 105.277 158.848 104.652C158.848 104.101 158.704 103.635 158.414 103.252C158.125 102.869 157.719 102.557 157.196 102.314C156.683 102.062 156.081 101.861 155.39 101.712L151.666 100.9C150.164 100.592 148.974 99.9947 148.096 99.108C147.219 98.2213 146.771 97.0407 146.752 95.566C146.743 94.3433 147.065 93.2793 147.718 92.374C148.381 91.4593 149.282 90.7547 150.42 90.26C151.559 89.756 152.847 89.504 154.284 89.504C155.964 89.504 157.378 89.7793 158.526 90.33C159.684 90.8713 160.556 91.5993 161.144 92.514C161.742 93.4287 162.045 94.432 162.054 95.524H158.61C158.526 94.7213 158.284 94.082 157.882 93.606C157.49 93.13 156.986 92.7893 156.37 92.584C155.754 92.3787 155.073 92.276 154.326 92.276C153.766 92.276 153.244 92.3413 152.758 92.472C152.273 92.6027 151.848 92.794 151.484 93.046C151.12 93.298 150.836 93.606 150.63 93.97C150.434 94.3247 150.336 94.7307 150.336 95.188C150.336 95.8413 150.551 96.3733 150.98 96.784C151.419 97.1853 152.236 97.526 153.43 97.806L157.07 98.618C158.2 98.842 159.11 99.178 159.8 99.626C160.491 100.074 161.018 100.587 161.382 101.166C161.746 101.735 161.989 102.319 162.11 102.916C162.232 103.513 162.292 104.083 162.292 104.624C162.292 105.679 161.966 106.635 161.312 107.494C160.668 108.353 159.754 109.034 158.568 109.538C157.392 110.033 155.997 110.28 154.382 110.28ZM173.906 89.476C175.39 89.476 176.706 89.7793 177.854 90.386C179.002 90.9833 179.926 91.7953 180.626 92.822C181.336 93.8487 181.756 94.992 181.886 96.252H178.288C178.148 95.5053 177.887 94.838 177.504 94.25C177.131 93.662 176.636 93.1953 176.02 92.85C175.404 92.5047 174.667 92.332 173.808 92.332C172.735 92.332 171.82 92.5887 171.064 93.102C170.318 93.606 169.744 94.4087 169.342 95.51C168.95 96.6113 168.754 98.0393 168.754 99.794C168.754 102.454 169.193 104.391 170.07 105.604C170.948 106.817 172.194 107.424 173.808 107.424C174.667 107.424 175.404 107.237 176.02 106.864C176.636 106.481 177.131 105.977 177.504 105.352C177.887 104.717 178.148 104.027 178.288 103.28H181.886C181.774 104.195 181.541 105.072 181.186 105.912C180.841 106.752 180.351 107.503 179.716 108.166C179.082 108.819 178.284 109.337 177.322 109.72C176.37 110.093 175.232 110.28 173.906 110.28C172.049 110.28 170.453 109.855 169.118 109.006C167.793 108.147 166.771 106.934 166.052 105.366C165.343 103.789 164.988 101.917 164.988 99.752C164.988 97.596 165.343 95.7527 166.052 94.222C166.762 92.6913 167.779 91.52 169.104 90.708C170.439 89.8867 172.04 89.476 173.906 89.476ZM193.803 110.28C191.936 110.28 190.322 109.869 188.959 109.048C187.606 108.227 186.556 107.041 185.809 105.492C185.072 103.943 184.703 102.085 184.703 99.92C184.703 97.736 185.076 95.8647 185.823 94.306C186.57 92.7473 187.624 91.5527 188.987 90.722C190.359 89.8913 191.964 89.476 193.803 89.476C195.642 89.476 197.233 89.8913 198.577 90.722C199.93 91.5527 200.976 92.7473 201.713 94.306C202.45 95.8647 202.819 97.736 202.819 99.92C202.819 102.085 202.455 103.943 201.727 105.492C200.999 107.032 199.958 108.217 198.605 109.048C197.252 109.869 195.651 110.28 193.803 110.28ZM193.803 107.424C194.904 107.424 195.852 107.167 196.645 106.654C197.438 106.131 198.045 105.324 198.465 104.232C198.894 103.131 199.109 101.707 199.109 99.962C199.109 98.1887 198.894 96.742 198.465 95.622C198.036 94.4927 197.424 93.662 196.631 93.13C195.838 92.598 194.895 92.332 193.803 92.332C192.702 92.332 191.75 92.6027 190.947 93.144C190.154 93.676 189.538 94.5067 189.099 95.636C188.66 96.756 188.441 98.198 188.441 99.962C188.441 101.707 188.66 103.131 189.099 104.232C189.538 105.324 190.154 106.131 190.947 106.654C191.75 107.167 192.702 107.424 193.803 107.424ZM221.924 102.608C221.924 104.213 221.663 105.59 221.14 106.738C220.618 107.877 219.782 108.754 218.634 109.37C217.496 109.977 215.993 110.28 214.126 110.28C212.26 110.28 210.752 109.972 209.604 109.356C208.466 108.731 207.64 107.835 207.126 106.668C206.613 105.492 206.356 104.073 206.356 102.412V89.756H209.842V102.762C209.842 104.33 210.225 105.487 210.99 106.234C211.765 106.981 212.81 107.354 214.126 107.354C215.013 107.354 215.783 107.191 216.436 106.864C217.09 106.537 217.594 106.038 217.948 105.366C218.303 104.685 218.48 103.817 218.48 102.762V89.756H221.924V102.608ZM239.589 89.756H242.991V110H239.925L229.747 95.146V110H226.345V89.756H229.677L239.589 104.218V89.756ZM246.029 92.822V89.756H261.821V92.822H255.745V110H252.329V92.822H246.029Z" fill="white"/>
<path d="M37.5106 147.18C36.6526 147.18 35.9026 146.997 35.2606 146.631C34.6186 146.259 34.1206 145.716 33.7666 145.002C33.4126 144.288 33.2356 143.415 33.2356 142.383C33.2356 141.411 33.4006 140.559 33.7306 139.827C34.0606 139.095 34.5436 138.528 35.1796 138.126C35.8216 137.718 36.5986 137.514 37.5106 137.514C38.3686 137.514 39.1126 137.703 39.7426 138.081C40.3786 138.453 40.8706 139.002 41.2186 139.728C41.5666 140.454 41.7406 141.339 41.7406 142.383C41.7406 143.331 41.5786 144.165 41.2546 144.885C40.9366 145.605 40.4626 146.169 39.8326 146.577C39.2086 146.979 38.4346 147.18 37.5106 147.18ZM37.5106 145.866C38.0686 145.866 38.5396 145.725 38.9236 145.443C39.3076 145.161 39.5986 144.756 39.7966 144.228C39.9946 143.7 40.0936 143.073 40.0936 142.347C40.0936 141.681 40.0066 141.084 39.8326 140.556C39.6586 140.022 39.3796 139.599 38.9956 139.287C38.6176 138.975 38.1226 138.819 37.5106 138.819C36.9466 138.819 36.4696 138.96 36.0796 139.242C35.6896 139.518 35.3926 139.92 35.1886 140.448C34.9906 140.976 34.8916 141.609 34.8916 142.347C34.8916 143.001 34.9816 143.595 35.1616 144.129C35.3416 144.663 35.6236 145.086 36.0076 145.398C36.3916 145.71 36.8926 145.866 37.5106 145.866ZM43.919 147V137.694H45.53V139.044C45.68 138.786 45.887 138.543 46.151 138.315C46.421 138.087 46.745 137.904 47.123 137.766C47.507 137.628 47.948 137.559 48.446 137.559C49.034 137.559 49.574 137.676 50.066 137.91C50.564 138.144 50.96 138.51 51.254 139.008C51.554 139.5 51.704 140.136 51.704 140.916V147H50.039V141.078C50.039 140.352 49.847 139.815 49.463 139.467C49.085 139.113 48.593 138.936 47.987 138.936C47.567 138.936 47.174 139.005 46.808 139.143C46.442 139.275 46.145 139.479 45.917 139.755C45.689 140.025 45.575 140.367 45.575 140.781V147H43.919ZM56.6567 147.117C56.1527 147.117 55.7447 147.048 55.4327 146.91C55.1267 146.772 54.8897 146.586 54.7217 146.352C54.5597 146.118 54.4487 145.851 54.3887 145.551C54.3347 145.245 54.3077 144.93 54.3077 144.606V133.626H55.9457V144.444C55.9457 144.912 56.0357 145.263 56.2157 145.497C56.4017 145.731 56.6597 145.86 56.9897 145.884L57.4937 145.893V146.973C57.3557 147.015 57.2117 147.048 57.0617 147.072C56.9117 147.102 56.7767 147.117 56.6567 147.117ZM60.2354 149.97C59.6894 149.97 59.3144 149.931 59.1104 149.853C58.9064 149.775 58.8044 149.736 58.8044 149.736V148.656L59.7494 148.674C60.0974 148.686 60.3854 148.662 60.6134 148.602C60.8414 148.542 61.0244 148.461 61.1624 148.359C61.3004 148.257 61.4054 148.143 61.4774 148.017C61.5554 147.891 61.6184 147.771 61.6664 147.657L61.9904 146.775L58.3544 137.694H60.0374L62.7824 144.876L65.5094 137.694H67.1384L63.2144 147.702C62.9744 148.29 62.7044 148.749 62.4044 149.079C62.1104 149.409 61.7804 149.64 61.4144 149.772C61.0544 149.904 60.6614 149.97 60.2354 149.97ZM78.2492 137.694V138.909H75.9902V147H74.3162V138.909H72.3542V137.694H74.3162V136.254C74.3162 135.516 74.5052 134.955 74.8832 134.571C75.2612 134.181 75.8252 133.986 76.5752 133.986H78.3302L78.3392 135.165H76.9442C76.5662 135.165 76.3082 135.267 76.1702 135.471C76.0322 135.675 75.9632 135.984 75.9632 136.398V137.694H78.2492ZM83.8992 147.18C83.0412 147.18 82.2912 146.997 81.6492 146.631C81.0072 146.259 80.5092 145.716 80.1552 145.002C79.8012 144.288 79.6242 143.415 79.6242 142.383C79.6242 141.411 79.7892 140.559 80.1192 139.827C80.4492 139.095 80.9322 138.528 81.5682 138.126C82.2102 137.718 82.9872 137.514 83.8992 137.514C84.7572 137.514 85.5012 137.703 86.1312 138.081C86.7672 138.453 87.2592 139.002 87.6072 139.728C87.9552 140.454 88.1292 141.339 88.1292 142.383C88.1292 143.331 87.9672 144.165 87.6432 144.885C87.3252 145.605 86.8512 146.169 86.2212 146.577C85.5972 146.979 84.8232 147.18 83.8992 147.18ZM83.8992 145.866C84.4572 145.866 84.9282 145.725 85.3122 145.443C85.6962 145.161 85.9872 144.756 86.1852 144.228C86.3832 143.7 86.4822 143.073 86.4822 142.347C86.4822 141.681 86.3952 141.084 86.2212 140.556C86.0472 140.022 85.7682 139.599 85.3842 139.287C85.0062 138.975 84.5112 138.819 83.8992 138.819C83.3352 138.819 82.8582 138.96 82.4682 139.242C82.0782 139.518 81.7812 139.92 81.5772 140.448C81.3792 140.976 81.2802 141.609 81.2802 142.347C81.2802 143.001 81.3702 143.595 81.5502 144.129C81.7302 144.663 82.0122 145.086 82.3962 145.398C82.7802 145.71 83.2812 145.866 83.8992 145.866ZM90.3077 147V137.694H91.8917V139.485C92.0477 139.041 92.2667 138.675 92.5487 138.387C92.8307 138.093 93.1517 137.874 93.5117 137.73C93.8777 137.586 94.2557 137.514 94.6457 137.514C94.7837 137.514 94.9187 137.523 95.0507 137.541C95.1827 137.559 95.2847 137.589 95.3567 137.631V139.242C95.2667 139.2 95.1497 139.173 95.0057 139.161C94.8677 139.143 94.7507 139.134 94.6547 139.134C94.2827 139.11 93.9347 139.134 93.6107 139.206C93.2867 139.272 93.0017 139.389 92.7557 139.557C92.5097 139.725 92.3147 139.947 92.1707 140.223C92.0327 140.493 91.9637 140.823 91.9637 141.213V147H90.3077ZM211.773 149.898V137.694H213.429L213.447 139.314C213.555 139.122 213.693 138.921 213.861 138.711C214.035 138.501 214.245 138.306 214.491 138.126C214.743 137.946 215.034 137.799 215.364 137.685C215.7 137.571 216.081 137.514 216.507 137.514C217.251 137.514 217.905 137.685 218.469 138.027C219.039 138.363 219.483 138.879 219.801 139.575C220.119 140.271 220.278 141.153 220.278 142.221C220.278 143.289 220.122 144.192 219.81 144.93C219.504 145.662 219.06 146.22 218.478 146.604C217.896 146.988 217.194 147.18 216.372 147.18C215.958 147.18 215.589 147.12 215.265 147C214.947 146.886 214.668 146.736 214.428 146.55C214.194 146.358 213.996 146.154 213.834 145.938C213.678 145.722 213.549 145.515 213.447 145.317V149.898H211.773ZM216.057 145.884C216.825 145.884 217.452 145.593 217.938 145.011C218.424 144.423 218.667 143.511 218.667 142.275C218.667 141.213 218.445 140.37 218.001 139.746C217.557 139.122 216.909 138.81 216.057 138.81C215.193 138.81 214.539 139.131 214.095 139.773C213.651 140.409 213.429 141.243 213.429 142.275C213.429 142.941 213.528 143.547 213.726 144.093C213.924 144.639 214.218 145.074 214.608 145.398C214.998 145.722 215.481 145.884 216.057 145.884ZM222.46 147V137.694H224.044V139.485C224.2 139.041 224.419 138.675 224.701 138.387C224.983 138.093 225.304 137.874 225.664 137.73C226.03 137.586 226.408 137.514 226.798 137.514C226.936 137.514 227.071 137.523 227.203 137.541C227.335 137.559 227.437 137.589 227.509 137.631V139.242C227.419 139.2 227.302 139.173 227.158 139.161C227.02 139.143 226.903 139.134 226.807 139.134C226.435 139.11 226.087 139.134 225.763 139.206C225.439 139.272 225.154 139.389 224.908 139.557C224.662 139.725 224.467 139.947 224.323 140.223C224.185 140.493 224.116 140.823 224.116 141.213V147H222.46ZM232.944 147.18C232.086 147.18 231.336 146.997 230.694 146.631C230.052 146.259 229.554 145.716 229.2 145.002C228.846 144.288 228.669 143.415 228.669 142.383C228.669 141.411 228.834 140.559 229.164 139.827C229.494 139.095 229.977 138.528 230.613 138.126C231.255 137.718 232.032 137.514 232.944 137.514C233.802 137.514 234.546 137.703 235.176 138.081C235.812 138.453 236.304 139.002 236.652 139.728C237 140.454 237.174 141.339 237.174 142.383C237.174 143.331 237.012 144.165 236.688 144.885C236.37 145.605 235.896 146.169 235.266 146.577C234.642 146.979 233.868 147.18 232.944 147.18ZM232.944 145.866C233.502 145.866 233.973 145.725 234.357 145.443C234.741 145.161 235.032 144.756 235.23 144.228C235.428 143.7 235.527 143.073 235.527 142.347C235.527 141.681 235.44 141.084 235.266 140.556C235.092 140.022 234.813 139.599 234.429 139.287C234.051 138.975 233.556 138.819 232.944 138.819C232.38 138.819 231.903 138.96 231.513 139.242C231.123 139.518 230.826 139.92 230.622 140.448C230.424 140.976 230.325 141.609 230.325 142.347C230.325 143.001 230.415 143.595 230.595 144.129C230.775 144.663 231.057 145.086 231.441 145.398C231.825 145.71 232.326 145.866 232.944 145.866ZM242.71 147.18C241.504 147.18 240.547 146.766 239.839 145.938C239.131 145.11 238.777 143.901 238.777 142.311C238.777 141.345 238.918 140.502 239.2 139.782C239.488 139.062 239.914 138.504 240.478 138.108C241.042 137.712 241.744 137.514 242.584 137.514C243.028 137.514 243.421 137.571 243.763 137.685C244.111 137.799 244.411 137.943 244.663 138.117C244.915 138.291 245.119 138.471 245.275 138.657C245.437 138.843 245.557 139.014 245.635 139.17V133.626H247.309V147H246.04L245.86 145.092C245.8 145.272 245.704 145.482 245.572 145.722C245.44 145.956 245.254 146.187 245.014 146.415C244.774 146.637 244.465 146.82 244.087 146.964C243.715 147.108 243.256 147.18 242.71 147.18ZM243.007 145.902C243.949 145.902 244.621 145.617 245.023 145.047C245.431 144.471 245.635 143.532 245.635 142.23C245.629 141.504 245.536 140.886 245.356 140.376C245.182 139.866 244.906 139.479 244.528 139.215C244.156 138.945 243.661 138.81 243.043 138.81C242.275 138.81 241.651 139.083 241.171 139.629C240.691 140.175 240.451 141.042 240.451 142.23C240.451 143.394 240.667 144.297 241.099 144.939C241.537 145.581 242.173 145.902 243.007 145.902ZM253.478 147.18C252.992 147.174 252.533 147.105 252.101 146.973C251.675 146.835 251.297 146.634 250.967 146.37C250.637 146.106 250.376 145.779 250.184 145.389C249.998 144.993 249.905 144.534 249.905 144.012V137.694H251.57V143.841C251.57 144.447 251.756 144.939 252.128 145.317C252.506 145.695 253.073 145.884 253.829 145.884C254.513 145.884 255.062 145.707 255.476 145.353C255.896 144.993 256.106 144.459 256.106 143.751V137.694H257.762V147H256.439L256.268 145.218C256.154 145.686 255.959 146.064 255.683 146.352C255.413 146.64 255.086 146.853 254.702 146.991C254.324 147.123 253.916 147.186 253.478 147.18ZM264.066 137.514C264.732 137.514 265.332 137.643 265.866 137.901C266.4 138.153 266.835 138.513 267.171 138.981C267.513 139.449 267.726 140.001 267.81 140.637H266.334C266.28 140.313 266.154 140.016 265.956 139.746C265.764 139.476 265.509 139.26 265.191 139.098C264.873 138.936 264.501 138.855 264.075 138.855C263.277 138.855 262.629 139.143 262.131 139.719C261.633 140.295 261.384 141.177 261.384 142.365C261.384 143.439 261.612 144.3 262.068 144.948C262.53 145.59 263.208 145.911 264.102 145.911C264.528 145.911 264.897 145.83 265.209 145.668C265.527 145.5 265.782 145.281 265.974 145.011C266.166 144.735 266.289 144.441 266.343 144.129H267.792C267.714 144.753 267.504 145.293 267.162 145.749C266.82 146.205 266.382 146.559 265.848 146.811C265.32 147.057 264.726 147.18 264.066 147.18C263.232 147.18 262.491 146.997 261.843 146.631C261.201 146.265 260.697 145.725 260.331 145.011C259.965 144.297 259.782 143.421 259.782 142.383C259.782 141.411 259.947 140.562 260.277 139.836C260.613 139.104 261.099 138.534 261.735 138.126C262.377 137.718 263.154 137.514 264.066 137.514ZM274.491 138.909H272.394V144.696C272.394 145.026 272.427 145.269 272.493 145.425C272.565 145.575 272.682 145.671 272.844 145.713C273.012 145.755 273.24 145.776 273.528 145.776H274.545V146.892C274.431 146.934 274.257 146.97 274.023 147C273.795 147.03 273.51 147.045 273.168 147.045C272.526 147.045 272.028 146.958 271.674 146.784C271.32 146.61 271.071 146.352 270.927 146.01C270.789 145.668 270.72 145.248 270.72 144.75V138.909H269.208V137.694H270.765L271.17 134.985H272.394V137.685H274.491V138.909ZM276.495 147V144.876H278.475V147H276.495Z" fill="white"/>
<path d="M106.313 147.18C105.683 147.18 105.068 147.102 104.468 146.946C103.868 146.784 103.322 146.547 102.83 146.235C102.344 145.917 101.939 145.524 101.615 145.056C101.291 144.582 101.093 144.03 101.021 143.4H103.289C103.385 143.838 103.574 144.207 103.856 144.507C104.138 144.807 104.489 145.035 104.909 145.191C105.335 145.347 105.8 145.425 106.304 145.425C106.844 145.425 107.33 145.353 107.762 145.209C108.2 145.065 108.545 144.855 108.797 144.579C109.055 144.303 109.184 143.964 109.184 143.562C109.184 143.208 109.091 142.908 108.905 142.662C108.719 142.416 108.458 142.215 108.122 142.059C107.792 141.897 107.405 141.768 106.961 141.672L104.567 141.15C103.601 140.952 102.836 140.568 102.272 139.998C101.708 139.428 101.42 138.669 101.408 137.721C101.402 136.935 101.609 136.251 102.029 135.669C102.455 135.081 103.034 134.628 103.766 134.31C104.498 133.986 105.326 133.824 106.25 133.824C107.33 133.824 108.239 134.001 108.977 134.355C109.721 134.703 110.282 135.171 110.66 135.759C111.044 136.347 111.239 136.992 111.245 137.694H109.031C108.977 137.178 108.821 136.767 108.563 136.461C108.311 136.155 107.987 135.936 107.591 135.804C107.195 135.672 106.757 135.606 106.277 135.606C105.917 135.606 105.581 135.648 105.269 135.732C104.957 135.816 104.684 135.939 104.45 136.101C104.216 136.263 104.033 136.461 103.901 136.695C103.775 136.923 103.712 137.184 103.712 137.478C103.712 137.898 103.85 138.24 104.126 138.504C104.408 138.762 104.933 138.981 105.701 139.161L108.041 139.683C108.767 139.827 109.352 140.043 109.796 140.331C110.24 140.619 110.579 140.949 110.813 141.321C111.047 141.687 111.203 142.062 111.281 142.446C111.359 142.83 111.398 143.196 111.398 143.544C111.398 144.222 111.188 144.837 110.768 145.389C110.354 145.941 109.766 146.379 109.004 146.703C108.248 147.021 107.351 147.18 106.313 147.18ZM113.622 147V137.694H115.755V139.026C116.025 138.618 116.391 138.264 116.853 137.964C117.321 137.664 117.915 137.514 118.635 137.514C118.965 137.514 119.298 137.571 119.634 137.685C119.976 137.799 120.291 137.967 120.579 138.189C120.873 138.411 121.107 138.687 121.281 139.017C121.575 138.579 121.965 138.219 122.451 137.937C122.943 137.655 123.495 137.514 124.107 137.514C124.443 137.514 124.788 137.568 125.142 137.676C125.502 137.784 125.832 137.964 126.132 138.216C126.432 138.468 126.675 138.813 126.861 139.251C127.047 139.683 127.14 140.226 127.14 140.88V147H124.953V141.141C124.953 140.679 124.872 140.316 124.71 140.052C124.548 139.788 124.338 139.602 124.08 139.494C123.828 139.38 123.558 139.323 123.27 139.323C123.012 139.323 122.742 139.374 122.46 139.476C122.184 139.578 121.947 139.746 121.749 139.98C121.557 140.214 121.461 140.529 121.461 140.925V147H119.274V140.79C119.274 140.466 119.19 140.196 119.022 139.98C118.854 139.764 118.641 139.602 118.383 139.494C118.131 139.38 117.873 139.323 117.609 139.323C117.339 139.323 117.063 139.38 116.781 139.494C116.505 139.608 116.274 139.782 116.088 140.016C115.902 140.25 115.809 140.553 115.809 140.925V147H113.622ZM132.079 147.18C131.485 147.18 130.951 147.072 130.477 146.856C130.009 146.634 129.64 146.319 129.37 145.911C129.106 145.497 128.974 144.996 128.974 144.408C128.974 143.382 129.343 142.608 130.081 142.086C130.825 141.564 132.01 141.291 133.636 141.267L135.022 141.231V140.601C135.022 140.109 134.875 139.725 134.581 139.449C134.293 139.167 133.843 139.029 133.231 139.035C132.781 139.041 132.367 139.149 131.989 139.359C131.617 139.563 131.371 139.908 131.251 140.394H129.388C129.424 139.758 129.607 139.227 129.937 138.801C130.273 138.369 130.732 138.048 131.314 137.838C131.896 137.622 132.568 137.514 133.33 137.514C134.218 137.514 134.941 137.631 135.499 137.865C136.057 138.099 136.468 138.438 136.732 138.882C136.996 139.32 137.128 139.851 137.128 140.475V147H135.283L135.112 145.326C134.776 146.028 134.35 146.514 133.834 146.784C133.324 147.048 132.739 147.18 132.079 147.18ZM132.79 145.695C133.06 145.695 133.327 145.647 133.591 145.551C133.855 145.449 134.095 145.314 134.311 145.146C134.527 144.972 134.698 144.78 134.824 144.57C134.956 144.36 135.022 144.141 135.022 143.913V142.446L133.879 142.464C133.315 142.47 132.823 142.53 132.403 142.644C131.983 142.758 131.653 142.941 131.413 143.193C131.179 143.439 131.062 143.769 131.062 144.183C131.062 144.657 131.227 145.029 131.557 145.299C131.887 145.563 132.298 145.695 132.79 145.695ZM139.69 147V137.694H141.787V139.71C141.937 139.248 142.15 138.855 142.426 138.531C142.708 138.201 143.038 137.949 143.416 137.775C143.794 137.601 144.205 137.514 144.649 137.514C144.757 137.514 144.862 137.52 144.964 137.532C145.066 137.544 145.141 137.565 145.189 137.595V139.692C145.123 139.662 145.036 139.641 144.928 139.629C144.826 139.617 144.736 139.611 144.658 139.611C144.208 139.575 143.809 139.593 143.461 139.665C143.119 139.737 142.828 139.86 142.588 140.034C142.354 140.202 142.177 140.418 142.057 140.682C141.937 140.94 141.877 141.243 141.877 141.591V147H139.69ZM152.295 139.242H150.216L150.225 144.579C150.225 144.855 150.255 145.059 150.315 145.191C150.381 145.317 150.483 145.401 150.621 145.443C150.765 145.479 150.957 145.497 151.197 145.497H152.34V146.883C152.22 146.931 152.037 146.973 151.791 147.009C151.551 147.051 151.227 147.072 150.819 147.072C150.081 147.072 149.508 146.976 149.1 146.784C148.698 146.586 148.419 146.307 148.263 145.947C148.107 145.587 148.029 145.158 148.029 144.66V139.242H146.517V137.694H148.092L148.641 134.931H150.216V137.685H152.295V139.242ZM154.771 147V133.986H159.388C160.324 133.986 161.161 134.148 161.899 134.472C162.643 134.79 163.228 135.261 163.654 135.885C164.08 136.509 164.293 137.277 164.293 138.189C164.293 139.047 164.098 139.782 163.708 140.394C163.324 141.006 162.787 141.474 162.097 141.798C161.407 142.122 160.6 142.284 159.676 142.284H156.994V147H154.771ZM156.976 140.529H159.622C160.384 140.529 161.005 140.301 161.485 139.845C161.971 139.389 162.214 138.795 162.214 138.063C162.214 137.319 161.962 136.743 161.458 136.335C160.954 135.921 160.321 135.714 159.559 135.714H156.976V140.529ZM166.04 147V133.626H168.2V139.044C168.35 138.81 168.548 138.585 168.794 138.369C169.04 138.147 169.34 137.967 169.694 137.829C170.054 137.685 170.483 137.613 170.981 137.613C171.575 137.613 172.118 137.727 172.61 137.955C173.102 138.183 173.495 138.513 173.789 138.945C174.083 139.371 174.23 139.881 174.23 140.475V147H172.034V140.844C172.034 140.364 171.863 139.992 171.521 139.728C171.185 139.464 170.759 139.332 170.243 139.332C169.901 139.332 169.574 139.392 169.262 139.512C168.95 139.632 168.698 139.812 168.506 140.052C168.32 140.286 168.227 140.58 168.227 140.934V147H166.04ZM180.43 147.18C179.542 147.18 178.768 146.991 178.108 146.613C177.448 146.229 176.935 145.68 176.569 144.966C176.209 144.252 176.029 143.394 176.029 142.392C176.029 141.42 176.203 140.568 176.551 139.836C176.905 139.104 177.412 138.534 178.072 138.126C178.732 137.718 179.521 137.514 180.439 137.514C181.327 137.514 182.098 137.709 182.752 138.099C183.406 138.489 183.91 139.047 184.264 139.773C184.624 140.499 184.804 141.372 184.804 142.392C184.804 143.334 184.633 144.165 184.291 144.885C183.955 145.599 183.46 146.16 182.806 146.568C182.158 146.976 181.366 147.18 180.43 147.18ZM180.439 145.515C180.943 145.515 181.357 145.377 181.681 145.101C182.011 144.825 182.254 144.447 182.41 143.967C182.572 143.487 182.653 142.941 182.653 142.329C182.653 141.759 182.581 141.234 182.437 140.754C182.299 140.274 182.065 139.89 181.735 139.602C181.411 139.308 180.979 139.161 180.439 139.161C179.929 139.161 179.506 139.296 179.17 139.566C178.84 139.83 178.591 140.202 178.423 140.682C178.261 141.156 178.18 141.705 178.18 142.329C178.18 142.893 178.252 143.418 178.396 143.904C178.546 144.384 178.786 144.774 179.116 145.074C179.446 145.368 179.887 145.515 180.439 145.515ZM186.747 147V137.694H188.889V139.026C189.033 138.786 189.228 138.555 189.474 138.333C189.726 138.111 190.035 137.931 190.401 137.793C190.767 137.655 191.196 137.586 191.688 137.586C192.264 137.586 192.798 137.7 193.29 137.928C193.788 138.156 194.187 138.513 194.487 138.999C194.793 139.485 194.946 140.112 194.946 140.88V147H192.75V141.141C192.75 140.529 192.582 140.076 192.246 139.782C191.91 139.482 191.487 139.332 190.977 139.332C190.629 139.332 190.299 139.392 189.987 139.512C189.675 139.626 189.42 139.803 189.222 140.043C189.03 140.277 188.934 140.571 188.934 140.925V147H186.747ZM199.013 142.851C199.007 143.379 199.091 143.847 199.265 144.255C199.439 144.663 199.697 144.984 200.039 145.218C200.381 145.446 200.804 145.56 201.308 145.56C201.824 145.56 202.271 145.446 202.649 145.218C203.033 144.984 203.288 144.63 203.414 144.156H205.421C205.313 144.804 205.055 145.353 204.647 145.803C204.239 146.253 203.744 146.595 203.162 146.829C202.586 147.063 201.986 147.18 201.362 147.18C200.462 147.18 199.67 146.991 198.986 146.613C198.308 146.229 197.777 145.683 197.393 144.975C197.015 144.267 196.826 143.424 196.826 142.446C196.826 141.492 197 140.646 197.348 139.908C197.696 139.164 198.197 138.579 198.851 138.153C199.511 137.727 200.303 137.514 201.227 137.514C202.145 137.514 202.916 137.709 203.54 138.099C204.17 138.489 204.644 139.035 204.962 139.737C205.286 140.433 205.448 141.249 205.448 142.185V142.851H199.013ZM199.013 141.492H203.378C203.378 141.042 203.3 140.637 203.144 140.277C202.988 139.911 202.748 139.623 202.424 139.413C202.106 139.197 201.704 139.089 201.218 139.089C200.738 139.089 200.333 139.206 200.003 139.44C199.673 139.674 199.424 139.977 199.256 140.349C199.088 140.715 199.007 141.096 199.013 141.492Z" fill="#EBC80C"/>
<rect x="32" y="176" width="248" height="48" rx="2" fill="#2DA5F3"/>
<path d="M106.935 205.14C106.436 205.14 105.946 205.077 105.465 204.951C104.984 204.825 104.546 204.636 104.149 204.384C103.752 204.132 103.423 203.817 103.162 203.439C102.905 203.061 102.751 202.618 102.7 202.109H104.793C104.863 202.417 104.996 202.676 105.192 202.886C105.388 203.096 105.635 203.257 105.934 203.369C106.233 203.481 106.564 203.537 106.928 203.537C107.301 203.537 107.642 203.49 107.95 203.397C108.258 203.304 108.505 203.164 108.692 202.977C108.879 202.786 108.972 202.548 108.972 202.263C108.972 202.006 108.895 201.796 108.741 201.633C108.592 201.47 108.389 201.337 108.132 201.234C107.875 201.131 107.584 201.047 107.257 200.982L105.507 200.625C104.742 200.48 104.135 200.177 103.687 199.715C103.239 199.248 103.008 198.628 102.994 197.853C102.989 197.218 103.157 196.67 103.498 196.208C103.843 195.741 104.31 195.382 104.898 195.13C105.491 194.878 106.153 194.752 106.886 194.752C107.759 194.752 108.491 194.89 109.084 195.165C109.681 195.436 110.134 195.804 110.442 196.271C110.755 196.733 110.916 197.249 110.925 197.818H108.874C108.837 197.463 108.729 197.181 108.552 196.971C108.375 196.761 108.146 196.609 107.866 196.516C107.591 196.423 107.276 196.376 106.921 196.376C106.65 196.376 106.403 196.406 106.179 196.467C105.96 196.528 105.773 196.614 105.619 196.726C105.465 196.833 105.346 196.962 105.262 197.111C105.178 197.26 105.136 197.428 105.136 197.615C105.136 197.909 105.234 198.147 105.43 198.329C105.626 198.511 105.992 198.66 106.529 198.777L108.265 199.134C108.886 199.255 109.378 199.435 109.742 199.673C110.111 199.911 110.386 200.179 110.568 200.478C110.755 200.777 110.876 201.082 110.932 201.395C110.993 201.703 111.023 201.988 111.023 202.249C111.023 202.795 110.85 203.287 110.505 203.726C110.164 204.16 109.688 204.505 109.077 204.762C108.466 205.014 107.752 205.14 106.935 205.14ZM119.463 200.653H115.032V205H112.995V194.878H115.032V198.938H119.463V194.878H121.507V205H119.463V200.653ZM128.144 205.14C127.187 205.14 126.359 204.932 125.659 204.517C124.963 204.097 124.424 203.502 124.042 202.732C123.664 201.957 123.475 201.033 123.475 199.96C123.475 198.882 123.666 197.953 124.049 197.174C124.436 196.395 124.98 195.795 125.68 195.375C126.38 194.95 127.201 194.738 128.144 194.738C129.082 194.738 129.898 194.948 130.594 195.368C131.289 195.788 131.826 196.388 132.204 197.167C132.586 197.946 132.778 198.877 132.778 199.96C132.778 201.029 132.589 201.95 132.211 202.725C131.837 203.5 131.303 204.097 130.608 204.517C129.912 204.932 129.091 205.14 128.144 205.14ZM128.144 203.46C128.638 203.46 129.065 203.343 129.425 203.11C129.789 202.872 130.069 202.499 130.265 201.99C130.461 201.477 130.559 200.809 130.559 199.988C130.559 199.143 130.458 198.46 130.258 197.937C130.062 197.414 129.782 197.032 129.418 196.789C129.058 196.542 128.634 196.418 128.144 196.418C127.654 196.418 127.227 196.542 126.863 196.789C126.499 197.032 126.216 197.417 126.016 197.944C125.815 198.467 125.715 199.148 125.715 199.988C125.715 200.814 125.815 201.481 126.016 201.99C126.216 202.499 126.499 202.872 126.863 203.11C127.227 203.343 127.654 203.46 128.144 203.46ZM134.755 205V194.878H138.479C139.217 194.878 139.877 195.006 140.46 195.263C141.044 195.515 141.503 195.888 141.839 196.383C142.18 196.878 142.35 197.482 142.35 198.196C142.35 198.868 142.201 199.442 141.902 199.918C141.604 200.394 141.184 200.758 140.642 201.01C140.106 201.262 139.473 201.388 138.745 201.388H136.813V205H134.755ZM136.792 199.806H138.689C139.203 199.806 139.623 199.643 139.949 199.316C140.276 198.985 140.439 198.576 140.439 198.091C140.439 197.587 140.267 197.188 139.921 196.894C139.576 196.595 139.156 196.446 138.661 196.446H136.792V199.806ZM153.834 194.878H155.878V205H154.037L149.228 198.035V205H147.191V194.878H149.214L153.834 201.577V194.878ZM162.517 205.14C161.56 205.14 160.732 204.932 160.032 204.517C159.337 204.097 158.798 203.502 158.415 202.732C158.037 201.957 157.848 201.033 157.848 199.96C157.848 198.882 158.039 197.953 158.422 197.174C158.809 196.395 159.353 195.795 160.053 195.375C160.753 194.95 161.574 194.738 162.517 194.738C163.455 194.738 164.272 194.948 164.967 195.368C165.662 195.788 166.199 196.388 166.577 197.167C166.96 197.946 167.151 198.877 167.151 199.96C167.151 201.029 166.962 201.95 166.584 202.725C166.211 203.5 165.676 204.097 164.981 204.517C164.286 204.932 163.464 205.14 162.517 205.14ZM162.517 203.46C163.012 203.46 163.439 203.343 163.798 203.11C164.162 202.872 164.442 202.499 164.638 201.99C164.834 201.477 164.932 200.809 164.932 199.988C164.932 199.143 164.832 198.46 164.631 197.937C164.435 197.414 164.155 197.032 163.791 196.789C163.432 196.542 163.007 196.418 162.517 196.418C162.027 196.418 161.6 196.542 161.236 196.789C160.872 197.032 160.59 197.417 160.389 197.944C160.188 198.467 160.088 199.148 160.088 199.988C160.088 200.814 160.188 201.481 160.389 201.99C160.59 202.499 160.872 202.872 161.236 203.11C161.6 203.343 162.027 203.46 162.517 203.46ZM181 194.878L178.011 205H176.38L174.476 198.385L172.558 205H170.955L167.973 194.878H169.975L171.858 201.563L173.741 194.878H175.218L177.122 201.563L179.005 194.878H181Z" fill="white"/>
<path d="M193.125 200H206.875" stroke="white" stroke-width="1.8" stroke-linecap="round" stroke-linejoin="round"/>
<path d="M201.25 194.375L206.875 200L201.25 205.625" stroke="white" stroke-width="1.8" stroke-linecap="round" stroke-linejoin="round"/>
</svg>
